<svg xmlns="http://www.w3.org/2000/svg" xmlns:xlink="http://www.w3.org/1999/xlink" width="80" zoomAndPan="magnify" viewBox="0 0 60 60" height="80" preserveAspectRatio="xMidYMid meet" version="1.0"><defs><g/><clipPath id="744279a6da"><path d="M 6 9.125 L 51.75 9.125 L 51.75 45.875 L 6 45.875 Z M 6 9.125 " clip-rule="nonzero"/></clipPath></defs><g clip-path="url(#744279a6da)"><path fill="#000000" d="M 32.765625 9.183594 C 32.6875 9.234375 32.707031 9.347656 32.8125 9.445312 C 33.023438 9.648438 33.601562 10.386719 33.84375 10.761719 C 34.613281 11.953125 34.394531 13.242188 33.304688 13.929688 C 33.148438 14.027344 32.710938 14.246094 32.257812 14.449219 C 30.222656 15.367188 29.015625 16.453125 28.117188 18.183594 C 27.628906 19.125 27.421875 19.835938 27.433594 20.527344 L 27.4375 20.824219 L 27.25 20.625 C 27.148438 20.519531 27.054688 20.417969 27.042969 20.402344 C 26.90625 20.207031 25.6875 19.113281 25.03125 18.59375 C 22.046875 16.25 19.605469 15.195312 17.640625 15.414062 C 16.929688 15.492188 16.890625 15.523438 15.140625 17.480469 C 14.558594 18.128906 13.15625 19.535156 11.839844 20.789062 C 11.617188 21.003906 11.179688 21.433594 10.871094 21.742188 C 10.5625 22.046875 10.257812 22.351562 10.191406 22.414062 C 10.125 22.476562 9.894531 22.699219 9.675781 22.914062 C 9.191406 23.386719 9.164062 23.414062 8.980469 23.515625 C 8.613281 23.730469 8.476562 23.949219 8.683594 24 C 8.742188 24.015625 8.769531 24.015625 8.792969 24.003906 C 8.824219 23.984375 9.175781 23.71875 9.246094 23.660156 C 9.417969 23.515625 10.753906 22.945312 11.550781 22.675781 C 12.015625 22.519531 12.632812 22.359375 13.125 22.261719 C 13.382812 22.214844 13.84375 22.140625 13.867188 22.144531 C 13.894531 22.152344 13.546875 22.394531 13.09375 22.679688 C 12.640625 22.972656 11.074219 24.019531 10.476562 24.429688 C 9.007812 25.4375 7.621094 26.625 6.523438 27.816406 C 6.203125 28.160156 6.144531 28.253906 6.179688 28.351562 C 6.230469 28.464844 6.277344 28.457031 6.71875 28.253906 C 7.273438 28 7.738281 27.800781 8.371094 27.550781 L 8.445312 27.519531 L 8.398438 27.570312 C 7.765625 28.253906 6.046875 30.371094 6.023438 30.492188 C 6 30.617188 6.066406 30.683594 6.148438 30.621094 C 6.214844 30.574219 6.546875 30.378906 6.808594 30.226562 C 6.945312 30.152344 7.085938 30.070312 7.121094 30.050781 C 7.15625 30.03125 7.183594 30.015625 7.183594 30.019531 C 7.183594 30.023438 7.117188 30.167969 7.035156 30.34375 C 6.632812 31.207031 6.664062 31.308594 7.308594 31.15625 C 7.742188 31.054688 7.730469 31.054688 9.246094 30.742188 L 9.453125 30.699219 L 9.414062 30.746094 C 8.839844 31.472656 8.570312 32.460938 8.730469 33.265625 C 8.816406 33.703125 9.214844 34.460938 9.5 34.742188 C 9.539062 34.78125 9.878906 34.921875 11.214844 35.460938 L 12.878906 36.136719 L 12.714844 36.136719 C 12.449219 36.136719 11.375 36.195312 11.320312 36.214844 C 11.25 36.238281 11.246094 36.265625 11.246094 36.691406 C 11.246094 37.046875 11.246094 37.089844 11.28125 37.238281 C 11.417969 37.839844 11.441406 38.542969 11.339844 39.09375 C 11.25 39.597656 10.910156 40.664062 10.78125 40.851562 C 10.675781 41.007812 10.648438 41.207031 10.722656 41.28125 C 10.851562 41.40625 12.945312 42.046875 16.523438 43.058594 C 16.644531 43.09375 17.09375 43.21875 17.523438 43.339844 C 18.015625 43.480469 18.371094 43.589844 18.5 43.640625 C 20.195312 44.316406 23.542969 45.246094 25.511719 45.582031 C 27.179688 45.867188 27.796875 45.777344 28.664062 45.117188 C 28.789062 45.023438 28.765625 45.03125 29.398438 44.886719 C 29.792969 44.796875 31.414062 44.390625 32.042969 44.222656 C 35.09375 43.417969 36.3125 43.117188 37.804688 42.816406 C 38.875 42.601562 39.46875 42.496094 42.167969 42.046875 C 44.78125 41.609375 46.386719 41.207031 47.703125 40.664062 C 48.773438 40.21875 48.84375 40.125 48.808594 39.179688 C 48.769531 38.066406 48.714844 37.726562 48.457031 37 C 48.144531 36.117188 48.035156 36.027344 46.636719 35.507812 C 46.15625 35.332031 45.714844 35.144531 45.433594 35.003906 C 45.320312 34.945312 45.320312 34.945312 45.3125 34.875 C 45.304688 34.816406 45.292969 34.796875 45.210938 34.710938 C 44.867188 34.375 44.539062 33.78125 44.40625 33.261719 C 44.21875 32.523438 44.316406 31.769531 44.789062 30.328125 L 44.871094 30.074219 L 45.136719 30.074219 C 45.539062 30.074219 45.59375 30.039062 45.582031 29.796875 C 45.574219 29.652344 45.527344 29.519531 45.382812 29.253906 L 45.289062 29.078125 L 45.34375 29.078125 C 45.375 29.078125 45.46875 29.085938 45.554688 29.09375 C 45.640625 29.101562 45.917969 29.117188 46.167969 29.132812 C 47.152344 29.179688 47.890625 29.292969 49.109375 29.585938 C 49.269531 29.621094 49.589844 29.691406 49.824219 29.738281 C 50.058594 29.78125 50.351562 29.84375 50.476562 29.875 C 50.925781 29.980469 50.972656 29.988281 51.140625 29.984375 C 51.414062 29.972656 51.511719 29.894531 51.511719 29.671875 C 51.511719 29.492188 51.445312 29.339844 51.082031 28.722656 C 50.972656 28.542969 50.886719 28.390625 50.890625 28.390625 C 50.894531 28.386719 51.03125 28.445312 51.199219 28.523438 C 51.621094 28.710938 51.738281 28.714844 51.738281 28.539062 C 51.734375 28.226562 50.789062 27.066406 49.804688 26.167969 C 48.996094 25.433594 48.34375 24.90625 47.527344 24.324219 C 47.398438 24.234375 47.199219 24.085938 47.078125 23.996094 C 46.960938 23.90625 46.84375 23.820312 46.820312 23.808594 L 46.773438 23.785156 L 46.90625 23.734375 C 47.871094 23.382812 48.800781 22.710938 49.054688 22.183594 C 49.203125 21.878906 49.136719 21.808594 48.691406 21.792969 C 48.03125 21.765625 47.511719 21.59375 46.617188 21.105469 C 45.734375 20.625 44.957031 20.246094 44.03125 19.84375 C 43.746094 19.71875 43.519531 19.617188 43.085938 19.417969 C 42.726562 19.25 42.125 18.9375 41.753906 18.722656 C 41.277344 18.441406 40.28125 17.832031 40.105469 17.710938 L 39.886719 17.5625 L 39.832031 17.421875 C 39.484375 16.585938 39 15.933594 37.632812 14.464844 C 36.863281 13.636719 36.25 12.925781 34.964844 11.382812 C 34.246094 10.519531 33.707031 9.925781 33.238281 9.480469 C 32.890625 9.15625 32.84375 9.125 32.765625 9.183594 M 34.582031 11.320312 C 34.707031 11.472656 34.949219 11.761719 35.117188 11.960938 C 35.289062 12.160156 35.480469 12.390625 35.542969 12.46875 C 36.042969 13.070312 36.753906 13.882812 37.273438 14.449219 C 38.097656 15.335938 38.308594 15.574219 38.578125 15.898438 C 38.96875 16.371094 39.324219 16.910156 39.519531 17.320312 C 39.5625 17.414062 39.609375 17.511719 39.621094 17.535156 C 39.800781 17.867188 39.910156 18.613281 39.835938 19.03125 C 39.703125 19.832031 39.253906 20.417969 37.8125 21.679688 C 36.601562 22.742188 36.058594 23.167969 34.730469 24.089844 C 32.902344 25.355469 32.109375 26.058594 31.546875 26.90625 C 31.179688 27.46875 31.03125 27.894531 30.75 29.203125 C 30.695312 29.464844 30.644531 29.675781 30.636719 29.671875 C 30.632812 29.664062 30.589844 29.539062 30.539062 29.386719 C 30.488281 29.238281 30.339844 28.808594 30.214844 28.429688 C 30.085938 28.050781 29.867188 27.402344 29.730469 26.984375 C 29.421875 26.054688 29.074219 25.035156 28.832031 24.355469 C 28.058594 22.164062 27.890625 21.6875 27.792969 21.355469 C 27.527344 20.472656 27.652344 19.675781 28.242188 18.484375 C 29.089844 16.769531 30.34375 15.582031 32.183594 14.75 C 33.210938 14.289062 33.472656 14.148438 33.769531 13.902344 C 34.554688 13.253906 34.761719 12.042969 34.265625 11.011719 L 34.207031 10.890625 L 34.277344 10.964844 C 34.316406 11.007812 34.453125 11.167969 34.582031 11.320312 M 18.769531 15.660156 C 20.128906 15.832031 21.582031 16.472656 23.367188 17.695312 C 24.875 18.726562 26.066406 19.722656 27.027344 20.761719 C 27.484375 21.253906 27.539062 21.320312 27.578125 21.464844 C 27.636719 21.671875 27.816406 22.203125 28.203125 23.289062 C 28.878906 25.210938 29.136719 25.953125 29.660156 27.535156 C 29.925781 28.335938 30.195312 29.128906 30.300781 29.425781 C 30.339844 29.53125 30.359375 29.605469 30.351562 29.589844 C 30.339844 29.578125 30.289062 29.511719 30.238281 29.441406 C 27.332031 25.585938 22.425781 22.617188 17.867188 21.960938 C 15.007812 21.550781 12.75 21.847656 10.058594 22.996094 C 9.96875 23.03125 9.894531 23.0625 9.890625 23.058594 C 9.886719 23.054688 10.019531 22.925781 10.1875 22.765625 C 10.355469 22.609375 10.753906 22.21875 11.074219 21.898438 C 11.394531 21.578125 11.839844 21.140625 12.066406 20.925781 C 13.527344 19.527344 14.707031 18.34375 15.449219 17.515625 C 16.683594 16.140625 16.949219 15.875 17.191406 15.765625 C 17.492188 15.628906 18.164062 15.582031 18.769531 15.660156 M 40.101562 18.011719 C 40.148438 18.046875 40.355469 18.171875 40.5625 18.296875 C 40.765625 18.417969 41.050781 18.589844 41.195312 18.675781 C 42.085938 19.214844 42.777344 19.566406 43.996094 20.09375 C 44.773438 20.429688 45.304688 20.6875 46.238281 21.183594 C 47.507812 21.859375 48.023438 22.035156 48.714844 22.035156 C 48.792969 22.035156 48.855469 22.039062 48.855469 22.042969 C 48.855469 22.09375 48.597656 22.398438 48.421875 22.558594 C 47.636719 23.273438 46.511719 23.738281 45.285156 23.855469 C 44.578125 23.925781 43.976562 23.902344 42.539062 23.757812 C 40.980469 23.601562 40.238281 23.585938 39.179688 23.691406 C 37.519531 23.859375 36.078125 24.386719 34.878906 25.269531 C 33.21875 26.492188 31.792969 28.40625 31.320312 30.058594 C 31.1875 30.527344 31.191406 30.703125 31.332031 30.703125 C 31.421875 30.703125 31.4375 30.683594 31.441406 30.570312 C 31.457031 30.019531 32.113281 28.652344 32.8125 27.710938 C 34.417969 25.546875 36.367188 24.324219 38.75 23.988281 C 39.410156 23.894531 39.734375 23.871094 40.5 23.871094 C 41.265625 23.875 41.371094 23.878906 42.480469 23.992188 C 44.425781 24.191406 45.390625 24.171875 46.320312 23.917969 L 46.453125 23.882812 L 46.582031 23.957031 C 46.652344 23.996094 46.800781 24.101562 46.914062 24.1875 C 47.023438 24.273438 47.21875 24.417969 47.347656 24.507812 C 48.847656 25.570312 50.238281 26.824219 50.980469 27.785156 C 51.152344 28.007812 51.367188 28.308594 51.359375 28.316406 C 51.355469 28.320312 51.171875 28.242188 50.953125 28.144531 C 50.730469 28.046875 50.429688 27.910156 50.28125 27.847656 C 50.132812 27.78125 49.726562 27.601562 49.378906 27.445312 C 46.457031 26.140625 44.988281 25.71875 42.824219 25.570312 C 42.460938 25.542969 41.210938 25.542969 40.875 25.570312 C 37.460938 25.824219 34.984375 26.824219 33.230469 28.65625 C 32.613281 29.304688 31.980469 30.21875 31.886719 30.609375 C 31.84375 30.773438 32.042969 30.8125 32.101562 30.652344 C 32.242188 30.277344 32.875 29.398438 33.417969 28.832031 C 35.117188 27.058594 37.429688 26.101562 40.71875 25.820312 C 41.105469 25.785156 42.492188 25.78125 42.882812 25.8125 C 44.960938 25.972656 46.417969 26.390625 49.101562 27.589844 C 49.351562 27.703125 49.570312 27.792969 49.582031 27.792969 C 49.59375 27.792969 49.601562 27.804688 49.601562 27.820312 C 49.601562 27.855469 49.808594 28.285156 49.828125 28.289062 C 49.835938 28.292969 49.886719 28.363281 49.945312 28.449219 C 50 28.535156 50.132812 28.726562 50.234375 28.875 C 50.339844 29.023438 50.417969 29.148438 50.414062 29.148438 C 50.40625 29.152344 50.199219 29.097656 49.953125 29.023438 C 48.652344 28.648438 47.785156 28.5 46.371094 28.410156 C 45.972656 28.386719 44.230469 28.386719 43.695312 28.410156 C 41.859375 28.496094 40.617188 28.597656 38.3125 28.84375 C 35.835938 29.113281 34.863281 29.242188 33.574219 29.472656 C 33.234375 29.535156 33.117188 29.675781 33.058594 30.089844 C 32.957031 30.789062 32.582031 31.078125 31.707031 31.132812 C 30.726562 31.195312 29.738281 30.96875 29.386719 30.597656 L 29.320312 30.53125 L 29.351562 30.496094 C 29.398438 30.441406 29.421875 30.347656 29.402344 30.273438 C 29.394531 30.238281 29.390625 30.210938 29.394531 30.210938 C 29.429688 30.210938 29.917969 30.648438 29.929688 30.695312 C 29.953125 30.769531 30.074219 30.773438 30.136719 30.703125 C 30.164062 30.675781 30.199219 30.648438 30.210938 30.648438 C 30.269531 30.648438 30.257812 30.550781 30.179688 30.390625 C 29.128906 28.207031 24.285156 26.007812 19.738281 25.640625 C 16.625 25.390625 11.871094 26.027344 8.871094 27.097656 C 8.503906 27.226562 7.53125 27.621094 7.074219 27.828125 C 6.886719 27.910156 6.730469 27.976562 6.726562 27.972656 C 6.71875 27.964844 7.589844 27.085938 7.816406 26.878906 C 8.917969 25.863281 9.847656 25.140625 11.414062 24.09375 C 12.613281 23.292969 12.960938 23.066406 13.324219 22.832031 C 13.714844 22.578125 13.894531 22.457031 14.257812 22.191406 L 14.410156 22.078125 L 14.5625 22.066406 C 15.910156 21.945312 17.839844 22.117188 19.351562 22.496094 C 22.707031 23.339844 26.390625 25.53125 28.789062 28.121094 C 29.488281 28.871094 30.355469 29.953125 30.488281 30.230469 C 30.535156 30.332031 30.558594 30.34375 30.679688 30.320312 C 30.8125 30.292969 30.867188 30.226562 30.820312 30.140625 C 30.789062 30.078125 31.140625 28.46875 31.292969 28 C 31.671875 26.808594 32.558594 25.894531 34.898438 24.277344 C 36.3125 23.300781 37.253906 22.550781 38.523438 21.386719 C 39.636719 20.363281 40.050781 19.6875 40.101562 18.808594 C 40.113281 18.566406 40.054688 18.046875 40.007812 17.96875 C 39.992188 17.941406 40.019531 17.953125 40.101562 18.011719 M 33.519531 18.363281 C 32.816406 18.597656 31.894531 19.167969 31.300781 19.730469 C 31.066406 19.949219 31.050781 19.972656 31.050781 20.058594 C 31.054688 20.21875 31.152344 20.203125 31.359375 20.007812 C 32.035156 19.378906 32.964844 18.792969 33.601562 18.589844 C 33.824219 18.519531 33.832031 18.515625 33.839844 18.460938 C 33.871094 18.292969 33.792969 18.269531 33.519531 18.363281 M 18.109375 19.25 C 18.058594 19.261719 18.058594 19.40625 18.109375 19.433594 C 18.125 19.441406 18.203125 19.453125 18.285156 19.457031 C 19.328125 19.53125 20.269531 19.769531 21.074219 20.164062 C 21.460938 20.355469 21.511719 20.367188 21.535156 20.253906 C 21.5625 20.148438 21.542969 20.128906 21.230469 19.972656 C 20.691406 19.699219 20.332031 19.570312 19.703125 19.429688 C 19.113281 19.300781 18.277344 19.203125 18.109375 19.25 M 34.746094 19.339844 C 34.652344 19.375 33.601562 20.035156 33.265625 20.269531 C 32.226562 20.992188 31.226562 21.960938 30.472656 22.96875 C 30.332031 23.15625 30.304688 23.261719 30.390625 23.308594 C 30.457031 23.34375 30.515625 23.3125 30.609375 23.183594 C 31.613281 21.851562 32.796875 20.808594 34.4375 19.816406 C 34.957031 19.5 34.933594 19.519531 34.933594 19.429688 C 34.933594 19.339844 34.851562 19.300781 34.746094 19.339844 M 37.015625 19.863281 C 36.199219 20.203125 34.710938 21.214844 33.691406 22.121094 C 32.679688 23.019531 31.417969 24.464844 31.214844 24.960938 C 31.136719 25.148438 31.332031 25.207031 31.4375 25.027344 C 31.503906 24.917969 31.765625 24.558594 31.957031 24.316406 C 33.320312 22.597656 35.097656 21.117188 36.921875 20.183594 C 37.234375 20.023438 37.25 20.011719 37.230469 19.90625 C 37.214844 19.824219 37.144531 19.808594 37.015625 19.863281 M 17.175781 20.28125 C 17.136719 20.296875 17.121094 20.367188 17.140625 20.421875 C 17.15625 20.46875 17.1875 20.476562 17.546875 20.523438 C 18.378906 20.640625 19.515625 20.890625 20.300781 21.128906 C 22.113281 21.675781 23.40625 22.394531 25.046875 23.753906 C 25.160156 23.851562 25.269531 23.933594 25.296875 23.941406 C 25.476562 24.007812 25.519531 23.828125 25.355469 23.6875 C 23.433594 22.011719 21.546875 21.085938 18.941406 20.53125 C 18.203125 20.375 17.273438 20.242188 17.175781 20.28125 M 19.253906 25.84375 C 21.296875 25.976562 23.066406 26.351562 24.914062 27.046875 C 27.238281 27.917969 28.933594 29.003906 29.746094 30.136719 L 29.796875 30.203125 L 29.722656 30.144531 C 28.449219 29.105469 26.511719 28.324219 24.019531 27.847656 C 21.582031 27.378906 17.882812 27.210938 15.296875 27.445312 C 12.398438 27.714844 8.714844 28.800781 6.757812 29.972656 C 6.679688 30.019531 6.671875 30.027344 7.0625 29.546875 C 7.699219 28.757812 8.199219 28.167969 8.792969 27.507812 C 8.976562 27.308594 8.933594 27.332031 9.480469 27.148438 C 10.792969 26.707031 12.355469 26.382812 14.609375 26.078125 C 16.320312 25.851562 18.019531 25.761719 19.253906 25.84375 M 19.5625 27.613281 C 23.449219 27.789062 26.539062 28.472656 28.4375 29.578125 C 28.820312 29.800781 28.910156 29.859375 28.777344 29.800781 C 28.566406 29.710938 27.773438 29.453125 27.40625 29.359375 C 26.890625 29.222656 26.613281 29.167969 26.152344 29.101562 C 26.011719 29.082031 25.753906 29.035156 25.574219 28.996094 C 23.9375 28.65625 22.46875 28.519531 20.652344 28.539062 C 20.210938 28.542969 19.683594 28.558594 19.480469 28.570312 C 19.273438 28.582031 18.90625 28.601562 18.664062 28.609375 C 17.242188 28.664062 16.625 28.722656 14.253906 29.035156 C 13.417969 29.144531 11.335938 29.464844 10.460938 29.625 C 9.738281 29.753906 8.976562 29.921875 8.222656 30.113281 C 8.082031 30.152344 7.964844 30.175781 7.960938 30.175781 C 7.949219 30.160156 8.128906 29.8125 8.246094 29.632812 L 8.371094 29.4375 L 8.609375 29.339844 C 10.941406 28.386719 13.824219 27.742188 16.328125 27.613281 C 16.5 27.605469 16.6875 27.59375 16.738281 27.589844 C 16.949219 27.582031 19.230469 27.597656 19.5625 27.613281 M 43.617188 28.71875 C 43.6875 28.839844 43.84375 29.152344 43.835938 29.160156 C 43.792969 29.203125 43.589844 29.207031 40.605469 29.203125 C 38.9375 29.199219 37.550781 29.195312 37.523438 29.1875 C 37.421875 29.164062 40.117188 28.890625 41.464844 28.785156 C 42.152344 28.730469 43.25 28.664062 43.488281 28.65625 L 43.578125 28.65625 L 43.617188 28.71875 M 21.015625 29.320312 C 23.074219 29.402344 24.878906 29.6875 26.765625 30.230469 L 27.046875 30.3125 L 26.5625 30.472656 C 25.644531 30.777344 24.84375 31.019531 23.996094 31.25 C 23.917969 31.269531 23.808594 31.300781 23.757812 31.316406 C 22.84375 31.574219 21.164062 31.949219 20.386719 32.066406 C 19.675781 32.171875 19.289062 32.054688 16.886719 31.019531 C 16.664062 30.925781 16.09375 30.683594 15.625 30.488281 C 14.582031 30.050781 14.132812 29.859375 14.148438 29.855469 C 14.1875 29.84375 14.929688 29.710938 15.140625 29.675781 C 16.222656 29.507812 17.519531 29.386719 18.753906 29.335938 C 19.472656 29.304688 20.480469 29.300781 21.015625 29.320312 M 41.628906 29.957031 C 41.894531 29.964844 42.59375 29.992188 43.183594 30.015625 C 43.769531 30.039062 44.304688 30.0625 44.371094 30.0625 C 44.441406 30.0625 44.496094 30.066406 44.496094 30.070312 C 44.496094 30.074219 44.484375 30.101562 44.46875 30.132812 C 43.734375 31.589844 43.65625 33.277344 44.28125 34.242188 C 44.3125 34.285156 44.351562 34.277344 43.808594 34.359375 C 43.558594 34.398438 42.496094 34.566406 41.449219 34.730469 C 40.402344 34.898438 38.984375 35.121094 38.300781 35.230469 C 37.613281 35.339844 35.917969 35.605469 34.527344 35.828125 C 31.660156 36.28125 29.558594 36.613281 28.167969 36.832031 C 27.644531 36.917969 26.71875 37.0625 26.117188 37.15625 C 24.71875 37.378906 21.667969 37.859375 20.859375 37.988281 C 20.519531 38.042969 20.230469 38.089844 20.214844 38.089844 C 20.164062 38.105469 19.90625 37.125 19.785156 36.457031 C 19.539062 35.085938 19.554688 33.992188 19.835938 33.175781 C 19.925781 32.921875 19.90625 32.9375 20.078125 32.929688 C 20.292969 32.914062 20.648438 32.835938 21.5625 32.609375 C 21.8125 32.542969 22.410156 32.398438 22.890625 32.28125 C 24.035156 32.003906 24.746094 31.824219 25.917969 31.511719 C 26.449219 31.367188 27.210938 31.171875 27.609375 31.070312 L 28.335938 30.886719 L 28.550781 31.007812 C 28.667969 31.074219 28.851562 31.179688 28.960938 31.242188 C 29.59375 31.601562 30.171875 31.804688 30.96875 31.953125 C 32.070312 32.15625 33.085938 31.65625 33.597656 30.65625 C 33.640625 30.574219 33.699219 30.464844 33.734375 30.414062 L 33.792969 30.320312 L 33.890625 30.304688 C 34.71875 30.167969 36.851562 30.011719 38.597656 29.957031 C 39.15625 29.9375 41.082031 29.9375 41.628906 29.957031 M 12.695312 30.226562 C 12.773438 30.265625 12.871094 30.3125 12.917969 30.324219 C 12.964844 30.339844 13.140625 30.417969 13.308594 30.5 C 13.746094 30.722656 14.082031 30.878906 14.648438 31.136719 C 16.65625 32.046875 17.34375 32.324219 18.246094 32.582031 C 18.746094 32.726562 19.5 32.902344 19.613281 32.902344 C 19.671875 32.902344 19.667969 32.921875 19.605469 33.109375 C 19.332031 33.929688 19.304688 35.039062 19.53125 36.394531 C 19.617188 36.890625 19.761719 37.515625 19.890625 37.917969 C 19.917969 37.996094 19.933594 38.0625 19.929688 38.0625 C 19.925781 38.066406 19.808594 38.023438 19.671875 37.964844 C 19.53125 37.90625 19.367188 37.832031 19.300781 37.804688 C 19.234375 37.777344 18.980469 37.671875 18.730469 37.566406 C 18.484375 37.464844 18.101562 37.304688 17.882812 37.210938 C 17.660156 37.117188 17.378906 36.996094 17.253906 36.945312 C 17.128906 36.890625 16.285156 36.535156 15.371094 36.152344 C 14.460938 35.769531 13.65625 35.429688 13.582031 35.394531 C 13.445312 35.339844 12.890625 35.101562 12.738281 35.039062 C 12.691406 35.023438 12.453125 34.921875 12.207031 34.816406 C 11.960938 34.714844 11.539062 34.535156 11.273438 34.421875 C 11.007812 34.3125 10.605469 34.140625 10.378906 34.046875 L 9.96875 33.875 L 9.871094 33.679688 C 9.339844 32.617188 9.570312 31.601562 10.578125 30.566406 L 10.699219 30.441406 L 11.085938 30.378906 C 11.644531 30.289062 12.5 30.15625 12.53125 30.152344 C 12.546875 30.152344 12.621094 30.183594 12.695312 30.226562 M 39.464844 30.34375 C 37.109375 30.394531 35.613281 30.492188 34.671875 30.644531 C 34.347656 30.695312 34.332031 30.703125 34.320312 30.769531 C 34.292969 30.921875 34.347656 30.941406 34.671875 30.886719 C 36.695312 30.554688 41.964844 30.460938 43.007812 30.742188 C 43.195312 30.792969 43.257812 30.761719 43.234375 30.628906 C 43.214844 30.519531 42.65625 30.421875 41.742188 30.363281 C 41.5 30.347656 39.886719 30.332031 39.464844 30.34375 M 11.960938 30.933594 C 11.925781 30.945312 11.917969 30.96875 11.917969 31.03125 C 11.917969 31.125 11.878906 31.101562 12.8125 31.550781 C 13.289062 31.777344 13.375 31.816406 13.640625 31.941406 C 14.074219 32.144531 14.226562 32.214844 14.695312 32.425781 C 17.359375 33.640625 17.367188 33.644531 17.40625 33.5 C 17.425781 33.410156 17.402344 33.386719 17.179688 33.285156 C 16.785156 33.113281 14.332031 31.996094 14 31.839844 C 13.710938 31.707031 12.921875 31.332031 12.542969 31.148438 C 12.0625 30.917969 12.03125 30.90625 11.960938 30.933594 M 40.808594 31.371094 C 39.421875 31.421875 38.804688 31.476562 37.261719 31.699219 C 36.359375 31.832031 36.320312 31.839844 36.308594 31.90625 C 36.273438 32.089844 36.261719 32.089844 37.367188 31.929688 C 38.761719 31.726562 39.382812 31.667969 40.515625 31.617188 C 41.09375 31.59375 42.371094 31.582031 42.589844 31.601562 C 42.808594 31.617188 42.847656 31.609375 42.859375 31.542969 C 42.875 31.472656 42.855469 31.425781 42.804688 31.40625 C 42.695312 31.371094 41.429688 31.347656 40.808594 31.371094 M 27.96875 31.808594 C 27.945312 31.8125 27.78125 31.835938 27.601562 31.859375 C 26.496094 32.011719 24.980469 32.324219 23.820312 32.640625 C 22.890625 32.890625 21.273438 33.414062 21.027344 33.542969 C 20.949219 33.582031 20.945312 33.707031 21.019531 33.734375 C 21.089844 33.761719 21.144531 33.746094 21.542969 33.605469 C 22.855469 33.140625 24.09375 32.789062 25.34375 32.515625 C 25.976562 32.378906 27.285156 32.136719 27.808594 32.054688 C 28.128906 32.007812 28.160156 31.992188 28.140625 31.878906 C 28.125 31.808594 28.082031 31.789062 27.96875 31.808594 M 35.25 31.941406 C 35.230469 31.964844 34.898438 32.011719 31.542969 32.492188 C 27.835938 33.023438 25.5 33.484375 22.578125 34.25 C 21.800781 34.453125 21.746094 34.476562 21.777344 34.601562 C 21.800781 34.695312 21.882812 34.691406 22.277344 34.582031 C 25.035156 33.808594 28.035156 33.226562 32.4375 32.605469 C 34.46875 32.320312 35.316406 32.183594 35.398438 32.125 C 35.425781 32.101562 35.4375 31.980469 35.414062 31.957031 C 35.398438 31.941406 35.261719 31.929688 35.25 31.941406 M 41.941406 32.359375 C 41.125 32.398438 39.011719 32.578125 37.738281 32.722656 C 35.917969 32.925781 33.226562 33.351562 30.910156 33.804688 C 30.714844 33.839844 30.472656 33.886719 30.371094 33.90625 C 30.269531 33.925781 30.0625 33.96875 29.914062 33.996094 C 29.589844 34.0625 28.902344 34.191406 28.011719 34.351562 C 27.132812 34.511719 27.15625 34.503906 27.183594 34.648438 C 27.199219 34.738281 27.246094 34.738281 27.773438 34.640625 C 28 34.597656 28.375 34.53125 28.609375 34.488281 C 29.070312 34.40625 29.332031 34.359375 29.847656 34.253906 C 30.285156 34.167969 30.824219 34.0625 31.132812 34.003906 C 31.269531 33.980469 31.445312 33.945312 31.527344 33.929688 C 33.300781 33.585938 35.957031 33.171875 37.546875 32.984375 C 39.222656 32.792969 41.800781 32.578125 42.675781 32.5625 C 42.851562 32.558594 43.007812 32.554688 43.019531 32.554688 C 43.082031 32.554688 43.070312 32.390625 43.007812 32.359375 C 42.964844 32.339844 42.367188 32.339844 41.941406 32.359375 M 11.175781 32.488281 C 11.148438 32.5 11.136719 32.585938 11.152344 32.636719 C 11.203125 32.769531 14.195312 34.082031 15.398438 34.496094 C 15.71875 34.609375 15.773438 34.613281 15.800781 34.539062 C 15.839844 34.429688 15.824219 34.410156 15.539062 34.308594 C 14.585938 33.957031 12.613281 33.113281 11.582031 32.609375 C 11.324219 32.480469 11.246094 32.460938 11.175781 32.488281 M 43.195312 33.203125 C 42.570312 33.324219 40.179688 33.699219 39.210938 33.832031 C 38.246094 33.960938 37.84375 34 37.238281 34.015625 C 36.765625 34.027344 36.734375 34.035156 36.769531 34.1875 C 36.800781 34.335938 38.027344 34.25 39.964844 33.964844 C 41.488281 33.742188 42.769531 33.527344 43.445312 33.386719 C 43.527344 33.367188 43.539062 33.351562 43.539062 33.273438 C 43.539062 33.171875 43.457031 33.15625 43.195312 33.203125 M 10.972656 33.335938 C 10.914062 33.351562 10.925781 33.507812 10.988281 33.535156 C 11.179688 33.625 12.417969 34.15625 12.960938 34.382812 C 14.582031 35.058594 15.417969 35.433594 16.976562 36.183594 C 18.882812 37.09375 19.1875 37.203125 19.1875 36.984375 C 19.1875 36.910156 19.179688 36.902344 19.0625 36.863281 C 18.820312 36.78125 18.292969 36.542969 17.121094 35.976562 C 16.710938 35.78125 16.359375 35.613281 16.34375 35.609375 C 16.328125 35.601562 16.171875 35.53125 16 35.449219 C 15.15625 35.054688 14.230469 34.648438 13.179688 34.210938 C 12.824219 34.0625 12.21875 33.804688 11.835938 33.636719 C 11.148438 33.339844 11.054688 33.308594 10.972656 33.335938 M 15.921875 33.503906 C 15.867188 33.53125 15.859375 33.644531 15.90625 33.6875 C 15.953125 33.722656 17.574219 34.363281 18.121094 34.558594 C 18.902344 34.835938 18.980469 34.851562 19 34.738281 C 19.015625 34.648438 19 34.617188 18.921875 34.59375 C 18.714844 34.535156 17.851562 34.207031 16.34375 33.609375 C 16.074219 33.503906 15.984375 33.480469 15.921875 33.503906 M 34.464844 34.136719 C 34.332031 34.191406 33.292969 34.40625 30.304688 34.988281 C 26.339844 35.761719 24.546875 36.238281 22.554688 37.042969 C 22.117188 37.21875 21.945312 37.28125 21.726562 37.339844 C 21.496094 37.398438 21.488281 37.402344 21.480469 37.453125 C 21.425781 37.699219 21.675781 37.660156 22.703125 37.246094 C 24.75 36.425781 26.414062 35.992188 30.714844 35.15625 C 30.972656 35.105469 31.214844 35.054688 31.25 35.046875 C 31.289062 35.039062 31.496094 35 31.714844 34.957031 C 31.933594 34.914062 32.140625 34.875 32.175781 34.867188 C 32.214844 34.859375 32.507812 34.800781 32.828125 34.738281 C 34.164062 34.472656 34.628906 34.351562 34.648438 34.265625 C 34.675781 34.132812 34.597656 34.074219 34.464844 34.136719 M 16.140625 34.664062 C 16.070312 34.6875 16.089844 34.835938 16.167969 34.875 C 16.328125 34.953125 17.648438 35.542969 17.949219 35.671875 C 18.140625 35.753906 18.394531 35.863281 18.507812 35.910156 C 18.621094 35.960938 18.726562 36 18.746094 36 C 18.839844 36 18.871094 35.957031 18.851562 35.859375 C 18.84375 35.808594 18.835938 35.804688 18.457031 35.636719 C 18.246094 35.542969 17.675781 35.285156 17.1875 35.066406 C 16.308594 34.671875 16.226562 34.640625 16.140625 34.664062 M 25.054688 35.050781 C 24.640625 35.074219 23.996094 35.207031 23.335938 35.402344 C 22.429688 35.667969 20.953125 36.285156 20.925781 36.40625 C 20.914062 36.476562 20.929688 36.539062 20.96875 36.550781 C 21.042969 36.570312 21.089844 36.554688 21.34375 36.429688 C 21.699219 36.257812 22.308594 36.007812 22.816406 35.824219 C 23.519531 35.570312 24.609375 35.308594 25.148438 35.261719 C 25.351562 35.242188 25.363281 35.238281 25.375 35.1875 C 25.398438 35.097656 25.355469 35.03125 25.277344 35.035156 C 25.257812 35.035156 25.15625 35.042969 25.054688 35.050781 M 45.277344 35.183594 C 45.734375 35.421875 45.800781 35.453125 46.964844 35.898438 C 47.605469 36.140625 47.925781 36.355469 48.0625 36.636719 C 48.089844 36.683594 48.355469 37.421875 48.390625 37.542969 C 48.527344 37.992188 48.640625 39.566406 48.550781 39.816406 C 48.480469 40.027344 48.214844 40.199219 47.550781 40.464844 C 46.144531 41.023438 44.703125 41.378906 42.070312 41.820312 C 39.21875 42.292969 38.953125 42.339844 37.925781 42.546875 C 36.617188 42.808594 35.292969 43.121094 33.492188 43.59375 C 33.347656 43.632812 33.117188 43.691406 32.976562 43.730469 C 32.835938 43.765625 32.496094 43.855469 32.222656 43.925781 C 30.992188 44.25 29.222656 44.691406 29.152344 44.691406 C 29.148438 44.691406 29.164062 44.664062 29.1875 44.632812 C 29.714844 43.957031 30.019531 42.550781 29.832031 41.640625 C 29.539062 40.207031 28.015625 39.34375 24.59375 38.664062 C 24.425781 38.628906 24.257812 38.59375 24.21875 38.585938 C 24.128906 38.570312 24.007812 38.589844 25.882812 38.273438 C 27.523438 37.996094 29.371094 37.683594 32.035156 37.230469 C 32.792969 37.105469 34.09375 36.882812 34.933594 36.742188 C 35.769531 36.597656 37.011719 36.386719 37.695312 36.273438 C 38.375 36.15625 39.882812 35.902344 41.039062 35.707031 C 42.195312 35.507812 43.554688 35.277344 44.054688 35.191406 C 44.554688 35.105469 44.972656 35.035156 44.976562 35.035156 C 44.984375 35.035156 45.117188 35.101562 45.277344 35.183594 M 46.285156 36.441406 C 46.007812 36.464844 44.421875 36.742188 43.113281 36.992188 C 42.875 37.039062 42.589844 37.09375 42.480469 37.113281 C 40.234375 37.542969 36.46875 38.378906 33.492188 39.109375 C 31.371094 39.628906 29.421875 40.125 29.257812 40.1875 C 29.21875 40.203125 29.199219 40.269531 29.21875 40.328125 C 29.253906 40.417969 29.152344 40.4375 31.304688 39.898438 C 31.894531 39.75 32.480469 39.605469 32.601562 39.574219 C 32.726562 39.542969 32.964844 39.484375 33.132812 39.445312 C 33.558594 39.339844 34.140625 39.199219 34.4375 39.128906 C 34.574219 39.09375 34.800781 39.039062 34.945312 39.007812 C 38.398438 38.1875 41.628906 37.5 44.316406 37.015625 C 46.03125 36.703125 46.277344 36.664062 46.574219 36.664062 C 46.78125 36.664062 46.847656 36.644531 46.863281 36.574219 C 46.894531 36.429688 46.753906 36.398438 46.285156 36.441406 M 14.1875 36.96875 C 14.402344 36.976562 14.6875 36.988281 14.816406 37 L 15.050781 37.011719 L 16.953125 37.78125 C 17.996094 38.207031 19.175781 38.683594 19.566406 38.84375 C 19.960938 39 20.296875 39.136719 20.316406 39.140625 C 20.332031 39.144531 20.347656 39.15625 20.355469 39.164062 C 20.378906 39.203125 20.519531 39.183594 21.378906 39.039062 L 22.277344 38.886719 L 22.601562 38.964844 C 23.578125 39.195312 23.988281 39.316406 25.4375 39.796875 C 27.148438 40.363281 27.621094 40.5625 28.109375 40.921875 C 29.007812 41.578125 29.300781 42.835938 28.746094 43.667969 C 27.945312 44.867188 27.308594 45.027344 25.070312 44.589844 C 23.402344 44.265625 22.238281 43.925781 19.113281 42.851562 C 16.496094 41.953125 13.511719 41.15625 11.496094 40.820312 C 11.359375 40.796875 11.363281 40.808594 11.429688 40.632812 C 11.839844 39.578125 11.988281 38.179688 11.796875 37.175781 C 11.78125 37.089844 11.769531 37.019531 11.769531 37.019531 C 11.816406 36.972656 13.40625 36.9375 14.1875 36.96875 M 13.691406 37.851562 C 13.652344 37.863281 13.625 37.945312 13.640625 37.992188 C 13.667969 38.0625 13.675781 38.066406 14.359375 38.160156 C 15.558594 38.332031 16.679688 38.597656 17.914062 39.007812 C 18.417969 39.175781 18.460938 39.183594 18.476562 39.097656 C 18.5 38.996094 18.484375 38.972656 18.316406 38.910156 C 17.050781 38.433594 15.824219 38.128906 14.304688 37.910156 C 13.933594 37.859375 13.734375 37.839844 13.691406 37.851562 M 12.75 39.046875 C 12.695312 39.066406 12.675781 39.167969 12.722656 39.222656 C 12.75 39.257812 12.753906 39.257812 13.261719 39.273438 C 15.042969 39.335938 16.359375 39.585938 17.914062 40.160156 C 18.25 40.28125 18.296875 40.285156 18.3125 40.195312 C 18.335938 40.074219 18.304688 40.054688 17.855469 39.890625 C 16.578125 39.421875 15.511719 39.191406 14.058594 39.074219 C 13.773438 39.050781 12.800781 39.03125 12.75 39.046875 M 22.351562 39.941406 C 22.320312 39.949219 22.304688 40.007812 22.316406 40.074219 C 22.328125 40.132812 22.347656 40.140625 22.71875 40.226562 C 23.128906 40.320312 24.144531 40.585938 24.5625 40.707031 C 25.210938 40.898438 26.15625 41.238281 26.648438 41.457031 C 26.855469 41.550781 26.917969 41.550781 26.941406 41.460938 C 26.972656 41.351562 26.894531 41.300781 26.398438 41.097656 C 25.546875 40.746094 24.84375 40.519531 23.675781 40.21875 C 23.476562 40.164062 23.253906 40.105469 23.175781 40.085938 C 22.714844 39.964844 22.4375 39.917969 22.351562 39.941406 M 15.730469 40.332031 C 15.703125 40.351562 15.691406 40.410156 15.703125 40.460938 C 15.714844 40.527344 15.625 40.496094 16.925781 40.875 C 18.121094 41.222656 18.296875 41.273438 18.6875 41.382812 C 22.46875 42.429688 25.1875 43.292969 26.75 43.941406 C 26.980469 44.039062 27.027344 44.050781 27.097656 44.03125 C 27.132812 44.019531 27.152344 43.960938 27.136719 43.898438 C 27.125 43.847656 27.101562 43.835938 26.554688 43.609375 C 25.183594 43.039062 22.417969 42.164062 19.046875 41.230469 C 18.402344 41.054688 18.164062 40.984375 17.992188 40.933594 C 17.898438 40.90625 17.667969 40.839844 17.476562 40.785156 C 17.289062 40.726562 16.867188 40.605469 16.539062 40.507812 C 15.964844 40.34375 15.773438 40.300781 15.730469 40.332031 M 20.707031 40.777344 C 20.648438 40.8125 20.65625 40.941406 20.722656 40.972656 C 20.746094 40.980469 20.960938 41.042969 21.207031 41.101562 C 22.742188 41.488281 23.960938 41.890625 24.949219 42.332031 C 25.097656 42.398438 25.109375 42.402344 25.164062 42.375 C 25.265625 42.332031 25.230469 42.210938 25.101562 42.148438 C 24.519531 41.878906 23.570312 41.515625 23.015625 41.351562 C 22.074219 41.074219 22.058594 41.070312 21.375 40.898438 C 20.878906 40.773438 20.75 40.75 20.707031 40.777344 " fill-opacity="1" fill-rule="evenodd"/></g><g fill="#000000" fill-opacity="1"><g transform="translate(10.006428, 13.238911)"><g><path d="M 0.09375 -0.515625 C 0.1875 -0.523438 0.238281 -0.535156 0.25 -0.546875 C 0.257812 -0.554688 0.28125 -0.566406 0.3125 -0.578125 L 0.453125 -0.59375 L 0.609375 -0.671875 C 0.609375 -0.710938 0.597656 -0.734375 0.578125 -0.734375 C 0.609375 -0.785156 0.625 -0.875 0.625 -1 L 0.59375 -1.234375 L 0.5625 -1.140625 L 0.546875 -1.234375 C 0.597656 -1.328125 0.625 -1.425781 0.625 -1.53125 C 0.625 -1.601562 0.613281 -1.675781 0.59375 -1.75 L 0.609375 -1.828125 L 0.578125 -1.8125 L 0.625 -1.96875 C 0.582031 -1.894531 0.550781 -1.851562 0.53125 -1.84375 C 0.582031 -1.9375 0.609375 -2.03125 0.609375 -2.125 L 0.578125 -2.3125 L 0.609375 -2.28125 L 0.625 -2.59375 C 0.59375 -2.632812 0.570312 -2.691406 0.5625 -2.765625 L 0.609375 -2.8125 C 0.585938 -2.863281 0.578125 -2.910156 0.578125 -2.953125 C 0.578125 -2.992188 0.582031 -3.035156 0.59375 -3.078125 C 0.613281 -3.160156 0.628906 -3.21875 0.640625 -3.25 C 0.617188 -3.257812 0.601562 -3.269531 0.59375 -3.28125 L 0.609375 -3.328125 L 0.578125 -3.390625 L 0.625 -3.421875 C 0.625 -3.503906 0.59375 -3.585938 0.53125 -3.671875 L 0.5625 -3.78125 L 0.59375 -3.734375 C 0.625 -3.785156 0.640625 -3.84375 0.640625 -3.90625 C 0.640625 -3.96875 0.609375 -4.007812 0.546875 -4.03125 L 0.578125 -4.09375 C 0.566406 -4.164062 0.546875 -4.21875 0.515625 -4.25 C 0.472656 -4.238281 0.445312 -4.210938 0.4375 -4.171875 L 0.40625 -4.1875 L 0.359375 -4.328125 L 0.28125 -4.28125 L 0.109375 -4.40625 L 0.09375 -4.53125 L 0.015625 -4.53125 L 0.046875 -4.59375 L 0.046875 -4.6875 C 0.0664062 -4.707031 0.0859375 -4.734375 0.109375 -4.765625 L 0.109375 -4.703125 L 0.140625 -4.734375 C 0.203125 -4.734375 0.265625 -4.75 0.328125 -4.78125 L 0.390625 -4.765625 L 0.421875 -4.828125 L 0.4375 -4.796875 L 0.453125 -4.828125 C 0.472656 -4.773438 0.492188 -4.742188 0.515625 -4.734375 C 0.535156 -4.722656 0.566406 -4.71875 0.609375 -4.71875 C 0.648438 -4.71875 0.679688 -4.707031 0.703125 -4.6875 L 0.734375 -4.640625 L 0.765625 -4.75 L 0.796875 -4.765625 C 0.859375 -4.765625 0.929688 -4.769531 1.015625 -4.78125 L 1.03125 -4.796875 L 1.0625 -4.75 L 1.078125 -4.78125 L 1.109375 -4.75 C 1.191406 -4.738281 1.238281 -4.726562 1.25 -4.71875 L 1.28125 -4.734375 L 1.359375 -4.71875 L 1.375 -4.671875 L 1.390625 -4.734375 L 1.546875 -4.75 C 1.617188 -4.75 1.664062 -4.726562 1.6875 -4.6875 L 1.71875 -4.71875 L 1.796875 -4.671875 L 1.953125 -4.765625 L 2.046875 -4.78125 C 2.054688 -4.75 2.101562 -4.734375 2.1875 -4.734375 L 2.21875 -4.671875 L 2.28125 -4.6875 L 2.359375 -4.59375 L 2.671875 -4.453125 C 2.671875 -4.410156 2.675781 -4.378906 2.6875 -4.359375 C 2.695312 -4.347656 2.707031 -4.335938 2.71875 -4.328125 C 2.738281 -4.316406 2.753906 -4.304688 2.765625 -4.296875 C 2.785156 -4.296875 2.796875 -4.289062 2.796875 -4.28125 C 2.816406 -4.257812 2.832031 -4.242188 2.84375 -4.234375 L 2.90625 -4.234375 L 2.890625 -4.171875 L 2.96875 -4.140625 L 2.9375 -4.125 C 3.007812 -4.039062 3.046875 -3.894531 3.046875 -3.6875 L 3.046875 -3.609375 L 3.09375 -3.59375 L 3.078125 -3.5 L 3.03125 -3.46875 L 3.0625 -3.46875 C 3.0625 -3.414062 3.082031 -3.382812 3.125 -3.375 L 3.09375 -3.328125 L 3.109375 -3.25 C 3.109375 -3.226562 3.097656 -3.191406 3.078125 -3.140625 C 3.054688 -3.085938 3.019531 -3.050781 2.96875 -3.03125 L 2.9375 -2.921875 L 2.921875 -3.015625 C 2.921875 -2.960938 2.898438 -2.929688 2.859375 -2.921875 C 2.890625 -2.890625 2.90625 -2.847656 2.90625 -2.796875 C 2.875 -2.835938 2.851562 -2.859375 2.84375 -2.859375 C 2.84375 -2.847656 2.84375 -2.835938 2.84375 -2.828125 L 2.8125 -2.765625 L 2.796875 -2.78125 L 2.828125 -2.65625 L 2.75 -2.703125 C 2.726562 -2.671875 2.71875 -2.609375 2.71875 -2.515625 C 2.71875 -2.492188 2.71875 -2.46875 2.71875 -2.4375 C 2.757812 -2.4375 2.78125 -2.445312 2.78125 -2.46875 C 2.78125 -2.476562 2.769531 -2.492188 2.75 -2.515625 L 2.9375 -2.5 L 2.96875 -2.453125 L 3 -2.484375 L 3.03125 -2.46875 C 3.039062 -2.363281 3.0625 -2.289062 3.09375 -2.25 C 3.125 -2.21875 3.15625 -2.203125 3.1875 -2.203125 L 3.140625 -2.140625 L 3.1875 -2.140625 L 3.25 -1.953125 L 3.265625 -1.953125 C 3.304688 -1.828125 3.359375 -1.765625 3.421875 -1.765625 C 3.398438 -1.734375 3.390625 -1.675781 3.390625 -1.59375 C 3.390625 -1.539062 3.394531 -1.488281 3.40625 -1.4375 C 3.414062 -1.507812 3.425781 -1.546875 3.4375 -1.546875 C 3.457031 -1.546875 3.46875 -1.523438 3.46875 -1.484375 C 3.46875 -1.441406 3.476562 -1.410156 3.5 -1.390625 L 3.421875 -1.390625 L 3.46875 -1.359375 C 3.40625 -1.328125 3.375 -1.28125 3.375 -1.21875 C 3.375 -1.207031 3.375 -1.191406 3.375 -1.171875 L 3.40625 -1.21875 L 3.421875 -1.15625 C 3.367188 -1.132812 3.34375 -1.125 3.34375 -1.125 C 3.34375 -1.113281 3.351562 -1.109375 3.375 -1.109375 L 3.390625 -1.109375 L 3.421875 -1 L 3.375 -0.984375 L 3.328125 -1 C 3.328125 -0.9375 3.300781 -0.878906 3.25 -0.828125 L 3.25 -0.640625 C 3.144531 -0.597656 3.078125 -0.519531 3.046875 -0.40625 C 3.035156 -0.40625 3.015625 -0.394531 2.984375 -0.375 C 2.960938 -0.351562 2.898438 -0.28125 2.796875 -0.15625 C 2.628906 -0.144531 2.539062 -0.125 2.53125 -0.09375 C 2.476562 -0.113281 2.445312 -0.125 2.4375 -0.125 C 2.425781 -0.125 2.421875 -0.125 2.421875 -0.125 C 2.421875 -0.113281 2.429688 -0.09375 2.453125 -0.0625 L 2.1875 -0.0625 L 2.09375 -0.125 C 2.039062 -0.0703125 1.972656 -0.046875 1.890625 -0.046875 C 1.816406 -0.046875 1.773438 -0.0234375 1.765625 0.015625 C 1.660156 0.00390625 1.585938 -0.0234375 1.546875 -0.078125 L 1.40625 0 L 1.5 -0.125 C 1.382812 -0.0703125 1.316406 -0.03125 1.296875 0 L 1.171875 -0.015625 L 1.015625 -0.03125 L 0.890625 -0.0625 L 0.9375 -0.015625 L 0.828125 -0.03125 L 0.828125 0.015625 L 0.765625 -0.015625 L 0.71875 0.015625 L 0.703125 -0.0625 L 0.640625 -0.015625 L 0.4375 -0.03125 L 0.21875 -0.0625 C 0.207031 -0.09375 0.191406 -0.113281 0.171875 -0.125 C 0.148438 -0.132812 0.140625 -0.15625 0.140625 -0.1875 C 0.128906 -0.21875 0.0976562 -0.238281 0.046875 -0.25 Z M 1.265625 -2.8125 L 1.296875 -2.890625 L 1.296875 -2.8125 L 1.328125 -2.84375 C 1.390625 -2.8125 1.453125 -2.796875 1.515625 -2.796875 L 1.65625 -2.8125 L 1.671875 -2.734375 L 1.703125 -2.796875 L 1.734375 -2.75 C 1.753906 -2.75 1.765625 -2.753906 1.765625 -2.765625 C 1.773438 -2.773438 1.78125 -2.785156 1.78125 -2.796875 L 1.796875 -2.75 L 1.84375 -2.765625 C 1.851562 -2.734375 1.878906 -2.71875 1.921875 -2.71875 L 1.953125 -2.8125 L 2 -2.796875 L 2.046875 -2.828125 C 2.085938 -2.796875 2.128906 -2.78125 2.171875 -2.78125 C 2.203125 -2.78125 2.238281 -2.785156 2.28125 -2.796875 L 2.28125 -2.75 L 2.3125 -2.8125 C 2.351562 -2.832031 2.382812 -2.851562 2.40625 -2.875 C 2.4375 -2.894531 2.457031 -2.910156 2.46875 -2.921875 C 2.476562 -2.941406 2.488281 -2.957031 2.5 -2.96875 C 2.519531 -2.988281 2.539062 -3 2.5625 -3 C 2.601562 -3 2.628906 -3.035156 2.640625 -3.109375 L 2.640625 -3.015625 C 2.671875 -3.109375 2.710938 -3.15625 2.765625 -3.15625 C 2.785156 -3.15625 2.804688 -3.148438 2.828125 -3.140625 L 2.78125 -3.1875 C 2.8125 -3.1875 2.832031 -3.203125 2.84375 -3.234375 C 2.851562 -3.265625 2.878906 -3.296875 2.921875 -3.328125 L 2.875 -3.390625 L 2.921875 -3.40625 L 2.890625 -3.671875 C 2.910156 -3.648438 2.925781 -3.640625 2.9375 -3.640625 C 2.945312 -3.640625 2.953125 -3.660156 2.953125 -3.703125 L 2.90625 -3.6875 C 2.851562 -3.695312 2.828125 -3.71875 2.828125 -3.75 C 2.828125 -3.78125 2.8125 -3.828125 2.78125 -3.890625 L 2.828125 -3.9375 L 2.828125 -4 L 2.6875 -3.921875 L 2.78125 -4.046875 L 2.734375 -4.015625 L 2.640625 -4.0625 L 2.65625 -4.109375 L 2.578125 -4.140625 L 2.59375 -4.15625 L 2.578125 -4.203125 L 2.5625 -4.203125 C 2.539062 -4.234375 2.457031 -4.269531 2.3125 -4.3125 L 2.328125 -4.328125 L 2.171875 -4.25 L 2.125 -4.171875 C 2.125 -4.222656 2.09375 -4.25 2.03125 -4.25 L 2.03125 -4.3125 L 1.859375 -4.296875 L 1.8125 -4.375 C 1.71875 -4.375 1.609375 -4.351562 1.484375 -4.3125 C 1.359375 -4.269531 1.296875 -4.226562 1.296875 -4.1875 L 1.234375 -4.3125 C 1.179688 -4.207031 1.15625 -4.125 1.15625 -4.0625 C 1.15625 -4 1.179688 -3.960938 1.234375 -3.953125 L 1.171875 -3.859375 L 1.109375 -3.796875 L 1.1875 -3.75 L 1.234375 -3.640625 C 1.171875 -3.609375 1.140625 -3.5625 1.140625 -3.5 C 1.140625 -3.46875 1.144531 -3.4375 1.15625 -3.40625 L 1.125 -3.390625 C 1.125 -3.316406 1.125 -3.253906 1.125 -3.203125 C 1.125 -3.117188 1.128906 -3.078125 1.140625 -3.078125 C 1.140625 -3.078125 1.144531 -3.085938 1.15625 -3.109375 C 1.175781 -3.078125 1.210938 -3.054688 1.265625 -3.046875 Z M 1.296875 -0.609375 L 1.40625 -0.609375 L 1.453125 -0.578125 L 1.46875 -0.625 C 1.488281 -0.613281 1.507812 -0.609375 1.53125 -0.609375 C 1.550781 -0.609375 1.5625 -0.625 1.5625 -0.65625 C 1.59375 -0.601562 1.625 -0.578125 1.65625 -0.578125 C 1.675781 -0.578125 1.695312 -0.585938 1.71875 -0.609375 L 1.734375 -0.5625 L 1.796875 -0.640625 L 1.828125 -0.609375 L 2.046875 -0.625 L 2.0625 -0.5625 L 2.09375 -0.65625 L 2.140625 -0.53125 L 2.125 -0.625 L 2.203125 -0.59375 L 2.21875 -0.53125 L 2.28125 -0.640625 C 2.289062 -0.640625 2.304688 -0.640625 2.328125 -0.640625 C 2.410156 -0.640625 2.492188 -0.660156 2.578125 -0.703125 L 2.71875 -0.671875 L 2.71875 -0.78125 L 2.75 -0.734375 L 2.75 -0.78125 C 2.84375 -0.78125 2.914062 -0.832031 2.96875 -0.9375 L 3.109375 -1 L 3 -1 C 3.039062 -1.007812 3.0625 -1.046875 3.0625 -1.109375 L 3.109375 -1.375 C 3.160156 -1.394531 3.191406 -1.410156 3.203125 -1.421875 C 3.210938 -1.441406 3.21875 -1.460938 3.21875 -1.484375 C 3.21875 -1.503906 3.21875 -1.523438 3.21875 -1.546875 C 3.226562 -1.578125 3.242188 -1.613281 3.265625 -1.65625 L 3.234375 -1.703125 L 3.203125 -1.578125 C 3.179688 -1.628906 3.171875 -1.65625 3.171875 -1.65625 C 3.171875 -1.65625 3.171875 -1.648438 3.171875 -1.640625 C 3.171875 -1.609375 3.175781 -1.539062 3.1875 -1.4375 C 3.125 -1.65625 3.035156 -1.832031 2.921875 -1.96875 L 2.953125 -2 L 2.890625 -2.078125 L 2.84375 -2.109375 L 2.875 -2.234375 L 2.84375 -2.28125 L 2.8125 -2.15625 L 2.734375 -2.15625 C 2.710938 -2.1875 2.644531 -2.203125 2.53125 -2.203125 L 2.53125 -2.265625 L 2.484375 -2.21875 C 2.472656 -2.269531 2.453125 -2.296875 2.421875 -2.296875 C 2.390625 -2.273438 2.363281 -2.265625 2.34375 -2.265625 C 2.3125 -2.273438 2.285156 -2.285156 2.265625 -2.296875 C 2.253906 -2.316406 2.242188 -2.328125 2.234375 -2.328125 C 2.222656 -2.328125 2.210938 -2.3125 2.203125 -2.28125 L 2.109375 -2.296875 L 2.109375 -2.390625 L 2.0625 -2.296875 L 1.875 -2.3125 C 1.863281 -2.34375 1.847656 -2.359375 1.828125 -2.359375 C 1.804688 -2.359375 1.789062 -2.351562 1.78125 -2.34375 L 1.734375 -2.375 L 1.734375 -2.328125 L 1.5625 -2.28125 L 1.515625 -2.296875 C 1.472656 -2.285156 1.453125 -2.265625 1.453125 -2.234375 L 1.359375 -2.28125 C 1.347656 -2.28125 1.335938 -2.28125 1.328125 -2.28125 C 1.316406 -2.28125 1.3125 -2.273438 1.3125 -2.265625 C 1.3125 -2.265625 1.316406 -2.253906 1.328125 -2.234375 L 1.265625 -2.171875 C 1.222656 -2.171875 1.191406 -2.140625 1.171875 -2.078125 L 1.15625 -2.1875 C 1.132812 -2.132812 1.125 -2.09375 1.125 -2.0625 C 1.125 -2.03125 1.132812 -2.015625 1.15625 -2.015625 C 1.164062 -2.015625 1.179688 -2.019531 1.203125 -2.03125 L 1.234375 -1.890625 C 1.203125 -1.835938 1.1875 -1.785156 1.1875 -1.734375 C 1.1875 -1.660156 1.222656 -1.597656 1.296875 -1.546875 L 1.28125 -1.453125 L 1.1875 -1.40625 C 1.226562 -1.34375 1.25 -1.289062 1.25 -1.25 C 1.25 -1.21875 1.234375 -1.179688 1.203125 -1.140625 L 1.265625 -1.15625 L 1.25 -1.03125 C 1.25 -0.988281 1.25 -0.945312 1.25 -0.90625 C 1.257812 -0.875 1.269531 -0.835938 1.28125 -0.796875 L 1.234375 -0.765625 L 1.28125 -0.734375 L 1.234375 -0.6875 L 1.28125 -0.671875 Z M 3.046875 -1.734375 L 3.15625 -1.4375 C 3.132812 -1.425781 3.117188 -1.421875 3.109375 -1.421875 C 3.054688 -1.421875 3.03125 -1.460938 3.03125 -1.546875 C 3.03125 -1.597656 3.035156 -1.660156 3.046875 -1.734375 Z M 3.046875 -1.734375 "/></g></g></g><g fill="#000000" fill-opacity="1"><g transform="translate(13.528043, 13.238911)"><g><path d="M 1.640625 -4.75 C 1.691406 -4.75 1.722656 -4.769531 1.734375 -4.8125 L 2 -4.8125 C 2.019531 -4.769531 2.078125 -4.75 2.171875 -4.75 L 2.359375 -4.765625 C 2.421875 -4.648438 2.519531 -4.566406 2.65625 -4.515625 L 2.609375 -4.4375 L 2.734375 -4.4375 C 2.734375 -4.382812 2.769531 -4.34375 2.84375 -4.3125 L 2.875 -4.3125 C 2.875 -4.175781 2.910156 -4.09375 2.984375 -4.0625 L 2.984375 -4.046875 C 2.984375 -3.984375 3.03125 -3.941406 3.125 -3.921875 L 3.125 -3.828125 C 3.101562 -3.804688 3.09375 -3.773438 3.09375 -3.734375 C 3.09375 -3.671875 3.125 -3.585938 3.1875 -3.484375 L 3.1875 -3.421875 C 3.1875 -3.328125 3.222656 -3.242188 3.296875 -3.171875 L 3.296875 -2.84375 C 3.347656 -2.832031 3.375 -2.816406 3.375 -2.796875 C 3.375 -2.765625 3.359375 -2.734375 3.328125 -2.703125 L 3.390625 -2.640625 L 3.3125 -2.59375 L 3.328125 -2.4375 L 3.40625 -2.375 L 3.421875 -2.234375 C 3.359375 -2.109375 3.328125 -1.984375 3.328125 -1.859375 L 3.328125 -1.734375 C 3.242188 -1.609375 3.203125 -1.453125 3.203125 -1.265625 L 3.203125 -1.203125 L 3.1875 -1.203125 C 3.113281 -1.203125 3.078125 -1.125 3.078125 -0.96875 L 3.078125 -0.890625 L 3.21875 -0.890625 L 3 -0.75 L 2.96875 -0.546875 L 2.8125 -0.4375 C 2.632812 -0.125 2.359375 0.03125 1.984375 0.03125 L 1.703125 0.046875 C 1.554688 0.046875 1.441406 0.0234375 1.359375 -0.015625 L 1.28125 -0.015625 C 1.195312 -0.015625 1.15625 -0.0703125 1.15625 -0.1875 L 1.03125 -0.1875 C 0.957031 -0.1875 0.921875 -0.21875 0.921875 -0.28125 L 0.921875 -0.3125 C 0.617188 -0.5 0.453125 -0.78125 0.421875 -1.15625 C 0.335938 -1.21875 0.296875 -1.300781 0.296875 -1.40625 C 0.296875 -1.5 0.304688 -1.5625 0.328125 -1.59375 L 0.234375 -1.609375 L 0.234375 -1.96875 L 0.15625 -2.015625 C 0.175781 -2.078125 0.1875 -2.175781 0.1875 -2.3125 L 0.171875 -2.609375 L 0.234375 -2.640625 L 0.21875 -2.9375 C 0.28125 -2.945312 0.3125 -2.972656 0.3125 -3.015625 C 0.3125 -3.054688 0.300781 -3.085938 0.28125 -3.109375 L 0.359375 -3.359375 L 0.421875 -3.34375 C 0.441406 -3.34375 0.453125 -3.351562 0.453125 -3.375 C 0.453125 -3.394531 0.429688 -3.4375 0.390625 -3.5 C 0.460938 -3.53125 0.5 -3.660156 0.5 -3.890625 L 0.5 -3.921875 C 0.570312 -3.929688 0.609375 -3.960938 0.609375 -4.015625 L 0.59375 -4.078125 C 0.664062 -4.078125 0.703125 -4.101562 0.703125 -4.15625 L 0.703125 -4.1875 C 0.703125 -4.25 0.765625 -4.300781 0.890625 -4.34375 L 0.84375 -4.390625 C 0.894531 -4.503906 0.976562 -4.582031 1.09375 -4.625 L 1.0625 -4.703125 L 1.140625 -4.6875 C 1.242188 -4.6875 1.328125 -4.726562 1.390625 -4.8125 C 1.460938 -4.769531 1.546875 -4.75 1.640625 -4.75 Z M 1.875 -4.296875 C 1.820312 -4.234375 1.769531 -4.203125 1.71875 -4.203125 C 1.664062 -4.203125 1.609375 -4.226562 1.546875 -4.28125 C 1.453125 -4.238281 1.40625 -4.195312 1.40625 -4.15625 C 1.40625 -4.132812 1.421875 -4.113281 1.453125 -4.09375 C 1.234375 -4.0625 1.101562 -3.9375 1.0625 -3.71875 C 0.988281 -3.632812 0.953125 -3.515625 0.953125 -3.359375 L 0.953125 -3.21875 L 0.859375 -3.140625 L 0.9375 -3.09375 C 0.90625 -3.03125 0.890625 -2.957031 0.890625 -2.875 L 0.890625 -2.8125 C 0.890625 -2.71875 0.847656 -2.664062 0.765625 -2.65625 L 0.84375 -2.421875 L 0.8125 -2.28125 L 0.84375 -2.125 C 0.832031 -2.101562 0.828125 -2.050781 0.828125 -1.96875 C 0.828125 -1.800781 0.878906 -1.632812 0.984375 -1.46875 C 0.992188 -1.238281 1.066406 -1.035156 1.203125 -0.859375 C 1.203125 -0.796875 1.21875 -0.765625 1.25 -0.765625 C 1.28125 -0.765625 1.316406 -0.785156 1.359375 -0.828125 L 1.328125 -0.734375 C 1.328125 -0.710938 1.335938 -0.703125 1.359375 -0.703125 L 1.453125 -0.734375 L 1.453125 -0.71875 C 1.453125 -0.601562 1.507812 -0.546875 1.625 -0.546875 C 1.65625 -0.484375 1.703125 -0.453125 1.765625 -0.453125 C 1.828125 -0.453125 1.914062 -0.484375 2.03125 -0.546875 L 2.046875 -0.546875 C 2.140625 -0.546875 2.203125 -0.625 2.234375 -0.78125 L 2.28125 -0.78125 C 2.320312 -0.78125 2.351562 -0.796875 2.375 -0.828125 C 2.394531 -0.859375 2.414062 -0.894531 2.4375 -0.9375 C 2.457031 -0.976562 2.484375 -1.019531 2.515625 -1.0625 C 2.546875 -1.113281 2.585938 -1.160156 2.640625 -1.203125 L 2.625 -1.265625 C 2.625 -1.328125 2.648438 -1.378906 2.703125 -1.421875 L 2.75 -1.359375 L 2.78125 -1.515625 C 2.78125 -1.597656 2.75 -1.644531 2.6875 -1.65625 C 2.726562 -1.789062 2.757812 -1.925781 2.78125 -2.0625 L 2.859375 -2.125 L 2.875 -2.25 C 2.875 -2.300781 2.847656 -2.328125 2.796875 -2.328125 L 2.765625 -2.328125 L 2.765625 -2.421875 C 2.828125 -2.441406 2.859375 -2.476562 2.859375 -2.53125 C 2.859375 -2.5625 2.84375 -2.601562 2.8125 -2.65625 C 2.789062 -2.707031 2.78125 -2.753906 2.78125 -2.796875 C 2.78125 -2.828125 2.789062 -2.851562 2.8125 -2.875 C 2.726562 -2.9375 2.6875 -3.015625 2.6875 -3.109375 L 2.71875 -3.234375 C 2.65625 -3.304688 2.625 -3.390625 2.625 -3.484375 C 2.625 -3.554688 2.628906 -3.601562 2.640625 -3.625 C 2.578125 -3.675781 2.546875 -3.75 2.546875 -3.84375 L 2.546875 -3.890625 L 2.390625 -3.96875 C 2.421875 -3.988281 2.4375 -4.019531 2.4375 -4.0625 C 2.4375 -4.101562 2.421875 -4.144531 2.390625 -4.1875 L 2.34375 -4.03125 C 2.3125 -4.101562 2.273438 -4.140625 2.234375 -4.140625 L 2.1875 -4.125 L 2.171875 -4.203125 L 2.125 -4.1875 C 2.0625 -4.1875 2.019531 -4.222656 2 -4.296875 Z M 1.875 -4.296875 "/></g></g></g><g fill="#000000" fill-opacity="1"><g transform="translate(17.049658, 13.238911)"><g><path d="M 1.640625 -4.75 C 1.691406 -4.75 1.722656 -4.769531 1.734375 -4.8125 L 2 -4.8125 C 2.019531 -4.769531 2.078125 -4.75 2.171875 -4.75 L 2.359375 -4.765625 C 2.421875 -4.648438 2.519531 -4.566406 2.65625 -4.515625 L 2.609375 -4.4375 L 2.734375 -4.4375 C 2.734375 -4.382812 2.769531 -4.34375 2.84375 -4.3125 L 2.875 -4.3125 C 2.875 -4.175781 2.910156 -4.09375 2.984375 -4.0625 L 2.984375 -4.046875 C 2.984375 -3.984375 3.03125 -3.941406 3.125 -3.921875 L 3.125 -3.828125 C 3.101562 -3.804688 3.09375 -3.773438 3.09375 -3.734375 C 3.09375 -3.671875 3.125 -3.585938 3.1875 -3.484375 L 3.1875 -3.421875 C 3.1875 -3.328125 3.222656 -3.242188 3.296875 -3.171875 L 3.296875 -2.84375 C 3.347656 -2.832031 3.375 -2.816406 3.375 -2.796875 C 3.375 -2.765625 3.359375 -2.734375 3.328125 -2.703125 L 3.390625 -2.640625 L 3.3125 -2.59375 L 3.328125 -2.4375 L 3.40625 -2.375 L 3.421875 -2.234375 C 3.359375 -2.109375 3.328125 -1.984375 3.328125 -1.859375 L 3.328125 -1.734375 C 3.242188 -1.609375 3.203125 -1.453125 3.203125 -1.265625 L 3.203125 -1.203125 L 3.1875 -1.203125 C 3.113281 -1.203125 3.078125 -1.125 3.078125 -0.96875 L 3.078125 -0.890625 L 3.21875 -0.890625 L 3 -0.75 L 2.96875 -0.546875 L 2.8125 -0.4375 C 2.632812 -0.125 2.359375 0.03125 1.984375 0.03125 L 1.703125 0.046875 C 1.554688 0.046875 1.441406 0.0234375 1.359375 -0.015625 L 1.28125 -0.015625 C 1.195312 -0.015625 1.15625 -0.0703125 1.15625 -0.1875 L 1.03125 -0.1875 C 0.957031 -0.1875 0.921875 -0.21875 0.921875 -0.28125 L 0.921875 -0.3125 C 0.617188 -0.5 0.453125 -0.78125 0.421875 -1.15625 C 0.335938 -1.21875 0.296875 -1.300781 0.296875 -1.40625 C 0.296875 -1.5 0.304688 -1.5625 0.328125 -1.59375 L 0.234375 -1.609375 L 0.234375 -1.96875 L 0.15625 -2.015625 C 0.175781 -2.078125 0.1875 -2.175781 0.1875 -2.3125 L 0.171875 -2.609375 L 0.234375 -2.640625 L 0.21875 -2.9375 C 0.28125 -2.945312 0.3125 -2.972656 0.3125 -3.015625 C 0.3125 -3.054688 0.300781 -3.085938 0.28125 -3.109375 L 0.359375 -3.359375 L 0.421875 -3.34375 C 0.441406 -3.34375 0.453125 -3.351562 0.453125 -3.375 C 0.453125 -3.394531 0.429688 -3.4375 0.390625 -3.5 C 0.460938 -3.53125 0.5 -3.660156 0.5 -3.890625 L 0.5 -3.921875 C 0.570312 -3.929688 0.609375 -3.960938 0.609375 -4.015625 L 0.59375 -4.078125 C 0.664062 -4.078125 0.703125 -4.101562 0.703125 -4.15625 L 0.703125 -4.1875 C 0.703125 -4.25 0.765625 -4.300781 0.890625 -4.34375 L 0.84375 -4.390625 C 0.894531 -4.503906 0.976562 -4.582031 1.09375 -4.625 L 1.0625 -4.703125 L 1.140625 -4.6875 C 1.242188 -4.6875 1.328125 -4.726562 1.390625 -4.8125 C 1.460938 -4.769531 1.546875 -4.75 1.640625 -4.75 Z M 1.875 -4.296875 C 1.820312 -4.234375 1.769531 -4.203125 1.71875 -4.203125 C 1.664062 -4.203125 1.609375 -4.226562 1.546875 -4.28125 C 1.453125 -4.238281 1.40625 -4.195312 1.40625 -4.15625 C 1.40625 -4.132812 1.421875 -4.113281 1.453125 -4.09375 C 1.234375 -4.0625 1.101562 -3.9375 1.0625 -3.71875 C 0.988281 -3.632812 0.953125 -3.515625 0.953125 -3.359375 L 0.953125 -3.21875 L 0.859375 -3.140625 L 0.9375 -3.09375 C 0.90625 -3.03125 0.890625 -2.957031 0.890625 -2.875 L 0.890625 -2.8125 C 0.890625 -2.71875 0.847656 -2.664062 0.765625 -2.65625 L 0.84375 -2.421875 L 0.8125 -2.28125 L 0.84375 -2.125 C 0.832031 -2.101562 0.828125 -2.050781 0.828125 -1.96875 C 0.828125 -1.800781 0.878906 -1.632812 0.984375 -1.46875 C 0.992188 -1.238281 1.066406 -1.035156 1.203125 -0.859375 C 1.203125 -0.796875 1.21875 -0.765625 1.25 -0.765625 C 1.28125 -0.765625 1.316406 -0.785156 1.359375 -0.828125 L 1.328125 -0.734375 C 1.328125 -0.710938 1.335938 -0.703125 1.359375 -0.703125 L 1.453125 -0.734375 L 1.453125 -0.71875 C 1.453125 -0.601562 1.507812 -0.546875 1.625 -0.546875 C 1.65625 -0.484375 1.703125 -0.453125 1.765625 -0.453125 C 1.828125 -0.453125 1.914062 -0.484375 2.03125 -0.546875 L 2.046875 -0.546875 C 2.140625 -0.546875 2.203125 -0.625 2.234375 -0.78125 L 2.28125 -0.78125 C 2.320312 -0.78125 2.351562 -0.796875 2.375 -0.828125 C 2.394531 -0.859375 2.414062 -0.894531 2.4375 -0.9375 C 2.457031 -0.976562 2.484375 -1.019531 2.515625 -1.0625 C 2.546875 -1.113281 2.585938 -1.160156 2.640625 -1.203125 L 2.625 -1.265625 C 2.625 -1.328125 2.648438 -1.378906 2.703125 -1.421875 L 2.75 -1.359375 L 2.78125 -1.515625 C 2.78125 -1.597656 2.75 -1.644531 2.6875 -1.65625 C 2.726562 -1.789062 2.757812 -1.925781 2.78125 -2.0625 L 2.859375 -2.125 L 2.875 -2.25 C 2.875 -2.300781 2.847656 -2.328125 2.796875 -2.328125 L 2.765625 -2.328125 L 2.765625 -2.421875 C 2.828125 -2.441406 2.859375 -2.476562 2.859375 -2.53125 C 2.859375 -2.5625 2.84375 -2.601562 2.8125 -2.65625 C 2.789062 -2.707031 2.78125 -2.753906 2.78125 -2.796875 C 2.78125 -2.828125 2.789062 -2.851562 2.8125 -2.875 C 2.726562 -2.9375 2.6875 -3.015625 2.6875 -3.109375 L 2.71875 -3.234375 C 2.65625 -3.304688 2.625 -3.390625 2.625 -3.484375 C 2.625 -3.554688 2.628906 -3.601562 2.640625 -3.625 C 2.578125 -3.675781 2.546875 -3.75 2.546875 -3.84375 L 2.546875 -3.890625 L 2.390625 -3.96875 C 2.421875 -3.988281 2.4375 -4.019531 2.4375 -4.0625 C 2.4375 -4.101562 2.421875 -4.144531 2.390625 -4.1875 L 2.34375 -4.03125 C 2.3125 -4.101562 2.273438 -4.140625 2.234375 -4.140625 L 2.1875 -4.125 L 2.171875 -4.203125 L 2.125 -4.1875 C 2.0625 -4.1875 2.019531 -4.222656 2 -4.296875 Z M 1.875 -4.296875 "/></g></g></g><g fill="#000000" fill-opacity="1"><g transform="translate(20.571274, 13.238911)"><g><path d="M 0.5625 -1.21875 L 0.59375 -1.078125 L 0.5625 -1.09375 Z M 0.234375 -0.5 L 0.28125 -0.484375 L 0.28125 -0.546875 L 0.4375 -0.640625 L 0.4375 -0.546875 L 0.484375 -0.5625 L 0.453125 -0.578125 L 0.53125 -0.671875 L 0.484375 -0.65625 L 0.5 -0.703125 C 0.332031 -0.628906 0.242188 -0.5625 0.234375 -0.5 Z M 1.234375 -2.25 L 1.25 -2.15625 L 1.28125 -2.296875 L 1.296875 -1.921875 L 1.25 -2.0625 L 1.265625 -1.859375 L 1.328125 -1.9375 L 1.296875 -1.953125 L 1.453125 -2.078125 C 1.453125 -2.210938 1.441406 -2.289062 1.421875 -2.3125 L 1.265625 -2.328125 Z M 1.296875 -3.203125 L 1.3125 -3.234375 C 1.375 -3.210938 1.40625 -3.175781 1.40625 -3.125 C 1.40625 -3.101562 1.425781 -3.09375 1.46875 -3.09375 C 1.644531 -3.207031 1.765625 -3.347656 1.828125 -3.515625 C 1.847656 -3.679688 1.914062 -3.765625 2.03125 -3.765625 C 2.144531 -3.804688 2.234375 -3.929688 2.296875 -4.140625 C 2.296875 -4.148438 2.300781 -4.203125 2.3125 -4.296875 L 2.28125 -4.390625 L 2.3125 -4.453125 L 2.3125 -4.546875 L 2.234375 -4.453125 L 2.28125 -4.5625 L 2.28125 -4.625 C 2.28125 -4.632812 2.289062 -4.644531 2.3125 -4.65625 L 2.390625 -4.65625 C 2.460938 -4.6875 2.53125 -4.707031 2.59375 -4.71875 L 2.53125 -4.75 L 2.6875 -4.734375 C 2.726562 -4.742188 2.757812 -4.769531 2.78125 -4.8125 L 2.828125 -4.734375 L 2.859375 -4.8125 C 2.953125 -4.800781 3.007812 -4.769531 3.03125 -4.71875 C 3.125 -4.71875 3.171875 -4.710938 3.171875 -4.703125 L 3.21875 -4.71875 L 3.21875 -4.8125 L 3.234375 -4.71875 C 3.347656 -4.71875 3.40625 -4.6875 3.40625 -4.625 C 3.425781 -4.625 3.4375 -4.601562 3.4375 -4.5625 L 3.40625 -4.484375 L 3.4375 -4.484375 C 3.4375 -4.421875 3.363281 -4.390625 3.21875 -4.390625 C 3.21875 -4.367188 3.179688 -4.34375 3.109375 -4.3125 L 3.015625 -4.21875 L 3.03125 -4.3125 L 2.984375 -4.203125 L 2.875 -4.21875 L 2.9375 -4.1875 L 2.859375 -4.125 L 2.859375 -4.15625 L 2.75 -4.078125 L 2.734375 -4.125 C 2.679688 -4.125 2.613281 -4.019531 2.53125 -3.8125 C 2.53125 -3.757812 2.523438 -3.710938 2.515625 -3.671875 C 2.523438 -3.648438 2.53125 -3.632812 2.53125 -3.625 L 2.453125 -3.515625 L 2.546875 -3.546875 C 2.535156 -3.472656 2.503906 -3.4375 2.453125 -3.4375 L 2.34375 -3.4375 C 2.28125 -3.425781 2.25 -3.394531 2.25 -3.34375 C 2.25 -3.269531 2.253906 -3.226562 2.265625 -3.21875 C 2.265625 -3.15625 2.226562 -3.078125 2.15625 -2.984375 C 2.132812 -2.953125 2.125 -2.910156 2.125 -2.859375 L 2.234375 -2.84375 L 2.125 -2.84375 C 2.125 -2.757812 2.15625 -2.664062 2.21875 -2.5625 L 2.140625 -2.546875 L 2.21875 -2.515625 C 2.21875 -2.503906 2.203125 -2.460938 2.171875 -2.390625 C 2.253906 -2.210938 2.3125 -2.125 2.34375 -2.125 C 2.46875 -2.070312 2.53125 -1.953125 2.53125 -1.765625 C 2.53125 -1.648438 2.566406 -1.570312 2.640625 -1.53125 C 2.660156 -1.375 2.691406 -1.296875 2.734375 -1.296875 C 2.773438 -1.179688 2.863281 -1.0625 3 -0.9375 C 3.050781 -0.882812 3.078125 -0.796875 3.078125 -0.671875 C 3.078125 -0.609375 3.1875 -0.578125 3.40625 -0.578125 C 3.519531 -0.492188 3.578125 -0.390625 3.578125 -0.265625 L 3.578125 -0.15625 C 3.578125 -0.113281 3.53125 -0.09375 3.4375 -0.09375 L 3.3125 -0.140625 L 3.34375 -0.09375 C 3.15625 -0.113281 3.054688 -0.125 3.046875 -0.125 L 3.0625 -0.1875 L 3.015625 -0.125 C 2.878906 -0.125 2.773438 -0.0859375 2.703125 -0.015625 C 2.640625 0.015625 2.597656 0.03125 2.578125 0.03125 C 2.316406 0.03125 2.1875 0 2.1875 -0.0625 L 2.265625 -0.109375 L 2.1875 -0.125 C 2.207031 -0.269531 2.222656 -0.410156 2.234375 -0.546875 C 2.253906 -0.578125 2.3125 -0.59375 2.40625 -0.59375 L 2.609375 -0.421875 L 2.5 -0.578125 C 2.5625 -0.585938 2.59375 -0.613281 2.59375 -0.65625 C 2.59375 -0.707031 2.519531 -0.789062 2.375 -0.90625 C 2.351562 -0.9375 2.335938 -1.050781 2.328125 -1.25 C 2.234375 -1.414062 2.171875 -1.5 2.140625 -1.5 C 2.023438 -1.5 1.96875 -1.519531 1.96875 -1.5625 C 1.945312 -1.6875 1.890625 -1.859375 1.796875 -2.078125 C 1.671875 -2.234375 1.585938 -2.3125 1.546875 -2.3125 C 1.515625 -2.3125 1.492188 -2.234375 1.484375 -2.078125 L 1.265625 -1.8125 C 1.265625 -1.789062 1.265625 -1.773438 1.265625 -1.765625 C 1.273438 -1.691406 1.28125 -1.632812 1.28125 -1.59375 L 1.28125 -1.5625 C 1.269531 -1.476562 1.265625 -1.429688 1.265625 -1.421875 L 1.265625 -1.390625 C 1.265625 -1.296875 1.265625 -1.175781 1.265625 -1.03125 C 1.203125 -0.914062 1.171875 -0.847656 1.171875 -0.828125 C 1.171875 -0.773438 1.265625 -0.695312 1.453125 -0.59375 C 1.597656 -0.59375 1.671875 -0.539062 1.671875 -0.4375 C 1.671875 -0.40625 1.703125 -0.351562 1.765625 -0.28125 L 1.765625 -0.1875 C 1.765625 -0.09375 1.695312 -0.046875 1.5625 -0.046875 C 1.445312 0.046875 1.363281 0.09375 1.3125 0.09375 L 1.28125 0.09375 L 1.09375 0.03125 L 1.078125 0.03125 C 0.785156 0.03125 0.582031 0.03125 0.46875 0.03125 C 0.195312 0.03125 0.0625 0 0.0625 -0.0625 C 0.0625 -0.101562 0.0507812 -0.125 0.03125 -0.125 C 0.03125 -0.300781 0.0859375 -0.425781 0.203125 -0.5 C 0.210938 -0.5625 0.265625 -0.613281 0.359375 -0.65625 C 0.460938 -0.707031 0.523438 -0.75 0.546875 -0.78125 C 0.554688 -0.8125 0.5625 -0.863281 0.5625 -0.9375 L 0.546875 -1.078125 L 0.609375 -1.0625 L 0.5625 -1.203125 L 0.5625 -1.296875 C 0.5625 -1.367188 0.59375 -1.441406 0.65625 -1.515625 C 0.664062 -1.566406 0.671875 -1.625 0.671875 -1.6875 L 0.65625 -1.6875 L 0.640625 -1.96875 L 0.671875 -1.96875 L 0.671875 -2.09375 L 0.6875 -2.078125 L 0.703125 -2.171875 L 0.671875 -2.15625 L 0.671875 -2.234375 L 0.703125 -2.375 L 0.640625 -2.46875 L 0.703125 -2.453125 L 0.71875 -2.53125 L 0.65625 -2.5 L 0.671875 -2.765625 L 0.671875 -2.890625 L 0.609375 -3.125 L 0.671875 -3.015625 C 0.671875 -3.171875 0.703125 -3.28125 0.765625 -3.34375 C 0.703125 -3.4375 0.671875 -3.535156 0.671875 -3.640625 L 0.671875 -3.75 L 0.640625 -3.828125 L 0.671875 -3.8125 L 0.671875 -3.859375 L 0.765625 -3.953125 L 0.671875 -3.984375 L 0.671875 -4.09375 C 0.671875 -4.207031 0.59375 -4.265625 0.4375 -4.265625 C 0.34375 -4.265625 0.296875 -4.3125 0.296875 -4.40625 L 0.4375 -4.421875 L 0.296875 -4.453125 C 0.296875 -4.503906 0.328125 -4.570312 0.390625 -4.65625 C 0.410156 -4.789062 0.457031 -4.859375 0.53125 -4.859375 L 0.5625 -4.859375 C 0.582031 -4.859375 0.644531 -4.828125 0.75 -4.765625 C 0.894531 -4.765625 0.972656 -4.757812 0.984375 -4.75 C 1.078125 -4.8125 1.128906 -4.84375 1.140625 -4.84375 C 1.179688 -4.851562 1.222656 -4.859375 1.265625 -4.859375 L 1.265625 -4.78125 L 1.28125 -4.859375 C 1.3125 -4.859375 1.363281 -4.8125 1.4375 -4.71875 C 1.488281 -4.71875 1.535156 -4.695312 1.578125 -4.65625 L 1.578125 -4.5625 C 1.523438 -4.5 1.484375 -4.425781 1.453125 -4.34375 C 1.410156 -4.28125 1.359375 -4.25 1.296875 -4.25 L 1.203125 -4.265625 C 1.140625 -4.242188 1.109375 -4.210938 1.109375 -4.171875 C 1.109375 -4.054688 1.117188 -3.9375 1.140625 -3.8125 L 1.140625 -3.765625 L 1.265625 -3.578125 L 1.125 -3.703125 L 1.109375 -3.59375 L 1.15625 -3.640625 C 1.15625 -3.554688 1.144531 -3.460938 1.125 -3.359375 L 1.109375 -3.375 L 1.125 -3.28125 L 1.109375 -3.203125 C 1.109375 -3.160156 1.132812 -3.125 1.1875 -3.09375 C 1.21875 -3.1875 1.25 -3.234375 1.28125 -3.234375 L 1.28125 -3.203125 C 1.269531 -3.203125 1.257812 -3.195312 1.25 -3.1875 C 1.238281 -3.15625 1.234375 -3.128906 1.234375 -3.109375 C 1.234375 -3.054688 1.222656 -2.976562 1.203125 -2.875 L 1.265625 -3.078125 C 1.273438 -3.078125 1.285156 -3.078125 1.296875 -3.078125 C 1.316406 -3.078125 1.332031 -3.078125 1.34375 -3.078125 C 1.351562 -3.078125 1.359375 -3.097656 1.359375 -3.140625 C 1.359375 -3.160156 1.351562 -3.175781 1.34375 -3.1875 C 1.332031 -3.195312 1.316406 -3.203125 1.296875 -3.203125 Z M 2.3125 -3.40625 L 2.390625 -3.421875 L 2.34375 -3.3125 C 2.320312 -3.28125 2.300781 -3.242188 2.28125 -3.203125 C 2.269531 -3.242188 2.265625 -3.28125 2.265625 -3.3125 C 2.265625 -3.363281 2.28125 -3.394531 2.3125 -3.40625 Z M 1.1875 -4.90625 L 0.984375 -4.765625 L 0.765625 -4.796875 L 0.65625 -4.84375 L 1 -4.828125 Z M 1.1875 -4.90625 "/></g></g></g><g fill="#000000" fill-opacity="1"><g transform="translate(24.092889, 13.238911)"><g><path d="M 0.28125 0.015625 C 0.269531 -0.0859375 0.234375 -0.171875 0.171875 -0.234375 C 0.191406 -0.316406 0.203125 -0.398438 0.203125 -0.484375 C 0.203125 -0.523438 0.203125 -0.5625 0.203125 -0.59375 C 0.203125 -0.632812 0.195312 -0.679688 0.1875 -0.734375 C 0.21875 -0.765625 0.234375 -0.796875 0.234375 -0.828125 C 0.234375 -0.867188 0.222656 -0.898438 0.203125 -0.921875 C 0.234375 -0.929688 0.25 -0.96875 0.25 -1.03125 L 0.25 -1.109375 L 0.15625 -1.0625 C 0.195312 -1.132812 0.21875 -1.210938 0.21875 -1.296875 L 0.171875 -1.515625 L 0.25 -1.546875 C 0.300781 -1.546875 0.34375 -1.523438 0.375 -1.484375 C 0.40625 -1.523438 0.441406 -1.546875 0.484375 -1.546875 C 0.503906 -1.546875 0.519531 -1.535156 0.53125 -1.515625 C 0.539062 -1.503906 0.550781 -1.488281 0.5625 -1.46875 C 0.582031 -1.457031 0.597656 -1.441406 0.609375 -1.421875 C 0.628906 -1.410156 0.660156 -1.40625 0.703125 -1.40625 C 0.734375 -1.175781 0.875 -1.007812 1.125 -0.90625 C 1.1875 -0.78125 1.257812 -0.71875 1.34375 -0.71875 C 1.351562 -0.71875 1.363281 -0.71875 1.375 -0.71875 L 1.390625 -0.6875 C 1.421875 -0.6875 1.453125 -0.675781 1.484375 -0.65625 C 1.515625 -0.644531 1.539062 -0.628906 1.5625 -0.609375 C 1.59375 -0.585938 1.625 -0.566406 1.65625 -0.546875 C 1.6875 -0.535156 1.722656 -0.53125 1.765625 -0.53125 C 1.835938 -0.53125 1.925781 -0.546875 2.03125 -0.578125 C 2.070312 -0.546875 2.101562 -0.53125 2.125 -0.53125 C 2.144531 -0.53125 2.15625 -0.550781 2.15625 -0.59375 L 2.140625 -0.671875 L 2.1875 -0.671875 C 2.46875 -0.671875 2.691406 -0.84375 2.859375 -1.1875 C 2.828125 -1.21875 2.8125 -1.253906 2.8125 -1.296875 C 2.8125 -1.347656 2.835938 -1.40625 2.890625 -1.46875 L 2.78125 -1.546875 C 2.8125 -1.585938 2.828125 -1.625 2.828125 -1.65625 C 2.828125 -1.738281 2.753906 -1.800781 2.609375 -1.84375 L 2.609375 -1.96875 C 2.585938 -1.96875 2.566406 -1.96875 2.546875 -1.96875 C 2.484375 -1.96875 2.425781 -1.984375 2.375 -2.015625 L 2.28125 -2.078125 L 2.203125 -2.03125 L 2.1875 -2.046875 C 2.1875 -2.085938 2.148438 -2.109375 2.078125 -2.109375 L 2.0625 -2.109375 L 2.0625 -2.09375 C 2.0625 -2.070312 2.050781 -2.0625 2.03125 -2.0625 C 2.007812 -2.0625 1.96875 -2.082031 1.90625 -2.125 L 1.859375 -2.109375 L 1.796875 -2.21875 L 1.5 -2.265625 L 1.5625 -2.171875 L 1.359375 -2.25 L 1.296875 -2.203125 L 1.265625 -2.296875 C 1.234375 -2.304688 1.21875 -2.316406 1.21875 -2.328125 L 1.21875 -2.34375 L 1.0625 -2.34375 C 0.976562 -2.507812 0.835938 -2.609375 0.640625 -2.640625 L 0.625 -2.78125 L 0.5625 -2.703125 L 0.53125 -2.859375 L 0.4375 -2.8125 L 0.453125 -2.96875 L 0.390625 -2.90625 L 0.390625 -2.953125 C 0.390625 -3.003906 0.359375 -3.035156 0.296875 -3.046875 C 0.316406 -3.066406 0.328125 -3.082031 0.328125 -3.09375 C 0.328125 -3.113281 0.3125 -3.140625 0.28125 -3.171875 L 0.21875 -3.359375 L 0.25 -3.375 C 0.21875 -3.445312 0.203125 -3.53125 0.203125 -3.625 L 0.234375 -3.75 C 0.253906 -3.75 0.265625 -3.757812 0.265625 -3.78125 C 0.265625 -3.800781 0.242188 -3.835938 0.203125 -3.890625 L 0.328125 -3.953125 L 0.3125 -4.03125 C 0.3125 -4.070312 0.328125 -4.117188 0.359375 -4.171875 C 0.484375 -4.210938 0.585938 -4.304688 0.671875 -4.453125 L 0.828125 -4.453125 C 0.847656 -4.535156 0.90625 -4.582031 1 -4.59375 L 0.96875 -4.640625 L 1.046875 -4.703125 L 1.296875 -4.671875 L 1.296875 -4.734375 L 1.5 -4.671875 C 1.53125 -4.679688 1.546875 -4.695312 1.546875 -4.71875 C 1.546875 -4.726562 1.53125 -4.742188 1.5 -4.765625 L 1.609375 -4.765625 C 1.660156 -4.765625 1.710938 -4.78125 1.765625 -4.8125 C 1.816406 -4.707031 1.914062 -4.65625 2.0625 -4.65625 L 2.1875 -4.671875 C 2.195312 -4.617188 2.222656 -4.582031 2.265625 -4.5625 C 2.304688 -4.550781 2.347656 -4.539062 2.390625 -4.53125 C 2.441406 -4.519531 2.492188 -4.503906 2.546875 -4.484375 C 2.597656 -4.460938 2.632812 -4.421875 2.65625 -4.359375 C 2.695312 -4.253906 2.753906 -4.191406 2.828125 -4.171875 C 2.867188 -4.253906 2.890625 -4.363281 2.890625 -4.5 C 2.929688 -4.5 2.953125 -4.507812 2.953125 -4.53125 C 2.953125 -4.550781 2.929688 -4.570312 2.890625 -4.59375 C 2.953125 -4.644531 3.023438 -4.671875 3.109375 -4.671875 L 3.15625 -4.671875 C 3.164062 -4.566406 3.210938 -4.515625 3.296875 -4.515625 L 3.296875 -4.421875 C 3.234375 -4.296875 3.203125 -4.160156 3.203125 -4.015625 C 3.203125 -3.878906 3.226562 -3.742188 3.28125 -3.609375 L 3.28125 -3.5 L 3.140625 -3.265625 L 2.9375 -3.359375 C 2.945312 -3.367188 2.953125 -3.394531 2.953125 -3.4375 C 2.953125 -3.570312 2.898438 -3.675781 2.796875 -3.75 C 2.796875 -3.945312 2.679688 -4.066406 2.453125 -4.109375 C 2.296875 -4.191406 2.117188 -4.234375 1.921875 -4.234375 L 1.734375 -4.21875 C 1.703125 -4.289062 1.648438 -4.328125 1.578125 -4.328125 L 1.5 -4.296875 C 1.582031 -4.296875 1.644531 -4.269531 1.6875 -4.21875 L 1.5 -4.1875 C 1.425781 -4.1875 1.34375 -4.207031 1.25 -4.25 L 1.28125 -4.125 C 1.207031 -4.113281 1.171875 -4.097656 1.171875 -4.078125 L 1.21875 -4.015625 C 1.21875 -4.003906 1.203125 -3.992188 1.171875 -3.984375 C 1.148438 -3.972656 1.125 -3.960938 1.09375 -3.953125 C 1.0625 -3.953125 1.03125 -3.941406 1 -3.921875 C 0.976562 -3.898438 0.96875 -3.875 0.96875 -3.84375 L 0.984375 -3.765625 C 0.867188 -3.691406 0.8125 -3.582031 0.8125 -3.4375 C 0.8125 -3.332031 0.820312 -3.25 0.84375 -3.1875 C 0.96875 -3.144531 1.070312 -3.0625 1.15625 -2.9375 L 1.296875 -2.96875 C 1.359375 -2.96875 1.421875 -2.953125 1.484375 -2.921875 L 1.484375 -2.859375 L 1.34375 -2.859375 C 1.3125 -2.859375 1.296875 -2.851562 1.296875 -2.84375 L 1.375 -2.796875 C 1.476562 -2.828125 1.578125 -2.84375 1.671875 -2.84375 C 1.859375 -2.84375 2.019531 -2.785156 2.15625 -2.671875 L 2.5 -2.671875 L 2.5 -2.609375 L 2.625 -2.625 C 2.769531 -2.625 2.859375 -2.554688 2.890625 -2.421875 L 2.9375 -2.421875 C 2.988281 -2.421875 3.015625 -2.390625 3.015625 -2.328125 L 3.015625 -2.296875 C 3.085938 -2.210938 3.175781 -2.171875 3.28125 -2.171875 C 3.300781 -2.140625 3.3125 -2.101562 3.3125 -2.0625 C 3.300781 -2.019531 3.296875 -1.988281 3.296875 -1.96875 C 3.398438 -1.820312 3.453125 -1.691406 3.453125 -1.578125 C 3.453125 -1.515625 3.429688 -1.453125 3.390625 -1.390625 L 3.40625 -1.140625 L 3.5 -1.140625 C 3.375 -0.953125 3.3125 -0.769531 3.3125 -0.59375 L 3.34375 -0.59375 L 3.3125 -0.53125 L 3.265625 -0.453125 L 3.1875 -0.46875 C 3.144531 -0.46875 3.125 -0.429688 3.125 -0.359375 L 3.125 -0.3125 C 3.0625 -0.3125 3.015625 -0.296875 2.984375 -0.265625 C 2.953125 -0.234375 2.921875 -0.203125 2.890625 -0.171875 C 2.859375 -0.148438 2.820312 -0.125 2.78125 -0.09375 C 2.738281 -0.0703125 2.679688 -0.0625 2.609375 -0.0625 L 2.609375 0.015625 C 2.441406 -0.046875 2.265625 -0.078125 2.078125 -0.078125 C 2.035156 -0.078125 2 -0.0703125 1.96875 -0.0625 C 1.9375 -0.0507812 1.90625 -0.0390625 1.875 -0.03125 C 1.84375 -0.0195312 1.804688 -0.0078125 1.765625 0 C 1.734375 0.0195312 1.695312 0.03125 1.65625 0.03125 C 1.5625 0.03125 1.453125 0.0078125 1.328125 -0.03125 C 1.328125 -0.113281 1.285156 -0.15625 1.203125 -0.15625 L 1.0625 -0.125 C 1.039062 -0.238281 0.953125 -0.316406 0.796875 -0.359375 C 0.753906 -0.148438 0.664062 -0.046875 0.53125 -0.046875 L 0.484375 -0.046875 L 0.46875 0.015625 Z M 1.296875 -4.3125 L 1.34375 -4.28125 C 1.351562 -4.300781 1.378906 -4.328125 1.421875 -4.359375 Z M 1.296875 -4.3125 "/></g></g></g><g fill="#000000" fill-opacity="1"><g transform="translate(19.057238, 51.732733)"><g><path d="M 0.421875 -3.125 L 0.328125 -4.53125 L 0.84375 -4.53125 L 0.75 -3.125 Z M 0.421875 -3.125 "/></g></g></g><g fill="#000000" fill-opacity="1"><g transform="translate(20.143404, 51.732733)"><g><path d="M 0.53125 0 L 0.53125 -4.53125 L 1.296875 -4.53125 L 3.3125 -0.890625 L 3.3125 -4.53125 L 3.875 -4.53125 L 3.875 0 L 3.21875 0 L 1.234375 -3.578125 L 1.09375 -3.578125 L 1.09375 0 Z M 0.53125 0 "/></g></g></g><g fill="#000000" fill-opacity="1"><g transform="translate(24.463624, 51.732733)"><g/></g></g><g fill="#000000" fill-opacity="1"><g transform="translate(25.740028, 51.732733)"><g><path d="M 1.0625 0 L 0.421875 -0.640625 L 0.421875 -3.875 L 1.0625 -4.53125 L 3.109375 -4.53125 L 3.734375 -3.90625 L 3.375 -3.53125 L 2.890625 -4.03125 L 1.3125 -4.03125 L 0.96875 -3.6875 L 0.96875 -0.828125 L 1.3125 -0.5 L 2.9375 -0.5 L 3.4375 -1 L 3.78125 -0.625 L 3.15625 0 Z M 1.0625 0 "/></g></g></g><g fill="#000000" fill-opacity="1"><g transform="translate(29.624543, 51.732733)"><g><path d="M 1.0625 0 L 0.421875 -0.640625 L 0.421875 -3.875 L 1.0625 -4.53125 L 3.203125 -4.53125 L 3.84375 -3.875 L 3.84375 -0.640625 L 3.203125 0 Z M 1.3125 -0.5 L 2.953125 -0.5 L 3.28125 -0.828125 L 3.28125 -3.6875 L 2.953125 -4.03125 L 1.3125 -4.03125 L 0.96875 -3.6875 L 0.96875 -0.828125 Z M 1.3125 -0.5 "/></g></g></g><g fill="#000000" fill-opacity="1"><g transform="translate(33.797482, 51.732733)"><g><path d="M 0.53125 0 L 0.53125 -4.53125 L 1.296875 -4.53125 L 2.71875 -0.90625 L 4.15625 -4.53125 L 4.921875 -4.53125 L 4.921875 0 L 4.359375 0 L 4.359375 -3.671875 L 2.875 0 L 2.5625 0 L 1.09375 -3.671875 L 1.09375 0 Z M 0.53125 0 "/></g></g></g><g fill="#000000" fill-opacity="1"><g transform="translate(39.154809, 51.732733)"><g><path d="M 0.53125 0 L 0.53125 -4.53125 L 1.296875 -4.53125 L 2.71875 -0.90625 L 4.15625 -4.53125 L 4.921875 -4.53125 L 4.921875 0 L 4.359375 0 L 4.359375 -3.671875 L 2.875 0 L 2.5625 0 L 1.09375 -3.671875 L 1.09375 0 Z M 0.53125 0 "/></g></g></g><g fill="#000000" fill-opacity="1"><g transform="translate(44.512137, 51.732733)"><g><path d="M 1.0625 0 L 0.421875 -0.640625 L 0.421875 -3.875 L 1.0625 -4.53125 L 3.203125 -4.53125 L 3.84375 -3.875 L 3.84375 -0.640625 L 3.203125 0 Z M 1.3125 -0.5 L 2.953125 -0.5 L 3.28125 -0.828125 L 3.28125 -3.6875 L 2.953125 -4.03125 L 1.3125 -4.03125 L 0.96875 -3.6875 L 0.96875 -0.828125 Z M 1.3125 -0.5 "/></g></g></g><g fill="#000000" fill-opacity="1"><g transform="translate(48.685076, 51.732733)"><g><path d="M 0.53125 0 L 0.53125 -4.53125 L 1.296875 -4.53125 L 3.3125 -0.890625 L 3.3125 -4.53125 L 3.875 -4.53125 L 3.875 0 L 3.21875 0 L 1.234375 -3.578125 L 1.09375 -3.578125 L 1.09375 0 Z M 0.53125 0 "/></g></g></g></svg>