<svg xmlns="http://www.w3.org/2000/svg" xmlns:xlink="http://www.w3.org/1999/xlink" width="40" zoomAndPan="magnify" viewBox="0 0 30 30.000001" height="40" preserveAspectRatio="xMidYMid meet" version="1.0"><defs><clipPath id="a0e2980f1f"><path d="M 3.164062 1.886719 L 26.832031 1.886719 L 26.832031 25.839844 L 3.164062 25.839844 Z M 3.164062 1.886719 " clip-rule="nonzero"/></clipPath></defs><g clip-path="url(#a0e2980f1f)"><path fill="#000000" d="M 19.929688 21.046875 C 21.253906 21.046875 22.3125 22.121094 22.3125 23.445312 C 22.3125 24.765625 21.253906 25.839844 19.929688 25.839844 C 18.605469 25.839844 17.535156 24.765625 17.535156 23.445312 C 17.535156 22.121094 18.605469 21.046875 19.929688 21.046875 Z M 27.113281 1.886719 L 27.113281 4.28125 L 24.71875 4.28125 L 20.414062 13.367188 L 22.03125 16.300781 C 22.214844 16.648438 22.324219 17.035156 22.324219 17.457031 C 22.324219 18.777344 21.253906 19.851562 19.929688 19.851562 L 5.558594 19.851562 L 5.558594 17.457031 L 19.417969 17.457031 C 19.585938 17.457031 19.71875 17.324219 19.71875 17.15625 C 19.71875 17.101562 19.707031 17.054688 19.683594 17.011719 L 18.613281 15.058594 L 9.6875 15.058594 C 8.792969 15.058594 8.007812 14.5625 7.59375 13.828125 L 3.3125 6.054688 C 3.214844 5.886719 3.164062 5.6875 3.164062 5.480469 C 3.164062 4.816406 3.703125 4.28125 4.359375 4.28125 L 22.066406 4.28125 L 23.203125 1.886719 Z M 7.953125 21.046875 C 9.277344 21.046875 10.335938 22.121094 10.335938 23.445312 C 10.335938 24.765625 9.277344 25.839844 7.953125 25.839844 C 6.628906 25.839844 5.558594 24.765625 5.558594 23.445312 C 5.558594 22.121094 6.628906 21.046875 7.953125 21.046875 Z M 7.953125 21.046875 " fill-opacity="1" fill-rule="nonzero"/></g></svg>