<svg xmlns="http://www.w3.org/2000/svg" xmlns:xlink="http://www.w3.org/1999/xlink" width="200" zoomAndPan="magnify" viewBox="0 0 150 149.999998" height="200" preserveAspectRatio="xMidYMid meet" version="1.0"><defs><g/><clipPath id="9a5f3e5a05"><path d="M 45 48.613281 L 105 48.613281 L 105 96.613281 L 45 96.613281 Z M 45 48.613281 " clip-rule="nonzero"/></clipPath></defs><g clip-path="url(#9a5f3e5a05)"><path fill="#000000" d="M 80.101562 48.691406 C 80 48.761719 80.027344 48.90625 80.164062 49.035156 C 80.441406 49.296875 81.199219 50.261719 81.519531 50.753906 C 82.527344 52.3125 82.242188 53.992188 80.8125 54.894531 C 80.605469 55.019531 80.03125 55.304688 79.441406 55.570312 C 76.765625 56.769531 75.183594 58.1875 74.007812 60.449219 C 73.367188 61.679688 73.09375 62.601562 73.109375 63.511719 L 73.113281 63.898438 L 72.867188 63.636719 C 72.734375 63.496094 72.613281 63.363281 72.597656 63.34375 C 72.417969 63.089844 70.820312 61.660156 69.957031 60.984375 C 66.042969 57.917969 62.839844 56.546875 60.265625 56.828125 C 59.332031 56.933594 59.28125 56.972656 56.984375 59.527344 C 56.222656 60.375 54.382812 62.210938 52.65625 63.851562 C 52.359375 64.132812 51.789062 64.691406 51.382812 65.09375 C 50.980469 65.496094 50.578125 65.890625 50.492188 65.972656 C 50.40625 66.054688 50.101562 66.347656 49.816406 66.625 C 49.183594 67.242188 49.144531 67.277344 48.90625 67.414062 C 48.421875 67.691406 48.242188 67.980469 48.511719 68.042969 C 48.589844 68.0625 48.625 68.0625 48.65625 68.046875 C 48.695312 68.027344 49.160156 67.679688 49.253906 67.601562 C 49.476562 67.410156 51.230469 66.667969 52.273438 66.316406 C 52.886719 66.113281 53.695312 65.902344 54.339844 65.777344 C 54.679688 65.710938 55.28125 65.613281 55.3125 65.621094 C 55.347656 65.628906 54.890625 65.945312 54.300781 66.324219 C 53.703125 66.703125 51.648438 68.066406 50.863281 68.605469 C 48.941406 69.921875 47.121094 71.476562 45.679688 73.03125 C 45.257812 73.480469 45.179688 73.601562 45.230469 73.726562 C 45.292969 73.878906 45.359375 73.867188 45.9375 73.601562 C 46.667969 73.269531 47.273438 73.007812 48.101562 72.679688 L 48.199219 72.640625 L 48.140625 72.707031 C 47.3125 73.601562 45.054688 76.363281 45.027344 76.523438 C 44.996094 76.6875 45.078125 76.773438 45.191406 76.695312 C 45.277344 76.632812 45.707031 76.375 46.054688 76.179688 C 46.234375 76.078125 46.417969 75.972656 46.460938 75.949219 C 46.507812 75.921875 46.546875 75.902344 46.546875 75.90625 C 46.546875 75.910156 46.457031 76.101562 46.351562 76.328125 C 45.824219 77.460938 45.867188 77.589844 46.710938 77.390625 C 47.28125 77.257812 47.265625 77.261719 49.253906 76.851562 L 49.523438 76.796875 L 49.476562 76.855469 C 48.71875 77.804688 48.367188 79.09375 48.574219 80.144531 C 48.6875 80.714844 49.210938 81.710938 49.585938 82.074219 C 49.636719 82.125 50.085938 82.3125 51.832031 83.015625 L 54.019531 83.894531 L 53.800781 83.894531 C 53.457031 83.894531 52.046875 83.976562 51.976562 83.996094 C 51.878906 84.027344 51.871094 84.066406 51.871094 84.621094 C 51.871094 85.082031 51.875 85.140625 51.921875 85.332031 C 52.101562 86.121094 52.128906 87.039062 52 87.757812 C 51.878906 88.417969 51.4375 89.808594 51.265625 90.054688 C 51.125 90.257812 51.089844 90.519531 51.191406 90.617188 C 51.359375 90.78125 54.105469 91.617188 58.796875 92.9375 C 58.957031 92.980469 59.546875 93.148438 60.109375 93.304688 C 60.757812 93.488281 61.222656 93.628906 61.390625 93.695312 C 63.613281 94.578125 68.007812 95.792969 70.585938 96.234375 C 72.777344 96.609375 73.585938 96.488281 74.722656 95.628906 C 74.890625 95.503906 74.855469 95.511719 75.6875 95.324219 C 76.203125 95.207031 78.332031 94.675781 79.15625 94.460938 C 83.15625 93.40625 84.753906 93.015625 86.714844 92.621094 C 88.117188 92.339844 88.894531 92.203125 92.433594 91.613281 C 95.863281 91.046875 97.972656 90.519531 99.699219 89.808594 C 101.101562 89.230469 101.195312 89.109375 101.148438 87.871094 C 101.097656 86.414062 101.027344 85.972656 100.6875 85.027344 C 100.277344 83.871094 100.132812 83.753906 98.300781 83.078125 C 97.667969 82.84375 97.089844 82.601562 96.722656 82.414062 C 96.574219 82.339844 96.574219 82.339844 96.5625 82.25 C 96.554688 82.171875 96.539062 82.144531 96.425781 82.035156 C 95.976562 81.597656 95.546875 80.820312 95.375 80.140625 C 95.128906 79.179688 95.257812 78.191406 95.875 76.3125 L 95.984375 75.980469 L 96.328125 75.980469 C 96.859375 75.976562 96.929688 75.933594 96.914062 75.617188 C 96.90625 75.429688 96.84375 75.253906 96.65625 74.90625 L 96.535156 74.679688 L 96.605469 74.679688 C 96.644531 74.679688 96.769531 74.6875 96.882812 74.699219 C 96.992188 74.707031 97.355469 74.730469 97.683594 74.746094 C 98.976562 74.8125 99.941406 74.960938 101.542969 75.339844 C 101.75 75.386719 102.171875 75.476562 102.480469 75.539062 C 102.789062 75.597656 103.171875 75.675781 103.335938 75.714844 C 103.925781 75.855469 103.988281 75.867188 104.207031 75.859375 C 104.566406 75.847656 104.695312 75.742188 104.695312 75.453125 C 104.695312 75.214844 104.605469 75.019531 104.128906 74.214844 C 103.988281 73.976562 103.875 73.78125 103.878906 73.777344 C 103.882812 73.773438 104.066406 73.851562 104.285156 73.953125 C 104.835938 74.199219 104.988281 74.203125 104.988281 73.972656 C 104.988281 73.566406 103.746094 72.050781 102.453125 70.878906 C 101.394531 69.917969 100.539062 69.226562 99.464844 68.46875 C 99.300781 68.351562 99.035156 68.160156 98.878906 68.039062 C 98.722656 67.921875 98.570312 67.8125 98.539062 67.792969 L 98.480469 67.761719 L 98.65625 67.699219 C 99.917969 67.238281 101.136719 66.359375 101.472656 65.671875 C 101.667969 65.277344 101.578125 65.183594 100.992188 65.160156 C 100.128906 65.128906 99.445312 64.902344 98.273438 64.265625 C 97.113281 63.636719 96.097656 63.140625 94.882812 62.617188 C 94.507812 62.453125 94.210938 62.320312 93.640625 62.058594 C 93.167969 61.84375 92.378906 61.433594 91.894531 61.152344 C 91.269531 60.785156 89.960938 59.988281 89.730469 59.828125 L 89.445312 59.636719 L 89.371094 59.453125 C 88.917969 58.359375 88.28125 57.507812 86.492188 55.589844 C 85.480469 54.507812 84.671875 53.582031 82.988281 51.5625 C 82.042969 50.4375 81.339844 49.664062 80.722656 49.082031 C 80.269531 48.65625 80.207031 48.617188 80.101562 48.691406 M 82.484375 51.484375 C 82.652344 51.683594 82.96875 52.0625 83.191406 52.320312 C 83.410156 52.582031 83.664062 52.878906 83.75 52.984375 C 84.402344 53.769531 85.335938 54.832031 86.019531 55.566406 C 87.097656 56.730469 87.375 57.039062 87.730469 57.464844 C 88.242188 58.078125 88.707031 58.785156 88.960938 59.320312 C 89.019531 59.445312 89.082031 59.570312 89.097656 59.597656 C 89.332031 60.03125 89.472656 61.007812 89.378906 61.554688 C 89.203125 62.601562 88.613281 63.367188 86.726562 65.015625 C 85.136719 66.402344 84.425781 66.957031 82.679688 68.160156 C 80.28125 69.816406 79.242188 70.734375 78.507812 71.84375 C 78.019531 72.574219 77.828125 73.132812 77.460938 74.839844 C 77.386719 75.183594 77.320312 75.460938 77.3125 75.453125 C 77.304688 75.445312 77.246094 75.277344 77.179688 75.082031 C 77.117188 74.886719 76.925781 74.324219 76.753906 73.828125 C 76.585938 73.335938 76.300781 72.488281 76.121094 71.945312 C 75.714844 70.726562 75.261719 69.398438 74.945312 68.507812 C 73.925781 65.644531 73.710938 65.023438 73.582031 64.589844 C 73.230469 63.4375 73.394531 62.398438 74.171875 60.839844 C 75.285156 58.601562 76.929688 57.050781 79.34375 55.964844 C 80.6875 55.359375 81.03125 55.175781 81.417969 54.859375 C 82.449219 54.007812 82.722656 52.425781 82.070312 51.078125 L 81.996094 50.921875 L 82.089844 51.019531 C 82.140625 51.074219 82.320312 51.285156 82.484375 51.484375 M 61.746094 57.148438 C 63.527344 57.375 65.433594 58.214844 67.777344 59.808594 C 69.753906 61.15625 71.316406 62.457031 72.578125 63.8125 C 73.175781 64.457031 73.246094 64.542969 73.300781 64.734375 C 73.375 65.003906 73.613281 65.699219 74.117188 67.117188 C 75.007812 69.625 75.339844 70.597656 76.03125 72.664062 C 76.378906 73.707031 76.734375 74.742188 76.871094 75.132812 C 76.921875 75.265625 76.949219 75.363281 76.9375 75.347656 C 76.925781 75.332031 76.855469 75.242188 76.785156 75.152344 C 72.976562 70.117188 66.539062 66.242188 60.558594 65.382812 C 56.808594 64.84375 53.847656 65.234375 50.316406 66.730469 C 50.199219 66.78125 50.101562 66.816406 50.097656 66.8125 C 50.09375 66.808594 50.269531 66.640625 50.488281 66.433594 C 50.707031 66.230469 51.226562 65.71875 51.648438 65.300781 C 52.066406 64.882812 52.652344 64.308594 52.949219 64.027344 C 54.867188 62.203125 56.414062 60.652344 57.386719 59.578125 C 59.007812 57.78125 59.355469 57.433594 59.675781 57.289062 C 60.070312 57.109375 60.949219 57.050781 61.746094 57.148438 M 89.726562 60.226562 C 89.789062 60.265625 90.058594 60.433594 90.328125 60.59375 C 90.597656 60.753906 90.972656 60.976562 91.160156 61.089844 C 92.328125 61.796875 93.234375 62.253906 94.835938 62.941406 C 95.855469 63.382812 96.550781 63.71875 97.777344 64.367188 C 99.441406 65.25 100.117188 65.480469 101.023438 65.480469 C 101.125 65.480469 101.210938 65.484375 101.210938 65.488281 C 101.210938 65.554688 100.871094 65.953125 100.640625 66.164062 C 99.609375 67.09375 98.136719 67.699219 96.527344 67.855469 C 95.597656 67.949219 94.808594 67.917969 92.925781 67.730469 C 90.878906 67.523438 89.90625 67.503906 88.519531 67.640625 C 86.335938 67.859375 84.449219 68.550781 82.878906 69.703125 C 80.699219 71.300781 78.828125 73.800781 78.207031 75.957031 C 78.03125 76.570312 78.035156 76.800781 78.226562 76.800781 C 78.339844 76.800781 78.359375 76.773438 78.363281 76.625 C 78.386719 75.90625 79.246094 74.121094 80.164062 72.890625 C 82.269531 70.066406 84.828125 68.46875 87.949219 68.027344 C 88.820312 67.90625 89.242188 67.878906 90.25 67.878906 C 91.253906 67.878906 91.390625 67.886719 92.847656 68.035156 C 95.398438 68.292969 96.664062 68.269531 97.886719 67.941406 L 98.054688 67.894531 L 98.226562 67.988281 C 98.320312 68.042969 98.515625 68.175781 98.660156 68.289062 C 98.808594 68.402344 99.0625 68.589844 99.230469 68.707031 C 101.199219 70.097656 103.023438 71.734375 104 72.988281 C 104.222656 73.28125 104.503906 73.671875 104.492188 73.683594 C 104.488281 73.6875 104.25 73.585938 103.960938 73.457031 C 103.667969 73.328125 103.273438 73.152344 103.078125 73.070312 C 102.886719 72.984375 102.351562 72.75 101.894531 72.546875 C 98.0625 70.839844 96.140625 70.289062 93.296875 70.09375 C 92.824219 70.0625 91.183594 70.0625 90.742188 70.09375 C 86.261719 70.425781 83.015625 71.730469 80.714844 74.125 C 79.902344 74.972656 79.074219 76.167969 78.949219 76.675781 C 78.898438 76.890625 79.15625 76.945312 79.234375 76.734375 C 79.414062 76.242188 80.246094 75.09375 80.960938 74.351562 C 83.1875 72.039062 86.222656 70.792969 90.535156 70.421875 C 91.042969 70.375 92.863281 70.371094 93.375 70.410156 C 96.101562 70.621094 98.011719 71.167969 101.53125 72.730469 C 101.859375 72.878906 102.144531 73 102.160156 73 C 102.175781 73 102.1875 73.015625 102.1875 73.035156 C 102.1875 73.082031 102.457031 73.640625 102.484375 73.648438 C 102.496094 73.652344 102.5625 73.746094 102.636719 73.855469 C 102.710938 73.964844 102.882812 74.214844 103.019531 74.410156 C 103.15625 74.605469 103.261719 74.769531 103.253906 74.769531 C 103.242188 74.773438 102.972656 74.699219 102.648438 74.609375 C 100.941406 74.117188 99.804688 73.921875 97.949219 73.804688 C 97.429688 73.773438 95.144531 73.773438 94.441406 73.804688 C 92.03125 73.917969 90.402344 74.050781 87.382812 74.371094 C 84.128906 74.722656 82.855469 74.890625 81.164062 75.191406 C 80.714844 75.273438 80.5625 75.457031 80.484375 76 C 80.355469 76.914062 79.863281 77.292969 78.714844 77.363281 C 77.429688 77.441406 76.132812 77.144531 75.671875 76.664062 L 75.582031 76.574219 L 75.625 76.527344 C 75.6875 76.460938 75.71875 76.335938 75.695312 76.238281 C 75.683594 76.195312 75.679688 76.15625 75.683594 76.15625 C 75.726562 76.15625 76.367188 76.730469 76.382812 76.789062 C 76.414062 76.886719 76.574219 76.894531 76.65625 76.800781 C 76.691406 76.761719 76.734375 76.730469 76.753906 76.730469 C 76.832031 76.730469 76.816406 76.601562 76.710938 76.390625 C 75.332031 73.542969 68.976562 70.664062 63.015625 70.1875 C 58.933594 69.859375 52.695312 70.691406 48.757812 72.089844 C 48.277344 72.261719 47.003906 72.777344 46.402344 73.042969 C 46.15625 73.152344 45.953125 73.238281 45.949219 73.234375 C 45.9375 73.222656 47.078125 72.078125 47.378906 71.804688 C 48.820312 70.476562 50.042969 69.535156 52.097656 68.167969 C 53.667969 67.121094 54.125 66.824219 54.601562 66.515625 C 55.113281 66.1875 55.347656 66.027344 55.824219 65.679688 L 56.027344 65.535156 L 56.226562 65.515625 C 57.996094 65.359375 60.527344 65.585938 62.507812 66.082031 C 66.910156 67.179688 71.738281 70.046875 74.886719 73.425781 C 75.804688 74.410156 76.941406 75.816406 77.113281 76.183594 C 77.175781 76.3125 77.210938 76.328125 77.371094 76.296875 C 77.539062 76.265625 77.609375 76.175781 77.554688 76.066406 C 77.511719 75.984375 77.972656 73.882812 78.167969 73.269531 C 78.667969 71.714844 79.828125 70.519531 82.902344 68.40625 C 84.753906 67.132812 85.992188 66.152344 87.65625 64.628906 C 89.117188 63.292969 89.660156 62.414062 89.722656 61.261719 C 89.742188 60.949219 89.667969 60.269531 89.605469 60.167969 C 89.582031 60.132812 89.617188 60.148438 89.726562 60.226562 M 81.089844 60.683594 C 80.167969 60.992188 78.957031 61.734375 78.179688 62.46875 C 77.878906 62.753906 77.851562 62.785156 77.855469 62.894531 C 77.859375 63.105469 77.984375 63.082031 78.257812 62.832031 C 79.144531 62.007812 80.363281 61.242188 81.203125 60.980469 C 81.492188 60.886719 81.5 60.882812 81.515625 60.8125 C 81.554688 60.59375 81.449219 60.5625 81.089844 60.683594 M 60.878906 61.839844 C 60.8125 61.859375 60.8125 62.046875 60.878906 62.082031 C 60.898438 62.089844 61 62.105469 61.109375 62.113281 C 62.476562 62.207031 63.714844 62.519531 64.765625 63.035156 C 65.277344 63.285156 65.339844 63.296875 65.375 63.148438 C 65.40625 63.011719 65.382812 62.992188 64.972656 62.785156 C 64.265625 62.425781 63.796875 62.261719 62.96875 62.078125 C 62.195312 61.90625 61.101562 61.78125 60.878906 61.839844 M 82.699219 61.960938 C 82.578125 62.003906 81.199219 62.867188 80.761719 63.167969 C 79.394531 64.117188 78.085938 65.378906 77.09375 66.695312 C 76.910156 66.941406 76.875 67.082031 76.984375 67.140625 C 77.074219 67.1875 77.152344 67.144531 77.277344 66.976562 C 78.59375 65.238281 80.144531 63.875 82.292969 62.578125 C 82.976562 62.167969 82.945312 62.191406 82.945312 62.074219 C 82.945312 61.957031 82.839844 61.90625 82.699219 61.960938 M 85.675781 62.640625 C 84.605469 63.085938 82.65625 64.40625 81.316406 65.589844 C 79.992188 66.761719 78.335938 68.652344 78.066406 69.300781 C 77.964844 69.542969 78.222656 69.621094 78.363281 69.386719 C 78.449219 69.242188 78.792969 68.777344 79.042969 68.460938 C 80.832031 66.214844 83.164062 64.28125 85.558594 63.0625 C 85.964844 62.851562 85.988281 62.832031 85.960938 62.699219 C 85.941406 62.589844 85.847656 62.570312 85.675781 62.640625 M 59.65625 63.1875 C 59.605469 63.210938 59.582031 63.300781 59.609375 63.371094 C 59.628906 63.429688 59.667969 63.441406 60.136719 63.507812 C 61.234375 63.65625 62.71875 63.980469 63.75 64.292969 C 66.128906 65.007812 67.824219 65.945312 69.976562 67.726562 C 70.125 67.847656 70.273438 67.957031 70.304688 67.96875 C 70.542969 68.054688 70.597656 67.820312 70.386719 67.632812 C 67.859375 65.449219 65.390625 64.242188 61.96875 63.515625 C 61 63.308594 59.78125 63.136719 59.65625 63.1875 M 62.378906 70.453125 C 65.0625 70.625 67.378906 71.117188 69.804688 72.023438 C 72.851562 73.160156 75.078125 74.578125 76.144531 76.058594 L 76.207031 76.148438 L 76.113281 76.070312 C 74.445312 74.714844 71.902344 73.691406 68.632812 73.070312 C 65.433594 72.457031 60.582031 72.238281 57.191406 72.546875 C 53.386719 72.894531 48.554688 74.316406 45.988281 75.84375 C 45.886719 75.90625 45.878906 75.917969 46.386719 75.289062 C 47.226562 74.257812 47.878906 73.492188 48.660156 72.628906 C 48.898438 72.367188 48.839844 72.394531 49.5625 72.15625 C 51.28125 71.582031 53.328125 71.15625 56.289062 70.761719 C 58.53125 70.460938 60.757812 70.347656 62.378906 70.453125 M 62.78125 72.761719 C 67.886719 72.996094 71.9375 73.886719 74.425781 75.328125 C 74.929688 75.621094 75.046875 75.699219 74.871094 75.625 C 74.59375 75.503906 73.558594 75.167969 73.074219 75.042969 C 72.398438 74.867188 72.035156 74.792969 71.429688 74.707031 C 71.246094 74.679688 70.90625 74.621094 70.671875 74.570312 C 68.523438 74.125 66.59375 73.945312 64.210938 73.972656 C 63.636719 73.980469 62.945312 74 62.675781 74.015625 C 62.40625 74.03125 61.925781 74.054688 61.605469 74.066406 C 59.742188 74.136719 58.933594 74.210938 55.820312 74.617188 C 54.722656 74.761719 51.996094 75.183594 50.847656 75.390625 C 49.894531 75.558594 48.894531 75.777344 47.90625 76.03125 C 47.726562 76.078125 47.570312 76.113281 47.566406 76.109375 C 47.546875 76.089844 47.785156 75.636719 47.941406 75.402344 L 48.105469 75.144531 L 48.417969 75.019531 C 51.476562 73.773438 55.253906 72.929688 58.542969 72.761719 C 58.769531 72.75 59.011719 72.738281 59.082031 72.734375 C 59.355469 72.71875 62.347656 72.742188 62.78125 72.761719 M 94.335938 74.210938 C 94.433594 74.363281 94.636719 74.773438 94.625 74.785156 C 94.570312 74.84375 94.304688 74.84375 90.386719 74.839844 C 88.203125 74.835938 86.382812 74.828125 86.34375 74.820312 C 86.210938 74.789062 89.746094 74.429688 91.515625 74.292969 C 92.414062 74.222656 93.859375 74.132812 94.167969 74.128906 L 94.285156 74.125 L 94.335938 74.210938 M 64.691406 74.992188 C 67.394531 75.097656 69.757812 75.472656 72.230469 76.183594 L 72.605469 76.289062 L 71.96875 76.5 C 70.761719 76.894531 69.710938 77.210938 68.597656 77.515625 C 68.496094 77.542969 68.355469 77.582031 68.285156 77.601562 C 67.089844 77.941406 64.886719 78.425781 63.867188 78.578125 C 62.933594 78.714844 62.425781 78.566406 59.277344 77.214844 C 58.980469 77.089844 58.234375 76.777344 57.621094 76.519531 C 56.25 75.949219 55.660156 75.699219 55.683594 75.691406 C 55.734375 75.675781 56.707031 75.5 56.984375 75.457031 C 58.402344 75.238281 60.105469 75.078125 61.726562 75.011719 C 62.664062 74.976562 63.992188 74.964844 64.691406 74.992188 M 91.730469 75.824219 C 92.078125 75.835938 92.996094 75.871094 93.765625 75.902344 C 94.535156 75.933594 95.238281 75.960938 95.328125 75.960938 C 95.417969 75.960938 95.488281 75.964844 95.488281 75.972656 C 95.488281 75.976562 95.472656 76.015625 95.453125 76.058594 C 94.492188 77.957031 94.390625 80.160156 95.210938 81.421875 C 95.246094 81.480469 95.300781 81.46875 94.589844 81.578125 C 94.261719 81.625 92.867188 81.84375 91.496094 82.0625 C 90.121094 82.277344 88.261719 82.570312 87.363281 82.714844 C 86.460938 82.855469 84.238281 83.203125 82.417969 83.492188 C 78.652344 84.085938 75.894531 84.519531 74.074219 84.804688 C 73.382812 84.914062 72.171875 85.105469 71.378906 85.230469 C 69.546875 85.519531 65.546875 86.148438 64.484375 86.316406 C 64.039062 86.386719 63.660156 86.445312 63.640625 86.449219 C 63.574219 86.464844 63.234375 85.183594 63.078125 84.316406 C 62.753906 82.523438 62.777344 81.09375 63.144531 80.027344 C 63.257812 79.699219 63.238281 79.71875 63.460938 79.707031 C 63.742188 79.6875 64.207031 79.589844 65.40625 79.289062 C 65.734375 79.203125 66.519531 79.011719 67.148438 78.859375 C 68.652344 78.496094 69.582031 78.261719 71.125 77.855469 C 71.820312 77.667969 72.816406 77.410156 73.339844 77.277344 L 74.292969 77.039062 L 74.574219 77.199219 C 74.730469 77.285156 74.972656 77.421875 75.113281 77.5 C 75.941406 77.972656 76.699219 78.238281 77.746094 78.433594 C 79.191406 78.699219 80.523438 78.042969 81.195312 76.738281 C 81.25 76.628906 81.332031 76.488281 81.371094 76.421875 L 81.449219 76.300781 L 81.582031 76.277344 C 82.667969 76.101562 85.464844 75.894531 87.753906 75.824219 C 88.484375 75.800781 91.011719 75.800781 91.730469 75.824219 M 53.777344 76.175781 C 53.878906 76.230469 54.007812 76.289062 54.070312 76.304688 C 54.132812 76.324219 54.359375 76.425781 54.578125 76.535156 C 55.152344 76.824219 55.59375 77.03125 56.339844 77.367188 C 58.96875 78.554688 59.875 78.917969 61.058594 79.253906 C 61.714844 79.441406 62.703125 79.671875 62.851562 79.671875 C 62.925781 79.671875 62.925781 79.695312 62.84375 79.941406 C 62.480469 81.015625 62.449219 82.464844 62.746094 84.230469 C 62.855469 84.882812 63.046875 85.699219 63.214844 86.222656 C 63.25 86.324219 63.273438 86.410156 63.265625 86.414062 C 63.261719 86.417969 63.109375 86.359375 62.925781 86.28125 C 62.746094 86.207031 62.527344 86.113281 62.4375 86.078125 C 62.351562 86.042969 62.019531 85.902344 61.695312 85.765625 C 61.371094 85.628906 60.871094 85.417969 60.578125 85.296875 C 60.289062 85.175781 59.917969 85.019531 59.757812 84.953125 C 59.59375 84.882812 58.484375 84.417969 57.289062 83.917969 C 56.09375 83.414062 55.035156 82.972656 54.9375 82.929688 C 54.761719 82.851562 54.03125 82.546875 53.832031 82.464844 C 53.773438 82.441406 53.460938 82.308594 53.136719 82.171875 C 52.8125 82.039062 52.261719 81.804688 51.914062 81.660156 C 51.5625 81.511719 51.035156 81.289062 50.738281 81.167969 L 50.199219 80.941406 L 50.070312 80.6875 C 49.375 79.296875 49.679688 77.972656 51 76.621094 L 51.15625 76.460938 L 51.667969 76.375 C 52.398438 76.257812 53.523438 76.082031 53.5625 76.082031 C 53.582031 76.082031 53.675781 76.125 53.777344 76.175781 M 88.890625 76.328125 C 85.804688 76.398438 83.839844 76.523438 82.601562 76.722656 C 82.179688 76.792969 82.15625 76.796875 82.144531 76.886719 C 82.109375 77.085938 82.175781 77.109375 82.601562 77.039062 C 85.257812 76.605469 92.171875 76.484375 93.535156 76.851562 C 93.785156 76.917969 93.867188 76.878906 93.835938 76.703125 C 93.808594 76.5625 93.078125 76.433594 91.875 76.355469 C 91.558594 76.335938 89.445312 76.316406 88.890625 76.328125 M 52.8125 77.101562 C 52.769531 77.117188 52.753906 77.148438 52.753906 77.230469 C 52.753906 77.351562 52.707031 77.324219 53.929688 77.90625 C 54.554688 78.203125 54.667969 78.257812 55.015625 78.417969 C 55.585938 78.679688 55.785156 78.773438 56.398438 79.050781 C 59.894531 80.636719 59.90625 80.640625 59.953125 80.453125 C 59.984375 80.335938 59.949219 80.304688 59.65625 80.175781 C 59.144531 79.945312 55.921875 78.488281 55.488281 78.285156 C 55.105469 78.109375 54.074219 77.621094 53.578125 77.382812 C 52.949219 77.082031 52.90625 77.066406 52.8125 77.101562 M 90.652344 77.671875 C 88.835938 77.738281 88.027344 77.8125 86 78.101562 C 84.816406 78.273438 84.765625 78.28125 84.75 78.367188 C 84.703125 78.609375 84.691406 78.609375 86.136719 78.402344 C 87.96875 78.140625 88.785156 78.058594 90.269531 77.992188 C 91.027344 77.960938 92.703125 77.945312 92.988281 77.972656 C 93.273438 77.996094 93.328125 77.984375 93.34375 77.898438 C 93.367188 77.804688 93.339844 77.742188 93.269531 77.71875 C 93.128906 77.671875 91.46875 77.640625 90.652344 77.671875 M 73.808594 78.246094 C 73.78125 78.25 73.566406 78.277344 73.328125 78.3125 C 71.878906 78.511719 69.894531 78.917969 68.367188 79.328125 C 67.148438 79.65625 65.027344 80.339844 64.707031 80.507812 C 64.605469 80.5625 64.597656 80.722656 64.695312 80.757812 C 64.785156 80.792969 64.859375 80.777344 65.382812 80.59375 C 67.101562 79.984375 68.726562 79.523438 70.371094 79.167969 C 71.195312 78.988281 72.914062 78.671875 73.601562 78.566406 C 74.019531 78.503906 74.0625 78.480469 74.035156 78.335938 C 74.019531 78.246094 73.957031 78.21875 73.808594 78.246094 M 83.363281 78.417969 C 83.335938 78.445312 82.898438 78.511719 78.5 79.136719 C 73.636719 79.832031 70.570312 80.429688 66.738281 81.429688 C 65.722656 81.695312 65.648438 81.726562 65.6875 81.894531 C 65.71875 82.011719 65.824219 82.007812 66.34375 81.863281 C 69.960938 80.855469 73.898438 80.09375 79.675781 79.285156 C 82.339844 78.914062 83.449219 78.734375 83.554688 78.65625 C 83.59375 78.628906 83.609375 78.46875 83.578125 78.4375 C 83.558594 78.417969 83.378906 78.402344 83.363281 78.417969 M 92.140625 78.964844 C 91.070312 79.011719 88.296875 79.25 86.628906 79.4375 C 84.238281 79.703125 80.710938 80.257812 77.667969 80.847656 C 77.414062 80.898438 77.097656 80.957031 76.960938 80.984375 C 76.828125 81.011719 76.558594 81.0625 76.363281 81.101562 C 75.9375 81.1875 75.035156 81.355469 73.867188 81.566406 C 72.714844 81.773438 72.746094 81.761719 72.78125 81.953125 C 72.804688 82.070312 72.863281 82.070312 73.554688 81.941406 C 73.851562 81.886719 74.34375 81.796875 74.652344 81.742188 C 75.257812 81.636719 75.597656 81.574219 76.277344 81.4375 C 76.851562 81.324219 77.558594 81.1875 77.960938 81.113281 C 78.140625 81.078125 78.371094 81.035156 78.480469 81.015625 C 80.804688 80.566406 84.289062 80.023438 86.375 79.78125 C 88.570312 79.527344 91.957031 79.25 93.101562 79.226562 C 93.332031 79.222656 93.535156 79.21875 93.554688 79.21875 C 93.632812 79.21875 93.621094 79 93.539062 78.964844 C 93.484375 78.9375 92.695312 78.9375 92.140625 78.964844 M 51.78125 79.132812 C 51.746094 79.144531 51.730469 79.257812 51.753906 79.324219 C 51.820312 79.5 55.742188 81.210938 57.320312 81.753906 C 57.742188 81.898438 57.8125 81.90625 57.847656 81.808594 C 57.902344 81.664062 57.878906 81.644531 57.507812 81.507812 C 56.253906 81.050781 53.667969 79.945312 52.316406 79.289062 C 51.976562 79.121094 51.875 79.09375 51.78125 79.132812 M 93.785156 80.066406 C 92.964844 80.222656 89.828125 80.710938 88.558594 80.882812 C 87.292969 81.054688 86.765625 81.105469 85.972656 81.125 C 85.351562 81.140625 85.3125 81.152344 85.355469 81.347656 C 85.398438 81.542969 87.007812 81.433594 89.546875 81.0625 C 91.542969 80.769531 93.222656 80.488281 94.113281 80.304688 C 94.21875 80.28125 94.238281 80.261719 94.238281 80.160156 C 94.234375 80.023438 94.128906 80.003906 93.785156 80.066406 M 51.515625 80.238281 C 51.4375 80.261719 51.453125 80.460938 51.535156 80.5 C 51.785156 80.613281 53.410156 81.308594 54.125 81.605469 C 56.25 82.488281 57.34375 82.976562 59.394531 83.957031 C 61.894531 85.148438 62.292969 85.292969 62.292969 85 C 62.292969 84.90625 62.28125 84.894531 62.125 84.84375 C 61.8125 84.738281 61.117188 84.425781 59.578125 83.6875 C 59.042969 83.433594 58.582031 83.214844 58.5625 83.207031 C 58.539062 83.195312 58.335938 83.105469 58.109375 83 C 57.007812 82.484375 55.789062 81.953125 54.410156 81.378906 C 53.945312 81.1875 53.152344 80.851562 52.648438 80.632812 C 51.746094 80.246094 51.625 80.203125 51.515625 80.238281 M 58.011719 80.460938 C 57.9375 80.492188 57.925781 80.640625 57.988281 80.695312 C 58.050781 80.746094 60.179688 81.582031 60.894531 81.835938 C 61.917969 82.199219 62.019531 82.21875 62.046875 82.070312 C 62.070312 81.953125 62.046875 81.910156 61.941406 81.882812 C 61.671875 81.804688 60.539062 81.375 58.5625 80.59375 C 58.207031 80.457031 58.089844 80.425781 58.011719 80.460938 M 82.332031 81.28125 C 82.160156 81.355469 80.792969 81.636719 76.875 82.398438 C 71.671875 83.40625 69.320312 84.027344 66.710938 85.082031 C 66.136719 85.3125 65.910156 85.390625 65.621094 85.46875 C 65.324219 85.546875 65.3125 85.550781 65.296875 85.613281 C 65.226562 85.9375 65.558594 85.882812 66.90625 85.347656 C 69.589844 84.277344 71.773438 83.707031 77.414062 82.613281 C 77.753906 82.546875 78.070312 82.484375 78.117188 82.476562 C 78.167969 82.464844 78.441406 82.410156 78.726562 82.355469 C 79.011719 82.300781 79.285156 82.25 79.332031 82.238281 C 79.378906 82.226562 79.765625 82.152344 80.183594 82.070312 C 81.9375 81.726562 82.546875 81.566406 82.574219 81.449219 C 82.609375 81.277344 82.507812 81.203125 82.332031 81.28125 M 58.292969 81.972656 C 58.203125 82 58.230469 82.199219 58.332031 82.246094 C 58.542969 82.347656 60.273438 83.121094 60.667969 83.289062 C 60.921875 83.398438 61.25 83.539062 61.398438 83.601562 C 61.550781 83.667969 61.691406 83.71875 61.710938 83.71875 C 61.835938 83.71875 61.875 83.664062 61.851562 83.53125 C 61.839844 83.46875 61.828125 83.464844 61.335938 83.246094 C 61.058594 83.121094 60.308594 82.785156 59.667969 82.5 C 58.515625 81.980469 58.40625 81.941406 58.292969 81.972656 M 69.988281 82.476562 C 69.445312 82.511719 68.601562 82.683594 67.734375 82.9375 C 66.546875 83.285156 64.609375 84.089844 64.574219 84.25 C 64.554688 84.339844 64.578125 84.421875 64.628906 84.4375 C 64.722656 84.460938 64.789062 84.441406 65.121094 84.28125 C 65.585938 84.054688 66.382812 83.726562 67.050781 83.488281 C 67.972656 83.15625 69.40625 82.8125 70.109375 82.75 C 70.378906 82.726562 70.394531 82.722656 70.410156 82.660156 C 70.4375 82.542969 70.378906 82.453125 70.28125 82.457031 C 70.253906 82.460938 70.125 82.46875 69.988281 82.476562 M 96.515625 82.652344 C 97.113281 82.964844 97.203125 83 98.730469 83.582031 C 99.566406 83.902344 99.988281 84.183594 100.171875 84.546875 C 100.203125 84.609375 100.550781 85.574219 100.597656 85.730469 C 100.777344 86.320312 100.925781 88.378906 100.8125 88.703125 C 100.71875 88.976562 100.371094 89.199219 99.496094 89.546875 C 97.652344 90.277344 95.761719 90.742188 92.308594 91.316406 C 88.570312 91.941406 88.21875 92 86.871094 92.269531 C 85.15625 92.609375 83.417969 93.019531 81.054688 93.636719 C 80.867188 93.683594 80.5625 93.765625 80.378906 93.8125 C 80.195312 93.859375 79.75 93.976562 79.390625 94.070312 C 77.777344 94.496094 75.457031 95.070312 75.363281 95.070312 C 75.359375 95.070312 75.378906 95.035156 75.410156 94.992188 C 76.105469 94.113281 76.5 92.273438 76.257812 91.085938 C 75.871094 89.214844 73.875 88.085938 69.382812 87.195312 C 69.160156 87.152344 68.941406 87.109375 68.894531 87.097656 C 68.773438 87.074219 68.617188 87.101562 71.078125 86.6875 C 73.226562 86.328125 75.648438 85.917969 79.144531 85.328125 C 80.136719 85.160156 81.847656 84.871094 82.945312 84.6875 C 84.042969 84.5 85.675781 84.226562 86.570312 84.074219 C 87.464844 83.921875 89.4375 83.589844 90.957031 83.332031 C 92.476562 83.078125 94.253906 82.777344 94.914062 82.664062 C 95.570312 82.550781 96.113281 82.457031 96.121094 82.457031 C 96.128906 82.457031 96.308594 82.542969 96.515625 82.652344 M 97.835938 84.292969 C 97.472656 84.324219 95.390625 84.6875 93.679688 85.011719 C 93.367188 85.074219 92.992188 85.144531 92.847656 85.171875 C 89.898438 85.734375 84.960938 86.824219 81.054688 87.777344 C 78.273438 88.457031 75.71875 89.105469 75.503906 89.1875 C 75.449219 89.207031 75.425781 89.292969 75.453125 89.371094 C 75.496094 89.488281 75.363281 89.515625 78.1875 88.8125 C 78.960938 88.617188 79.730469 88.425781 79.890625 88.386719 C 80.050781 88.347656 80.363281 88.269531 80.585938 88.21875 C 81.144531 88.078125 81.90625 87.894531 82.292969 87.804688 C 82.476562 87.761719 82.773438 87.691406 82.960938 87.644531 C 87.492188 86.574219 91.726562 85.675781 95.253906 85.042969 C 97.503906 84.636719 97.828125 84.585938 98.214844 84.585938 C 98.488281 84.585938 98.574219 84.558594 98.59375 84.46875 C 98.636719 84.28125 98.453125 84.238281 97.835938 84.292969 M 55.730469 84.980469 C 56.015625 84.992188 56.390625 85.011719 56.558594 85.023438 L 56.867188 85.042969 L 59.359375 86.046875 C 60.730469 86.597656 62.273438 87.222656 62.792969 87.429688 C 63.308594 87.636719 63.75 87.8125 63.769531 87.820312 C 63.792969 87.824219 63.816406 87.839844 63.820312 87.847656 C 63.855469 87.898438 64.039062 87.878906 65.167969 87.6875 L 66.347656 87.488281 L 66.773438 87.589844 C 68.050781 87.890625 68.589844 88.050781 70.488281 88.675781 C 72.738281 89.417969 73.355469 89.679688 73.996094 90.144531 C 75.171875 91.003906 75.554688 92.648438 74.832031 93.730469 C 73.78125 95.296875 72.945312 95.507812 70.007812 94.9375 C 67.820312 94.515625 66.292969 94.070312 62.195312 92.667969 C 58.761719 91.496094 54.84375 90.453125 52.199219 90.011719 C 52.023438 89.984375 52.03125 89.996094 52.117188 89.769531 C 52.65625 88.390625 52.847656 86.5625 52.597656 85.253906 C 52.578125 85.144531 52.5625 85.050781 52.5625 85.046875 C 52.625 84.988281 54.707031 84.941406 55.730469 84.980469 M 55.082031 86.140625 C 55.03125 86.152344 54.996094 86.257812 55.019531 86.320312 C 55.050781 86.414062 55.0625 86.417969 55.957031 86.542969 C 57.53125 86.761719 59.003906 87.109375 60.621094 87.648438 C 61.28125 87.867188 61.335938 87.878906 61.363281 87.765625 C 61.390625 87.628906 61.367188 87.601562 61.152344 87.519531 C 59.488281 86.894531 57.882812 86.496094 55.886719 86.214844 C 55.398438 86.144531 55.140625 86.121094 55.082031 86.140625 M 53.847656 87.699219 C 53.777344 87.722656 53.753906 87.855469 53.808594 87.925781 C 53.847656 87.972656 53.851562 87.972656 54.519531 87.996094 C 56.855469 88.078125 58.582031 88.402344 60.625 89.152344 C 61.058594 89.308594 61.125 89.316406 61.144531 89.195312 C 61.175781 89.042969 61.136719 89.015625 60.542969 88.796875 C 58.871094 88.183594 57.46875 87.886719 55.566406 87.734375 C 55.1875 87.703125 53.914062 87.675781 53.847656 87.699219 M 66.441406 88.863281 C 66.402344 88.875 66.382812 88.953125 66.398438 89.039062 C 66.410156 89.117188 66.433594 89.125 66.925781 89.238281 C 67.464844 89.359375 68.792969 89.707031 69.34375 89.867188 C 70.195312 90.113281 71.433594 90.558594 72.082031 90.847656 C 72.351562 90.96875 72.429688 90.96875 72.464844 90.847656 C 72.503906 90.707031 72.402344 90.640625 71.75 90.375 C 70.632812 89.917969 69.710938 89.621094 68.179688 89.226562 C 67.917969 89.160156 67.625 89.082031 67.523438 89.054688 C 66.917969 88.898438 66.554688 88.832031 66.441406 88.863281 M 57.757812 89.378906 C 57.722656 89.402344 57.707031 89.476562 57.71875 89.542969 C 57.738281 89.628906 57.617188 89.589844 59.324219 90.085938 C 60.894531 90.542969 61.121094 90.609375 61.636719 90.75 C 66.597656 92.117188 70.160156 93.242188 72.210938 94.089844 C 72.515625 94.214844 72.578125 94.230469 72.667969 94.207031 C 72.714844 94.195312 72.742188 94.113281 72.71875 94.03125 C 72.703125 93.96875 72.671875 93.953125 71.957031 93.660156 C 70.15625 92.914062 66.53125 91.769531 62.105469 90.550781 C 61.265625 90.320312 60.949219 90.230469 60.726562 90.164062 C 60.601562 90.125 60.296875 90.039062 60.050781 89.964844 C 59.800781 89.894531 59.246094 89.734375 58.816406 89.609375 C 58.0625 89.390625 57.816406 89.335938 57.757812 89.378906 M 64.289062 89.957031 C 64.210938 90.003906 64.222656 90.171875 64.304688 90.210938 C 64.335938 90.226562 64.621094 90.300781 64.941406 90.382812 C 66.957031 90.886719 68.550781 91.410156 69.847656 91.988281 C 70.046875 92.074219 70.0625 92.078125 70.132812 92.046875 C 70.265625 91.984375 70.21875 91.828125 70.050781 91.75 C 69.289062 91.398438 68.042969 90.921875 67.316406 90.710938 C 66.078125 90.34375 66.058594 90.339844 65.160156 90.113281 C 64.511719 89.953125 64.34375 89.921875 64.289062 89.957031 " fill-opacity="1" fill-rule="evenodd"/></g><g fill="#000000" fill-opacity="1"><g transform="translate(50.220826, 53.976901)"><g><path d="M 0.125 -0.671875 C 0.25 -0.679688 0.316406 -0.691406 0.328125 -0.703125 C 0.347656 -0.722656 0.378906 -0.738281 0.421875 -0.75 L 0.59375 -0.765625 L 0.796875 -0.875 C 0.796875 -0.925781 0.785156 -0.953125 0.765625 -0.953125 C 0.796875 -1.023438 0.8125 -1.144531 0.8125 -1.3125 L 0.78125 -1.609375 L 0.734375 -1.484375 L 0.71875 -1.609375 C 0.789062 -1.734375 0.828125 -1.863281 0.828125 -2 C 0.828125 -2.082031 0.8125 -2.175781 0.78125 -2.28125 L 0.796875 -2.390625 L 0.75 -2.359375 L 0.8125 -2.5625 C 0.757812 -2.476562 0.71875 -2.425781 0.6875 -2.40625 C 0.757812 -2.519531 0.796875 -2.644531 0.796875 -2.78125 L 0.75 -3.015625 L 0.796875 -2.984375 L 0.8125 -3.375 C 0.769531 -3.4375 0.742188 -3.515625 0.734375 -3.609375 L 0.78125 -3.65625 C 0.769531 -3.726562 0.765625 -3.796875 0.765625 -3.859375 C 0.765625 -3.910156 0.769531 -3.960938 0.78125 -4.015625 C 0.8125 -4.117188 0.828125 -4.1875 0.828125 -4.21875 C 0.804688 -4.238281 0.789062 -4.257812 0.78125 -4.28125 L 0.796875 -4.328125 L 0.765625 -4.421875 L 0.8125 -4.453125 C 0.8125 -4.554688 0.769531 -4.664062 0.6875 -4.78125 L 0.734375 -4.9375 L 0.78125 -4.859375 C 0.8125 -4.921875 0.828125 -4.992188 0.828125 -5.078125 C 0.828125 -5.171875 0.785156 -5.234375 0.703125 -5.265625 L 0.75 -5.34375 C 0.738281 -5.4375 0.710938 -5.503906 0.671875 -5.546875 C 0.617188 -5.535156 0.582031 -5.5 0.5625 -5.4375 L 0.53125 -5.46875 L 0.46875 -5.640625 L 0.375 -5.59375 L 0.140625 -5.75 L 0.125 -5.90625 L 0.015625 -5.90625 L 0.0625 -6 L 0.0625 -6.125 C 0.09375 -6.132812 0.117188 -6.160156 0.140625 -6.203125 L 0.140625 -6.125 L 0.1875 -6.171875 C 0.257812 -6.171875 0.335938 -6.191406 0.421875 -6.234375 L 0.5 -6.203125 L 0.546875 -6.296875 L 0.578125 -6.25 L 0.59375 -6.296875 C 0.613281 -6.234375 0.640625 -6.191406 0.671875 -6.171875 C 0.703125 -6.148438 0.742188 -6.140625 0.796875 -6.140625 C 0.847656 -6.140625 0.882812 -6.128906 0.90625 -6.109375 L 0.96875 -6.0625 L 1 -6.1875 L 1.03125 -6.203125 C 1.125 -6.203125 1.21875 -6.210938 1.3125 -6.234375 L 1.34375 -6.25 L 1.390625 -6.1875 L 1.40625 -6.234375 L 1.4375 -6.1875 C 1.539062 -6.1875 1.601562 -6.175781 1.625 -6.15625 L 1.65625 -6.171875 L 1.78125 -6.15625 L 1.796875 -6.078125 L 1.8125 -6.171875 L 2.015625 -6.1875 C 2.109375 -6.1875 2.164062 -6.164062 2.1875 -6.125 L 2.234375 -6.15625 L 2.34375 -6.09375 L 2.546875 -6.203125 L 2.671875 -6.234375 C 2.671875 -6.191406 2.726562 -6.171875 2.84375 -6.171875 L 2.890625 -6.09375 L 2.984375 -6.109375 L 3.078125 -5.984375 L 3.484375 -5.8125 C 3.484375 -5.757812 3.488281 -5.71875 3.5 -5.6875 C 3.519531 -5.664062 3.539062 -5.648438 3.5625 -5.640625 C 3.582031 -5.628906 3.597656 -5.617188 3.609375 -5.609375 C 3.628906 -5.597656 3.640625 -5.585938 3.640625 -5.578125 C 3.671875 -5.554688 3.691406 -5.535156 3.703125 -5.515625 L 3.78125 -5.53125 L 3.765625 -5.4375 L 3.875 -5.40625 L 3.828125 -5.375 C 3.921875 -5.269531 3.96875 -5.078125 3.96875 -4.796875 L 3.96875 -4.6875 L 4.03125 -4.671875 L 4.015625 -4.5625 L 3.953125 -4.515625 L 4 -4.515625 C 4 -4.453125 4.019531 -4.414062 4.0625 -4.40625 L 4.03125 -4.34375 L 4.046875 -4.234375 C 4.046875 -4.210938 4.03125 -4.164062 4 -4.09375 C 3.976562 -4.019531 3.929688 -3.96875 3.859375 -3.9375 L 3.828125 -3.8125 L 3.8125 -3.921875 C 3.8125 -3.859375 3.78125 -3.820312 3.71875 -3.8125 C 3.757812 -3.757812 3.785156 -3.703125 3.796875 -3.640625 C 3.753906 -3.703125 3.726562 -3.734375 3.71875 -3.734375 C 3.707031 -3.734375 3.703125 -3.726562 3.703125 -3.71875 C 3.703125 -3.707031 3.707031 -3.695312 3.71875 -3.6875 L 3.671875 -3.609375 L 3.640625 -3.625 L 3.6875 -3.46875 L 3.578125 -3.53125 C 3.554688 -3.476562 3.546875 -3.394531 3.546875 -3.28125 C 3.546875 -3.25 3.546875 -3.210938 3.546875 -3.171875 C 3.597656 -3.171875 3.625 -3.1875 3.625 -3.21875 C 3.625 -3.226562 3.609375 -3.25 3.578125 -3.28125 L 3.828125 -3.265625 L 3.859375 -3.203125 L 3.90625 -3.25 L 3.953125 -3.21875 C 3.960938 -3.070312 3.988281 -2.976562 4.03125 -2.9375 C 4.070312 -2.894531 4.113281 -2.875 4.15625 -2.875 L 4.078125 -2.796875 L 4.15625 -2.78125 L 4.21875 -2.53125 L 4.25 -2.546875 C 4.3125 -2.378906 4.378906 -2.296875 4.453125 -2.296875 C 4.421875 -2.253906 4.40625 -2.179688 4.40625 -2.078125 C 4.40625 -2.003906 4.414062 -1.9375 4.4375 -1.875 C 4.445312 -1.96875 4.460938 -2.015625 4.484375 -2.015625 C 4.503906 -2.015625 4.515625 -1.984375 4.515625 -1.921875 C 4.523438 -1.867188 4.539062 -1.832031 4.5625 -1.8125 L 4.453125 -1.8125 L 4.515625 -1.765625 C 4.429688 -1.734375 4.390625 -1.671875 4.390625 -1.578125 C 4.390625 -1.566406 4.394531 -1.550781 4.40625 -1.53125 L 4.4375 -1.59375 L 4.453125 -1.515625 C 4.390625 -1.484375 4.359375 -1.460938 4.359375 -1.453125 C 4.359375 -1.453125 4.375 -1.453125 4.40625 -1.453125 L 4.421875 -1.453125 L 4.453125 -1.3125 L 4.40625 -1.28125 L 4.328125 -1.3125 C 4.328125 -1.226562 4.296875 -1.15625 4.234375 -1.09375 L 4.21875 -0.828125 C 4.09375 -0.773438 4.007812 -0.671875 3.96875 -0.515625 C 3.957031 -0.515625 3.929688 -0.5 3.890625 -0.46875 C 3.859375 -0.445312 3.773438 -0.363281 3.640625 -0.21875 C 3.421875 -0.1875 3.304688 -0.15625 3.296875 -0.125 C 3.234375 -0.15625 3.191406 -0.171875 3.171875 -0.171875 C 3.160156 -0.171875 3.15625 -0.164062 3.15625 -0.15625 C 3.15625 -0.144531 3.164062 -0.117188 3.1875 -0.078125 L 2.84375 -0.078125 L 2.734375 -0.171875 C 2.660156 -0.0976562 2.570312 -0.0546875 2.46875 -0.046875 C 2.363281 -0.046875 2.3125 -0.0195312 2.3125 0.03125 C 2.175781 0.0078125 2.078125 -0.03125 2.015625 -0.09375 L 1.84375 0 L 1.953125 -0.171875 C 1.804688 -0.0976562 1.722656 -0.0390625 1.703125 0 L 1.515625 -0.015625 L 1.3125 -0.046875 L 1.15625 -0.09375 L 1.21875 -0.015625 L 1.078125 -0.03125 L 1.078125 0.015625 L 1 -0.015625 L 0.9375 0.03125 L 0.921875 -0.078125 L 0.84375 -0.015625 L 0.578125 -0.046875 L 0.28125 -0.078125 C 0.269531 -0.117188 0.25 -0.144531 0.21875 -0.15625 C 0.195312 -0.164062 0.179688 -0.191406 0.171875 -0.234375 C 0.160156 -0.273438 0.125 -0.304688 0.0625 -0.328125 Z M 1.640625 -3.671875 L 1.6875 -3.765625 L 1.6875 -3.671875 L 1.734375 -3.703125 C 1.804688 -3.660156 1.890625 -3.640625 1.984375 -3.640625 L 2.15625 -3.671875 L 2.1875 -3.5625 L 2.21875 -3.65625 L 2.25 -3.578125 C 2.28125 -3.578125 2.296875 -3.582031 2.296875 -3.59375 C 2.304688 -3.613281 2.316406 -3.628906 2.328125 -3.640625 L 2.328125 -3.59375 L 2.40625 -3.59375 C 2.425781 -3.5625 2.460938 -3.546875 2.515625 -3.546875 L 2.53125 -3.671875 L 2.609375 -3.65625 L 2.671875 -3.6875 C 2.710938 -3.644531 2.769531 -3.625 2.84375 -3.625 C 2.875 -3.625 2.914062 -3.628906 2.96875 -3.640625 L 2.984375 -3.578125 L 3 -3.671875 C 3.0625 -3.691406 3.109375 -3.710938 3.140625 -3.734375 C 3.171875 -3.765625 3.195312 -3.789062 3.21875 -3.8125 C 3.238281 -3.84375 3.253906 -3.863281 3.265625 -3.875 C 3.285156 -3.894531 3.3125 -3.90625 3.34375 -3.90625 C 3.394531 -3.90625 3.425781 -3.957031 3.4375 -4.0625 L 3.453125 -3.921875 C 3.484375 -4.046875 3.535156 -4.109375 3.609375 -4.109375 C 3.628906 -4.109375 3.648438 -4.097656 3.671875 -4.078125 L 3.625 -4.15625 C 3.65625 -4.15625 3.675781 -4.171875 3.6875 -4.203125 C 3.707031 -4.242188 3.75 -4.289062 3.8125 -4.34375 L 3.75 -4.40625 L 3.796875 -4.4375 L 3.765625 -4.78125 C 3.785156 -4.75 3.804688 -4.734375 3.828125 -4.734375 C 3.847656 -4.734375 3.859375 -4.765625 3.859375 -4.828125 L 3.78125 -4.8125 C 3.71875 -4.820312 3.679688 -4.847656 3.671875 -4.890625 C 3.671875 -4.929688 3.65625 -4.988281 3.625 -5.0625 L 3.671875 -5.140625 L 3.6875 -5.21875 L 3.515625 -5.109375 L 3.625 -5.28125 L 3.5625 -5.234375 L 3.453125 -5.296875 L 3.453125 -5.34375 L 3.359375 -5.390625 L 3.375 -5.421875 L 3.359375 -5.484375 L 3.34375 -5.46875 C 3.320312 -5.519531 3.210938 -5.566406 3.015625 -5.609375 L 3.03125 -5.65625 L 2.828125 -5.546875 L 2.765625 -5.453125 C 2.765625 -5.503906 2.722656 -5.53125 2.640625 -5.53125 L 2.640625 -5.625 L 2.421875 -5.609375 L 2.359375 -5.703125 C 2.242188 -5.703125 2.101562 -5.675781 1.9375 -5.625 C 1.769531 -5.570312 1.6875 -5.519531 1.6875 -5.46875 L 1.59375 -5.625 C 1.53125 -5.488281 1.5 -5.378906 1.5 -5.296875 C 1.5 -5.210938 1.53125 -5.164062 1.59375 -5.15625 L 1.53125 -5.03125 L 1.4375 -4.9375 L 1.546875 -4.890625 L 1.59375 -4.734375 C 1.519531 -4.691406 1.484375 -4.632812 1.484375 -4.5625 C 1.484375 -4.519531 1.492188 -4.476562 1.515625 -4.4375 L 1.46875 -4.40625 C 1.457031 -4.3125 1.453125 -4.234375 1.453125 -4.171875 C 1.453125 -4.066406 1.460938 -4.015625 1.484375 -4.015625 C 1.484375 -4.015625 1.492188 -4.03125 1.515625 -4.0625 C 1.535156 -4.007812 1.578125 -3.976562 1.640625 -3.96875 Z M 1.6875 -0.78125 L 1.828125 -0.796875 L 1.890625 -0.75 L 1.90625 -0.8125 C 1.9375 -0.800781 1.960938 -0.796875 1.984375 -0.796875 C 2.023438 -0.796875 2.046875 -0.816406 2.046875 -0.859375 C 2.078125 -0.796875 2.117188 -0.765625 2.171875 -0.765625 C 2.191406 -0.765625 2.21875 -0.769531 2.25 -0.78125 L 2.265625 -0.71875 L 2.328125 -0.84375 L 2.375 -0.78125 L 2.671875 -0.8125 L 2.6875 -0.71875 L 2.71875 -0.859375 L 2.78125 -0.6875 L 2.78125 -0.8125 L 2.875 -0.765625 L 2.890625 -0.6875 L 2.96875 -0.84375 C 2.988281 -0.832031 3.007812 -0.828125 3.03125 -0.828125 C 3.132812 -0.828125 3.242188 -0.859375 3.359375 -0.921875 L 3.546875 -0.875 L 3.546875 -1.015625 L 3.59375 -0.953125 L 3.59375 -1.015625 C 3.71875 -1.023438 3.8125 -1.097656 3.875 -1.234375 L 4.0625 -1.296875 L 3.90625 -1.3125 C 3.957031 -1.320312 3.984375 -1.367188 3.984375 -1.453125 L 4.046875 -1.796875 C 4.109375 -1.816406 4.148438 -1.835938 4.171875 -1.859375 C 4.191406 -1.878906 4.203125 -1.898438 4.203125 -1.921875 C 4.203125 -1.953125 4.203125 -1.984375 4.203125 -2.015625 C 4.203125 -2.054688 4.21875 -2.101562 4.25 -2.15625 L 4.21875 -2.21875 L 4.171875 -2.046875 C 4.148438 -2.117188 4.140625 -2.15625 4.140625 -2.15625 C 4.128906 -2.15625 4.125 -2.144531 4.125 -2.125 C 4.125 -2.09375 4.132812 -2.007812 4.15625 -1.875 C 4.070312 -2.15625 3.957031 -2.382812 3.8125 -2.5625 L 3.84375 -2.59375 L 3.765625 -2.703125 L 3.703125 -2.734375 L 3.75 -2.921875 L 3.703125 -2.96875 L 3.65625 -2.8125 L 3.5625 -2.8125 C 3.539062 -2.851562 3.453125 -2.875 3.296875 -2.875 L 3.296875 -2.9375 L 3.234375 -2.890625 C 3.222656 -2.953125 3.191406 -2.988281 3.140625 -3 C 3.109375 -2.96875 3.082031 -2.953125 3.0625 -2.953125 C 3.050781 -2.953125 3.046875 -2.953125 3.046875 -2.953125 C 3.015625 -2.960938 2.984375 -2.976562 2.953125 -3 C 2.929688 -3.019531 2.914062 -3.03125 2.90625 -3.03125 C 2.894531 -3.03125 2.882812 -3.007812 2.875 -2.96875 L 2.734375 -2.984375 L 2.75 -3.125 L 2.6875 -3 L 2.453125 -3.015625 C 2.429688 -3.054688 2.40625 -3.078125 2.375 -3.078125 C 2.351562 -3.078125 2.332031 -3.066406 2.3125 -3.046875 L 2.265625 -3.09375 L 2.265625 -3.03125 L 2.046875 -2.96875 L 1.96875 -3 C 1.914062 -2.988281 1.890625 -2.960938 1.890625 -2.921875 L 1.78125 -2.96875 C 1.757812 -2.976562 1.742188 -2.984375 1.734375 -2.984375 C 1.722656 -2.984375 1.71875 -2.972656 1.71875 -2.953125 C 1.71875 -2.941406 1.722656 -2.929688 1.734375 -2.921875 L 1.640625 -2.828125 C 1.585938 -2.828125 1.550781 -2.785156 1.53125 -2.703125 L 1.515625 -2.859375 C 1.484375 -2.785156 1.46875 -2.726562 1.46875 -2.6875 C 1.46875 -2.644531 1.484375 -2.625 1.515625 -2.625 C 1.523438 -2.625 1.546875 -2.632812 1.578125 -2.65625 L 1.59375 -2.453125 C 1.5625 -2.390625 1.546875 -2.320312 1.546875 -2.25 C 1.546875 -2.15625 1.59375 -2.078125 1.6875 -2.015625 L 1.671875 -1.890625 L 1.546875 -1.828125 C 1.597656 -1.753906 1.625 -1.691406 1.625 -1.640625 C 1.625 -1.585938 1.609375 -1.539062 1.578125 -1.5 L 1.640625 -1.515625 L 1.625 -1.34375 C 1.625 -1.289062 1.625 -1.238281 1.625 -1.1875 C 1.632812 -1.132812 1.648438 -1.082031 1.671875 -1.03125 L 1.59375 -0.984375 L 1.671875 -0.953125 L 1.59375 -0.90625 L 1.65625 -0.875 Z M 3.96875 -2.25 L 4.109375 -1.875 C 4.085938 -1.863281 4.066406 -1.859375 4.046875 -1.859375 C 3.972656 -1.859375 3.9375 -1.910156 3.9375 -2.015625 C 3.9375 -2.078125 3.945312 -2.15625 3.96875 -2.25 Z M 3.96875 -2.25 "/></g></g></g><g fill="#000000" fill-opacity="1"><g transform="translate(54.809889, 53.976901)"><g><path d="M 2.125 -6.1875 C 2.207031 -6.1875 2.253906 -6.210938 2.265625 -6.265625 L 2.609375 -6.265625 C 2.640625 -6.210938 2.71875 -6.1875 2.84375 -6.1875 L 3.078125 -6.21875 C 3.148438 -6.0625 3.273438 -5.953125 3.453125 -5.890625 L 3.40625 -5.78125 L 3.5625 -5.796875 C 3.5625 -5.722656 3.609375 -5.660156 3.703125 -5.609375 L 3.75 -5.609375 C 3.75 -5.441406 3.796875 -5.335938 3.890625 -5.296875 L 3.890625 -5.265625 C 3.890625 -5.191406 3.945312 -5.140625 4.0625 -5.109375 L 4.078125 -5 C 4.046875 -4.957031 4.03125 -4.914062 4.03125 -4.875 C 4.03125 -4.789062 4.070312 -4.675781 4.15625 -4.53125 L 4.15625 -4.453125 C 4.15625 -4.328125 4.203125 -4.222656 4.296875 -4.140625 L 4.296875 -3.71875 C 4.367188 -3.695312 4.40625 -3.671875 4.40625 -3.640625 C 4.40625 -3.597656 4.382812 -3.554688 4.34375 -3.515625 L 4.40625 -3.4375 L 4.3125 -3.375 L 4.34375 -3.171875 L 4.4375 -3.09375 L 4.46875 -2.90625 C 4.375 -2.75 4.328125 -2.585938 4.328125 -2.421875 L 4.34375 -2.265625 C 4.226562 -2.085938 4.171875 -1.878906 4.171875 -1.640625 L 4.171875 -1.5625 L 4.15625 -1.5625 C 4.0625 -1.5625 4.015625 -1.460938 4.015625 -1.265625 L 4.015625 -1.15625 L 4.203125 -1.171875 L 3.921875 -0.984375 L 3.875 -0.703125 L 3.65625 -0.5625 C 3.425781 -0.164062 3.070312 0.03125 2.59375 0.03125 L 2.21875 0.0625 C 2.03125 0.0625 1.878906 0.03125 1.765625 -0.03125 L 1.671875 -0.015625 C 1.554688 -0.015625 1.5 -0.09375 1.5 -0.25 L 1.34375 -0.234375 C 1.25 -0.234375 1.203125 -0.273438 1.203125 -0.359375 L 1.203125 -0.40625 C 0.804688 -0.644531 0.585938 -1.007812 0.546875 -1.5 C 0.441406 -1.582031 0.390625 -1.695312 0.390625 -1.84375 C 0.390625 -1.945312 0.40625 -2.023438 0.4375 -2.078125 L 0.3125 -2.09375 L 0.3125 -2.5625 L 0.203125 -2.625 C 0.234375 -2.695312 0.25 -2.828125 0.25 -3.015625 L 0.234375 -3.390625 L 0.3125 -3.4375 L 0.28125 -3.8125 C 0.363281 -3.832031 0.40625 -3.875 0.40625 -3.9375 C 0.40625 -3.976562 0.394531 -4.015625 0.375 -4.046875 L 0.46875 -4.390625 L 0.546875 -4.359375 C 0.578125 -4.359375 0.59375 -4.367188 0.59375 -4.390625 C 0.59375 -4.421875 0.566406 -4.472656 0.515625 -4.546875 C 0.609375 -4.585938 0.65625 -4.765625 0.65625 -5.078125 L 0.65625 -5.109375 C 0.75 -5.117188 0.796875 -5.15625 0.796875 -5.21875 L 0.78125 -5.3125 C 0.863281 -5.3125 0.90625 -5.347656 0.90625 -5.421875 L 0.90625 -5.46875 C 0.90625 -5.539062 0.988281 -5.609375 1.15625 -5.671875 L 1.109375 -5.734375 C 1.171875 -5.878906 1.273438 -5.976562 1.421875 -6.03125 L 1.375 -6.140625 L 1.5 -6.109375 C 1.625 -6.109375 1.722656 -6.160156 1.796875 -6.265625 C 1.910156 -6.210938 2.019531 -6.1875 2.125 -6.1875 Z M 2.4375 -5.59375 C 2.375 -5.507812 2.304688 -5.46875 2.234375 -5.46875 C 2.160156 -5.46875 2.085938 -5.503906 2.015625 -5.578125 C 1.898438 -5.523438 1.84375 -5.472656 1.84375 -5.421875 C 1.84375 -5.390625 1.859375 -5.359375 1.890625 -5.328125 C 1.609375 -5.285156 1.441406 -5.125 1.390625 -4.84375 C 1.285156 -4.738281 1.234375 -4.585938 1.234375 -4.390625 L 1.25 -4.1875 L 1.125 -4.09375 L 1.234375 -4.03125 C 1.179688 -3.945312 1.15625 -3.851562 1.15625 -3.75 L 1.15625 -3.671875 C 1.15625 -3.546875 1.101562 -3.472656 1 -3.453125 L 1.109375 -3.15625 L 1.0625 -2.96875 L 1.109375 -2.78125 C 1.097656 -2.75 1.09375 -2.675781 1.09375 -2.5625 C 1.09375 -2.34375 1.15625 -2.128906 1.28125 -1.921875 C 1.300781 -1.617188 1.394531 -1.347656 1.5625 -1.109375 C 1.5625 -1.035156 1.582031 -1 1.625 -1 C 1.664062 -1 1.710938 -1.03125 1.765625 -1.09375 L 1.734375 -0.96875 C 1.734375 -0.9375 1.75 -0.921875 1.78125 -0.921875 L 1.890625 -0.96875 L 1.890625 -0.921875 C 1.890625 -0.773438 1.96875 -0.703125 2.125 -0.703125 C 2.15625 -0.628906 2.210938 -0.59375 2.296875 -0.59375 C 2.378906 -0.59375 2.492188 -0.628906 2.640625 -0.703125 L 2.671875 -0.703125 C 2.785156 -0.703125 2.863281 -0.8125 2.90625 -1.03125 L 2.96875 -1.015625 C 3.019531 -1.015625 3.0625 -1.03125 3.09375 -1.0625 C 3.125 -1.101562 3.148438 -1.148438 3.171875 -1.203125 C 3.203125 -1.265625 3.234375 -1.328125 3.265625 -1.390625 C 3.304688 -1.453125 3.363281 -1.507812 3.4375 -1.5625 L 3.421875 -1.65625 C 3.421875 -1.726562 3.453125 -1.796875 3.515625 -1.859375 L 3.578125 -1.765625 L 3.609375 -1.984375 C 3.609375 -2.085938 3.570312 -2.144531 3.5 -2.15625 C 3.5625 -2.34375 3.601562 -2.515625 3.625 -2.671875 L 3.71875 -2.765625 L 3.75 -2.921875 C 3.75 -3.003906 3.710938 -3.046875 3.640625 -3.046875 L 3.59375 -3.03125 L 3.59375 -3.15625 C 3.675781 -3.175781 3.71875 -3.222656 3.71875 -3.296875 C 3.71875 -3.335938 3.703125 -3.390625 3.671875 -3.453125 C 3.640625 -3.523438 3.625 -3.585938 3.625 -3.640625 C 3.625 -3.679688 3.632812 -3.71875 3.65625 -3.75 C 3.5625 -3.832031 3.515625 -3.929688 3.515625 -4.046875 L 3.53125 -4.21875 C 3.457031 -4.300781 3.421875 -4.410156 3.421875 -4.546875 C 3.421875 -4.628906 3.425781 -4.6875 3.4375 -4.71875 C 3.351562 -4.789062 3.3125 -4.890625 3.3125 -5.015625 L 3.3125 -5.0625 L 3.109375 -5.171875 C 3.160156 -5.203125 3.1875 -5.242188 3.1875 -5.296875 C 3.1875 -5.347656 3.160156 -5.398438 3.109375 -5.453125 L 3.046875 -5.25 C 3.003906 -5.351562 2.957031 -5.40625 2.90625 -5.40625 L 2.84375 -5.375 L 2.828125 -5.46875 L 2.765625 -5.46875 C 2.691406 -5.46875 2.640625 -5.507812 2.609375 -5.59375 Z M 2.4375 -5.59375 "/></g></g></g><g fill="#000000" fill-opacity="1"><g transform="translate(59.398951, 53.976901)"><g><path d="M 2.125 -6.1875 C 2.207031 -6.1875 2.253906 -6.210938 2.265625 -6.265625 L 2.609375 -6.265625 C 2.640625 -6.210938 2.71875 -6.1875 2.84375 -6.1875 L 3.078125 -6.21875 C 3.148438 -6.0625 3.273438 -5.953125 3.453125 -5.890625 L 3.40625 -5.78125 L 3.5625 -5.796875 C 3.5625 -5.722656 3.609375 -5.660156 3.703125 -5.609375 L 3.75 -5.609375 C 3.75 -5.441406 3.796875 -5.335938 3.890625 -5.296875 L 3.890625 -5.265625 C 3.890625 -5.191406 3.945312 -5.140625 4.0625 -5.109375 L 4.078125 -5 C 4.046875 -4.957031 4.03125 -4.914062 4.03125 -4.875 C 4.03125 -4.789062 4.070312 -4.675781 4.15625 -4.53125 L 4.15625 -4.453125 C 4.15625 -4.328125 4.203125 -4.222656 4.296875 -4.140625 L 4.296875 -3.71875 C 4.367188 -3.695312 4.40625 -3.671875 4.40625 -3.640625 C 4.40625 -3.597656 4.382812 -3.554688 4.34375 -3.515625 L 4.40625 -3.4375 L 4.3125 -3.375 L 4.34375 -3.171875 L 4.4375 -3.09375 L 4.46875 -2.90625 C 4.375 -2.75 4.328125 -2.585938 4.328125 -2.421875 L 4.34375 -2.265625 C 4.226562 -2.085938 4.171875 -1.878906 4.171875 -1.640625 L 4.171875 -1.5625 L 4.15625 -1.5625 C 4.0625 -1.5625 4.015625 -1.460938 4.015625 -1.265625 L 4.015625 -1.15625 L 4.203125 -1.171875 L 3.921875 -0.984375 L 3.875 -0.703125 L 3.65625 -0.5625 C 3.425781 -0.164062 3.070312 0.03125 2.59375 0.03125 L 2.21875 0.0625 C 2.03125 0.0625 1.878906 0.03125 1.765625 -0.03125 L 1.671875 -0.015625 C 1.554688 -0.015625 1.5 -0.09375 1.5 -0.25 L 1.34375 -0.234375 C 1.25 -0.234375 1.203125 -0.273438 1.203125 -0.359375 L 1.203125 -0.40625 C 0.804688 -0.644531 0.585938 -1.007812 0.546875 -1.5 C 0.441406 -1.582031 0.390625 -1.695312 0.390625 -1.84375 C 0.390625 -1.945312 0.40625 -2.023438 0.4375 -2.078125 L 0.3125 -2.09375 L 0.3125 -2.5625 L 0.203125 -2.625 C 0.234375 -2.695312 0.25 -2.828125 0.25 -3.015625 L 0.234375 -3.390625 L 0.3125 -3.4375 L 0.28125 -3.8125 C 0.363281 -3.832031 0.40625 -3.875 0.40625 -3.9375 C 0.40625 -3.976562 0.394531 -4.015625 0.375 -4.046875 L 0.46875 -4.390625 L 0.546875 -4.359375 C 0.578125 -4.359375 0.59375 -4.367188 0.59375 -4.390625 C 0.59375 -4.421875 0.566406 -4.472656 0.515625 -4.546875 C 0.609375 -4.585938 0.65625 -4.765625 0.65625 -5.078125 L 0.65625 -5.109375 C 0.75 -5.117188 0.796875 -5.15625 0.796875 -5.21875 L 0.78125 -5.3125 C 0.863281 -5.3125 0.90625 -5.347656 0.90625 -5.421875 L 0.90625 -5.46875 C 0.90625 -5.539062 0.988281 -5.609375 1.15625 -5.671875 L 1.109375 -5.734375 C 1.171875 -5.878906 1.273438 -5.976562 1.421875 -6.03125 L 1.375 -6.140625 L 1.5 -6.109375 C 1.625 -6.109375 1.722656 -6.160156 1.796875 -6.265625 C 1.910156 -6.210938 2.019531 -6.1875 2.125 -6.1875 Z M 2.4375 -5.59375 C 2.375 -5.507812 2.304688 -5.46875 2.234375 -5.46875 C 2.160156 -5.46875 2.085938 -5.503906 2.015625 -5.578125 C 1.898438 -5.523438 1.84375 -5.472656 1.84375 -5.421875 C 1.84375 -5.390625 1.859375 -5.359375 1.890625 -5.328125 C 1.609375 -5.285156 1.441406 -5.125 1.390625 -4.84375 C 1.285156 -4.738281 1.234375 -4.585938 1.234375 -4.390625 L 1.25 -4.1875 L 1.125 -4.09375 L 1.234375 -4.03125 C 1.179688 -3.945312 1.15625 -3.851562 1.15625 -3.75 L 1.15625 -3.671875 C 1.15625 -3.546875 1.101562 -3.472656 1 -3.453125 L 1.109375 -3.15625 L 1.0625 -2.96875 L 1.109375 -2.78125 C 1.097656 -2.75 1.09375 -2.675781 1.09375 -2.5625 C 1.09375 -2.34375 1.15625 -2.128906 1.28125 -1.921875 C 1.300781 -1.617188 1.394531 -1.347656 1.5625 -1.109375 C 1.5625 -1.035156 1.582031 -1 1.625 -1 C 1.664062 -1 1.710938 -1.03125 1.765625 -1.09375 L 1.734375 -0.96875 C 1.734375 -0.9375 1.75 -0.921875 1.78125 -0.921875 L 1.890625 -0.96875 L 1.890625 -0.921875 C 1.890625 -0.773438 1.96875 -0.703125 2.125 -0.703125 C 2.15625 -0.628906 2.210938 -0.59375 2.296875 -0.59375 C 2.378906 -0.59375 2.492188 -0.628906 2.640625 -0.703125 L 2.671875 -0.703125 C 2.785156 -0.703125 2.863281 -0.8125 2.90625 -1.03125 L 2.96875 -1.015625 C 3.019531 -1.015625 3.0625 -1.03125 3.09375 -1.0625 C 3.125 -1.101562 3.148438 -1.148438 3.171875 -1.203125 C 3.203125 -1.265625 3.234375 -1.328125 3.265625 -1.390625 C 3.304688 -1.453125 3.363281 -1.507812 3.4375 -1.5625 L 3.421875 -1.65625 C 3.421875 -1.726562 3.453125 -1.796875 3.515625 -1.859375 L 3.578125 -1.765625 L 3.609375 -1.984375 C 3.609375 -2.085938 3.570312 -2.144531 3.5 -2.15625 C 3.5625 -2.34375 3.601562 -2.515625 3.625 -2.671875 L 3.71875 -2.765625 L 3.75 -2.921875 C 3.75 -3.003906 3.710938 -3.046875 3.640625 -3.046875 L 3.59375 -3.03125 L 3.59375 -3.15625 C 3.675781 -3.175781 3.71875 -3.222656 3.71875 -3.296875 C 3.71875 -3.335938 3.703125 -3.390625 3.671875 -3.453125 C 3.640625 -3.523438 3.625 -3.585938 3.625 -3.640625 C 3.625 -3.679688 3.632812 -3.71875 3.65625 -3.75 C 3.5625 -3.832031 3.515625 -3.929688 3.515625 -4.046875 L 3.53125 -4.21875 C 3.457031 -4.300781 3.421875 -4.410156 3.421875 -4.546875 C 3.421875 -4.628906 3.425781 -4.6875 3.4375 -4.71875 C 3.351562 -4.789062 3.3125 -4.890625 3.3125 -5.015625 L 3.3125 -5.0625 L 3.109375 -5.171875 C 3.160156 -5.203125 3.1875 -5.242188 3.1875 -5.296875 C 3.1875 -5.347656 3.160156 -5.398438 3.109375 -5.453125 L 3.046875 -5.25 C 3.003906 -5.351562 2.957031 -5.40625 2.90625 -5.40625 L 2.84375 -5.375 L 2.828125 -5.46875 L 2.765625 -5.46875 C 2.691406 -5.46875 2.640625 -5.507812 2.609375 -5.59375 Z M 2.4375 -5.59375 "/></g></g></g><g fill="#000000" fill-opacity="1"><g transform="translate(63.988013, 53.976901)"><g><path d="M 0.734375 -1.59375 L 0.78125 -1.390625 L 0.71875 -1.421875 Z M 0.3125 -0.65625 L 0.375 -0.640625 L 0.375 -0.703125 L 0.5625 -0.828125 L 0.5625 -0.71875 L 0.640625 -0.734375 L 0.59375 -0.75 L 0.6875 -0.890625 L 0.625 -0.859375 L 0.65625 -0.921875 C 0.4375 -0.828125 0.320312 -0.738281 0.3125 -0.65625 Z M 1.609375 -2.9375 L 1.625 -2.8125 L 1.671875 -3 L 1.6875 -2.5 L 1.625 -2.6875 L 1.65625 -2.421875 L 1.734375 -2.53125 L 1.703125 -2.53125 L 1.90625 -2.703125 C 1.894531 -2.878906 1.878906 -2.984375 1.859375 -3.015625 L 1.65625 -3.03125 Z M 1.6875 -4.171875 L 1.703125 -4.21875 C 1.785156 -4.195312 1.828125 -4.148438 1.828125 -4.078125 C 1.828125 -4.046875 1.851562 -4.03125 1.90625 -4.03125 C 2.144531 -4.175781 2.300781 -4.363281 2.375 -4.59375 C 2.40625 -4.789062 2.5 -4.890625 2.65625 -4.890625 C 2.789062 -4.953125 2.898438 -5.117188 2.984375 -5.390625 C 2.992188 -5.410156 3.003906 -5.476562 3.015625 -5.59375 L 2.96875 -5.734375 L 3.015625 -5.796875 L 3.015625 -5.9375 L 2.90625 -5.8125 L 2.96875 -5.9375 L 2.96875 -6.03125 C 2.96875 -6.039062 2.984375 -6.050781 3.015625 -6.0625 L 3.109375 -6.0625 C 3.203125 -6.113281 3.289062 -6.144531 3.375 -6.15625 L 3.296875 -6.203125 L 3.5 -6.171875 C 3.5625 -6.179688 3.601562 -6.21875 3.625 -6.28125 L 3.671875 -6.171875 L 3.734375 -6.28125 C 3.847656 -6.269531 3.921875 -6.226562 3.953125 -6.15625 C 4.066406 -6.144531 4.125 -6.132812 4.125 -6.125 L 4.1875 -6.140625 L 4.203125 -6.265625 L 4.21875 -6.140625 C 4.363281 -6.140625 4.4375 -6.101562 4.4375 -6.03125 C 4.457031 -6.019531 4.46875 -5.992188 4.46875 -5.953125 L 4.4375 -5.84375 L 4.46875 -5.84375 C 4.46875 -5.757812 4.378906 -5.71875 4.203125 -5.71875 C 4.191406 -5.6875 4.140625 -5.65625 4.046875 -5.625 L 3.9375 -5.5 L 3.953125 -5.625 L 3.890625 -5.484375 L 3.75 -5.5 L 3.828125 -5.453125 L 3.734375 -5.375 L 3.71875 -5.40625 L 3.578125 -5.328125 L 3.5625 -5.375 C 3.5 -5.375 3.414062 -5.238281 3.3125 -4.96875 C 3.3125 -4.90625 3.300781 -4.84375 3.28125 -4.78125 C 3.289062 -4.757812 3.296875 -4.738281 3.296875 -4.71875 L 3.203125 -4.59375 L 3.3125 -4.625 C 3.300781 -4.53125 3.257812 -4.484375 3.1875 -4.484375 L 3.046875 -4.484375 C 2.972656 -4.460938 2.9375 -4.421875 2.9375 -4.359375 C 2.9375 -4.265625 2.941406 -4.207031 2.953125 -4.1875 C 2.953125 -4.101562 2.898438 -4 2.796875 -3.875 C 2.785156 -3.84375 2.78125 -3.796875 2.78125 -3.734375 L 2.90625 -3.703125 L 2.78125 -3.703125 C 2.78125 -3.597656 2.816406 -3.476562 2.890625 -3.34375 L 2.78125 -3.3125 L 2.890625 -3.28125 C 2.890625 -3.257812 2.875 -3.203125 2.84375 -3.109375 C 2.9375 -2.878906 3.003906 -2.765625 3.046875 -2.765625 C 3.210938 -2.703125 3.296875 -2.546875 3.296875 -2.296875 C 3.296875 -2.148438 3.34375 -2.046875 3.4375 -1.984375 C 3.46875 -1.785156 3.507812 -1.6875 3.5625 -1.6875 C 3.625 -1.53125 3.738281 -1.375 3.90625 -1.21875 C 3.976562 -1.15625 4.015625 -1.039062 4.015625 -0.875 C 4.015625 -0.789062 4.15625 -0.75 4.4375 -0.75 C 4.582031 -0.644531 4.65625 -0.507812 4.65625 -0.34375 L 4.65625 -0.203125 C 4.65625 -0.148438 4.59375 -0.125 4.46875 -0.125 L 4.3125 -0.1875 L 4.359375 -0.125 C 4.117188 -0.144531 3.988281 -0.15625 3.96875 -0.15625 L 3.984375 -0.25 L 3.921875 -0.15625 C 3.742188 -0.15625 3.609375 -0.109375 3.515625 -0.015625 C 3.441406 0.015625 3.382812 0.03125 3.34375 0.03125 C 3.019531 0.03125 2.859375 -0.0078125 2.859375 -0.09375 L 2.953125 -0.140625 L 2.859375 -0.15625 C 2.878906 -0.351562 2.894531 -0.535156 2.90625 -0.703125 C 2.925781 -0.742188 3.003906 -0.765625 3.140625 -0.765625 L 3.40625 -0.5625 L 3.265625 -0.765625 C 3.347656 -0.773438 3.390625 -0.804688 3.390625 -0.859375 C 3.390625 -0.921875 3.289062 -1.03125 3.09375 -1.1875 C 3.070312 -1.226562 3.050781 -1.375 3.03125 -1.625 C 2.90625 -1.84375 2.828125 -1.953125 2.796875 -1.953125 C 2.640625 -1.953125 2.5625 -1.984375 2.5625 -2.046875 C 2.53125 -2.203125 2.453125 -2.421875 2.328125 -2.703125 C 2.171875 -2.898438 2.066406 -3 2.015625 -3 C 1.972656 -3 1.945312 -2.898438 1.9375 -2.703125 L 1.65625 -2.359375 C 1.65625 -2.328125 1.648438 -2.304688 1.640625 -2.296875 C 1.660156 -2.210938 1.671875 -2.140625 1.671875 -2.078125 L 1.671875 -2.046875 C 1.648438 -1.929688 1.640625 -1.867188 1.640625 -1.859375 L 1.640625 -1.8125 C 1.640625 -1.695312 1.644531 -1.535156 1.65625 -1.328125 C 1.570312 -1.191406 1.53125 -1.109375 1.53125 -1.078125 C 1.53125 -1.003906 1.648438 -0.898438 1.890625 -0.765625 C 2.078125 -0.765625 2.171875 -0.703125 2.171875 -0.578125 C 2.171875 -0.523438 2.210938 -0.453125 2.296875 -0.359375 L 2.296875 -0.234375 C 2.296875 -0.117188 2.207031 -0.0625 2.03125 -0.0625 C 1.882812 0.0625 1.773438 0.125 1.703125 0.125 L 1.671875 0.125 L 1.421875 0.03125 L 1.390625 0.03125 C 1.015625 0.0390625 0.753906 0.046875 0.609375 0.046875 C 0.253906 0.046875 0.078125 0 0.078125 -0.09375 C 0.078125 -0.144531 0.0664062 -0.171875 0.046875 -0.171875 C 0.046875 -0.390625 0.117188 -0.550781 0.265625 -0.65625 C 0.285156 -0.738281 0.359375 -0.804688 0.484375 -0.859375 C 0.609375 -0.921875 0.679688 -0.972656 0.703125 -1.015625 C 0.722656 -1.054688 0.734375 -1.125 0.734375 -1.21875 L 0.703125 -1.40625 L 0.796875 -1.375 L 0.734375 -1.578125 L 0.734375 -1.703125 C 0.734375 -1.785156 0.769531 -1.878906 0.84375 -1.984375 C 0.863281 -2.046875 0.875 -2.117188 0.875 -2.203125 L 0.859375 -2.203125 L 0.84375 -2.5625 L 0.875 -2.5625 L 0.875 -2.734375 L 0.890625 -2.703125 L 0.90625 -2.828125 L 0.875 -2.8125 L 0.875 -2.90625 L 0.90625 -3.109375 L 0.828125 -3.21875 L 0.921875 -3.203125 L 0.9375 -3.296875 L 0.859375 -3.25 L 0.875 -3.609375 L 0.875 -3.765625 L 0.796875 -4.078125 L 0.875 -3.921875 C 0.875 -4.128906 0.914062 -4.273438 1 -4.359375 C 0.914062 -4.472656 0.875 -4.597656 0.875 -4.734375 L 0.875 -4.890625 L 0.84375 -4.984375 L 0.875 -4.953125 L 0.875 -5.03125 L 0.984375 -5.140625 L 0.875 -5.1875 L 0.875 -5.34375 C 0.875 -5.488281 0.769531 -5.5625 0.5625 -5.5625 C 0.4375 -5.5625 0.375 -5.625 0.375 -5.75 L 0.5625 -5.78125 L 0.375 -5.796875 C 0.375 -5.878906 0.421875 -5.972656 0.515625 -6.078125 C 0.535156 -6.242188 0.59375 -6.328125 0.6875 -6.328125 L 0.734375 -6.328125 C 0.753906 -6.328125 0.835938 -6.289062 0.984375 -6.21875 C 1.171875 -6.21875 1.269531 -6.210938 1.28125 -6.203125 C 1.394531 -6.273438 1.46875 -6.3125 1.5 -6.3125 C 1.539062 -6.320312 1.585938 -6.328125 1.640625 -6.328125 L 1.65625 -6.234375 L 1.671875 -6.328125 C 1.710938 -6.328125 1.78125 -6.269531 1.875 -6.15625 C 1.945312 -6.15625 2.003906 -6.125 2.046875 -6.0625 L 2.046875 -5.953125 C 1.984375 -5.867188 1.9375 -5.769531 1.90625 -5.65625 C 1.832031 -5.582031 1.757812 -5.546875 1.6875 -5.546875 L 1.5625 -5.5625 C 1.488281 -5.539062 1.453125 -5.503906 1.453125 -5.453125 C 1.453125 -5.296875 1.460938 -5.132812 1.484375 -4.96875 L 1.484375 -4.90625 L 1.640625 -4.65625 L 1.46875 -4.828125 L 1.453125 -4.671875 L 1.515625 -4.734375 C 1.503906 -4.628906 1.488281 -4.507812 1.46875 -4.375 L 1.453125 -4.390625 L 1.453125 -4.28125 L 1.4375 -4.171875 C 1.4375 -4.109375 1.472656 -4.0625 1.546875 -4.03125 C 1.578125 -4.15625 1.617188 -4.21875 1.671875 -4.21875 L 1.671875 -4.171875 C 1.648438 -4.171875 1.632812 -4.164062 1.625 -4.15625 C 1.613281 -4.113281 1.609375 -4.082031 1.609375 -4.0625 C 1.609375 -3.988281 1.597656 -3.882812 1.578125 -3.75 L 1.640625 -4.015625 C 1.660156 -4.003906 1.675781 -4 1.6875 -4 C 1.707031 -4 1.726562 -4 1.75 -4 C 1.769531 -4.007812 1.78125 -4.039062 1.78125 -4.09375 C 1.78125 -4.113281 1.769531 -4.132812 1.75 -4.15625 C 1.726562 -4.164062 1.707031 -4.171875 1.6875 -4.171875 Z M 3.015625 -4.4375 L 3.109375 -4.453125 L 3.046875 -4.3125 C 3.023438 -4.269531 3 -4.222656 2.96875 -4.171875 C 2.957031 -4.234375 2.953125 -4.285156 2.953125 -4.328125 C 2.953125 -4.390625 2.972656 -4.425781 3.015625 -4.4375 Z M 1.546875 -6.390625 L 1.28125 -6.21875 L 0.984375 -6.25 L 0.859375 -6.3125 L 1.3125 -6.296875 Z M 1.546875 -6.390625 "/></g></g></g><g fill="#000000" fill-opacity="1"><g transform="translate(68.577075, 53.976901)"><g><path d="M 0.359375 0.015625 C 0.347656 -0.109375 0.300781 -0.210938 0.21875 -0.296875 C 0.25 -0.398438 0.265625 -0.507812 0.265625 -0.625 C 0.265625 -0.675781 0.257812 -0.726562 0.25 -0.78125 C 0.25 -0.832031 0.242188 -0.890625 0.234375 -0.953125 C 0.273438 -0.992188 0.296875 -1.039062 0.296875 -1.09375 C 0.296875 -1.132812 0.285156 -1.171875 0.265625 -1.203125 C 0.304688 -1.210938 0.328125 -1.253906 0.328125 -1.328125 L 0.3125 -1.4375 L 0.203125 -1.375 C 0.253906 -1.476562 0.28125 -1.585938 0.28125 -1.703125 L 0.21875 -1.984375 L 0.328125 -2 C 0.390625 -2 0.441406 -1.976562 0.484375 -1.9375 C 0.523438 -1.988281 0.578125 -2.015625 0.640625 -2.015625 C 0.660156 -2.015625 0.675781 -2.003906 0.6875 -1.984375 C 0.707031 -1.972656 0.722656 -1.953125 0.734375 -1.921875 C 0.753906 -1.898438 0.773438 -1.878906 0.796875 -1.859375 C 0.828125 -1.835938 0.863281 -1.828125 0.90625 -1.828125 C 0.957031 -1.535156 1.144531 -1.320312 1.46875 -1.1875 C 1.550781 -1.019531 1.644531 -0.9375 1.75 -0.9375 C 1.757812 -0.9375 1.773438 -0.9375 1.796875 -0.9375 L 1.796875 -0.90625 C 1.847656 -0.90625 1.894531 -0.894531 1.9375 -0.875 C 1.976562 -0.851562 2.015625 -0.828125 2.046875 -0.796875 C 2.078125 -0.773438 2.113281 -0.753906 2.15625 -0.734375 C 2.195312 -0.710938 2.25 -0.703125 2.3125 -0.703125 C 2.394531 -0.703125 2.503906 -0.722656 2.640625 -0.765625 C 2.691406 -0.722656 2.734375 -0.703125 2.765625 -0.703125 C 2.796875 -0.703125 2.8125 -0.726562 2.8125 -0.78125 L 2.796875 -0.875 L 2.84375 -0.875 C 3.207031 -0.875 3.5 -1.097656 3.71875 -1.546875 C 3.6875 -1.585938 3.671875 -1.632812 3.671875 -1.6875 C 3.671875 -1.757812 3.703125 -1.835938 3.765625 -1.921875 L 3.625 -2.015625 C 3.664062 -2.066406 3.6875 -2.117188 3.6875 -2.171875 C 3.6875 -2.273438 3.585938 -2.351562 3.390625 -2.40625 L 3.390625 -2.5625 C 3.367188 -2.5625 3.34375 -2.5625 3.3125 -2.5625 C 3.238281 -2.5625 3.164062 -2.585938 3.09375 -2.640625 L 2.96875 -2.703125 L 2.875 -2.640625 L 2.84375 -2.65625 C 2.84375 -2.71875 2.796875 -2.75 2.703125 -2.75 L 2.671875 -2.75 L 2.671875 -2.734375 C 2.671875 -2.703125 2.660156 -2.6875 2.640625 -2.6875 C 2.617188 -2.6875 2.566406 -2.71875 2.484375 -2.78125 L 2.421875 -2.75 L 2.34375 -2.890625 L 1.953125 -2.953125 L 2.03125 -2.828125 L 1.765625 -2.9375 L 1.6875 -2.875 L 1.65625 -2.984375 C 1.601562 -2.992188 1.578125 -3.007812 1.578125 -3.03125 L 1.59375 -3.046875 L 1.390625 -3.046875 C 1.273438 -3.273438 1.09375 -3.410156 0.84375 -3.453125 L 0.8125 -3.625 L 0.734375 -3.53125 L 0.6875 -3.71875 L 0.5625 -3.65625 L 0.578125 -3.859375 L 0.5 -3.78125 L 0.515625 -3.84375 C 0.515625 -3.914062 0.46875 -3.957031 0.375 -3.96875 C 0.40625 -3.988281 0.421875 -4.007812 0.421875 -4.03125 C 0.421875 -4.0625 0.398438 -4.097656 0.359375 -4.140625 L 0.28125 -4.390625 L 0.328125 -4.390625 C 0.285156 -4.484375 0.265625 -4.59375 0.265625 -4.71875 L 0.296875 -4.875 C 0.328125 -4.875 0.34375 -4.890625 0.34375 -4.921875 C 0.34375 -4.953125 0.316406 -5 0.265625 -5.0625 L 0.4375 -5.15625 L 0.40625 -5.265625 C 0.40625 -5.316406 0.421875 -5.375 0.453125 -5.4375 C 0.628906 -5.488281 0.773438 -5.613281 0.890625 -5.8125 L 1.09375 -5.8125 C 1.113281 -5.925781 1.1875 -5.988281 1.3125 -6 L 1.265625 -6.046875 L 1.375 -6.125 L 1.6875 -6.09375 L 1.6875 -6.171875 L 1.96875 -6.09375 C 2 -6.101562 2.015625 -6.117188 2.015625 -6.140625 C 2.015625 -6.160156 2 -6.1875 1.96875 -6.21875 L 2.09375 -6.203125 C 2.164062 -6.203125 2.234375 -6.222656 2.296875 -6.265625 C 2.367188 -6.140625 2.492188 -6.078125 2.671875 -6.078125 L 2.84375 -6.09375 C 2.851562 -6.03125 2.882812 -5.988281 2.9375 -5.96875 C 3 -5.945312 3.0625 -5.925781 3.125 -5.90625 C 3.1875 -5.894531 3.25 -5.875 3.3125 -5.84375 C 3.375 -5.8125 3.421875 -5.757812 3.453125 -5.6875 C 3.515625 -5.550781 3.59375 -5.46875 3.6875 -5.4375 C 3.75 -5.539062 3.78125 -5.679688 3.78125 -5.859375 C 3.820312 -5.867188 3.84375 -5.882812 3.84375 -5.90625 C 3.84375 -5.925781 3.816406 -5.957031 3.765625 -6 C 3.847656 -6.0625 3.941406 -6.09375 4.046875 -6.09375 L 4.125 -6.09375 C 4.132812 -5.957031 4.191406 -5.882812 4.296875 -5.875 L 4.296875 -5.765625 C 4.210938 -5.597656 4.171875 -5.421875 4.171875 -5.234375 C 4.171875 -5.054688 4.207031 -4.875 4.28125 -4.6875 L 4.28125 -4.5625 L 4.09375 -4.25 L 3.828125 -4.390625 C 3.835938 -4.398438 3.84375 -4.425781 3.84375 -4.46875 C 3.84375 -4.644531 3.773438 -4.78125 3.640625 -4.875 C 3.640625 -5.132812 3.488281 -5.289062 3.1875 -5.34375 C 2.988281 -5.46875 2.757812 -5.53125 2.5 -5.53125 L 2.265625 -5.515625 C 2.210938 -5.609375 2.144531 -5.65625 2.0625 -5.65625 L 1.96875 -5.609375 C 2.0625 -5.609375 2.132812 -5.570312 2.1875 -5.5 L 1.96875 -5.46875 C 1.851562 -5.46875 1.742188 -5.492188 1.640625 -5.546875 L 1.65625 -5.375 C 1.570312 -5.363281 1.53125 -5.347656 1.53125 -5.328125 L 1.578125 -5.234375 C 1.578125 -5.210938 1.5625 -5.195312 1.53125 -5.1875 C 1.5 -5.175781 1.460938 -5.164062 1.421875 -5.15625 C 1.378906 -5.144531 1.34375 -5.128906 1.3125 -5.109375 C 1.28125 -5.085938 1.265625 -5.050781 1.265625 -5 L 1.28125 -4.90625 C 1.132812 -4.8125 1.0625 -4.664062 1.0625 -4.46875 C 1.0625 -4.332031 1.078125 -4.226562 1.109375 -4.15625 C 1.253906 -4.101562 1.390625 -3.988281 1.515625 -3.8125 L 1.6875 -3.859375 C 1.757812 -3.859375 1.84375 -3.835938 1.9375 -3.796875 L 1.9375 -3.71875 L 1.765625 -3.734375 C 1.710938 -3.734375 1.6875 -3.726562 1.6875 -3.71875 L 1.78125 -3.640625 C 1.925781 -3.679688 2.0625 -3.703125 2.1875 -3.703125 C 2.425781 -3.703125 2.632812 -3.628906 2.8125 -3.484375 L 3.265625 -3.484375 L 3.25 -3.390625 L 3.40625 -3.40625 C 3.601562 -3.40625 3.722656 -3.316406 3.765625 -3.140625 L 3.828125 -3.15625 C 3.890625 -3.15625 3.921875 -3.113281 3.921875 -3.03125 L 3.921875 -2.984375 C 4.015625 -2.878906 4.128906 -2.828125 4.265625 -2.828125 C 4.304688 -2.785156 4.328125 -2.738281 4.328125 -2.6875 C 4.304688 -2.632812 4.296875 -2.59375 4.296875 -2.5625 C 4.429688 -2.375 4.5 -2.207031 4.5 -2.0625 C 4.5 -1.96875 4.472656 -1.882812 4.421875 -1.8125 L 4.4375 -1.484375 L 4.5625 -1.484375 C 4.394531 -1.242188 4.3125 -1.007812 4.3125 -0.78125 L 4.34375 -0.78125 L 4.328125 -0.6875 L 4.25 -0.578125 L 4.15625 -0.625 C 4.101562 -0.625 4.078125 -0.566406 4.078125 -0.453125 L 4.078125 -0.421875 C 3.992188 -0.410156 3.929688 -0.382812 3.890625 -0.34375 C 3.847656 -0.3125 3.804688 -0.273438 3.765625 -0.234375 C 3.722656 -0.191406 3.675781 -0.15625 3.625 -0.125 C 3.570312 -0.09375 3.492188 -0.078125 3.390625 -0.078125 L 3.390625 0.03125 C 3.171875 -0.0507812 2.941406 -0.09375 2.703125 -0.09375 C 2.648438 -0.09375 2.601562 -0.0859375 2.5625 -0.078125 C 2.519531 -0.0664062 2.476562 -0.0507812 2.4375 -0.03125 C 2.394531 -0.0195312 2.351562 -0.0078125 2.3125 0 C 2.269531 0.0195312 2.21875 0.03125 2.15625 0.03125 C 2.039062 0.03125 1.898438 0.00390625 1.734375 -0.046875 C 1.734375 -0.148438 1.679688 -0.203125 1.578125 -0.203125 L 1.390625 -0.171875 C 1.359375 -0.304688 1.238281 -0.40625 1.03125 -0.46875 C 0.976562 -0.195312 0.863281 -0.0625 0.6875 -0.0625 L 0.640625 -0.0625 L 0.609375 0.015625 Z M 1.6875 -5.625 L 1.75 -5.578125 C 1.757812 -5.609375 1.789062 -5.644531 1.84375 -5.6875 Z M 1.6875 -5.625 "/></g></g></g><g fill="#000000" fill-opacity="1"><g transform="translate(62.015052, 104.138696)"><g><path d="M 0.546875 -4.078125 L 0.421875 -5.890625 L 1.109375 -5.890625 L 0.96875 -4.078125 Z M 0.546875 -4.078125 "/></g></g></g><g fill="#000000" fill-opacity="1"><g transform="translate(63.430449, 104.138696)"><g><path d="M 0.703125 0 L 0.703125 -5.890625 L 1.6875 -5.890625 L 4.3125 -1.15625 L 4.3125 -5.890625 L 5.046875 -5.890625 L 5.046875 0 L 4.1875 0 L 1.59375 -4.65625 L 1.421875 -4.65625 L 1.421875 0 Z M 0.703125 0 "/></g></g></g><g fill="#000000" fill-opacity="1"><g transform="translate(69.060183, 104.138696)"><g/></g></g><g fill="#000000" fill-opacity="1"><g transform="translate(70.723482, 104.138696)"><g><path d="M 1.390625 0 L 0.546875 -0.84375 L 0.546875 -5.0625 L 1.390625 -5.890625 L 4.046875 -5.890625 L 4.859375 -5.078125 L 4.40625 -4.609375 L 3.765625 -5.25 L 1.71875 -5.25 L 1.265625 -4.8125 L 1.265625 -1.09375 L 1.71875 -0.640625 L 3.828125 -0.640625 L 4.46875 -1.296875 L 4.9375 -0.828125 L 4.109375 0 Z M 1.390625 0 "/></g></g></g><g fill="#000000" fill-opacity="1"><g transform="translate(75.785442, 104.138696)"><g><path d="M 1.390625 0 L 0.546875 -0.84375 L 0.546875 -5.0625 L 1.390625 -5.890625 L 4.171875 -5.890625 L 5.015625 -5.0625 L 5.015625 -0.84375 L 4.171875 0 Z M 1.71875 -0.640625 L 3.84375 -0.640625 L 4.28125 -1.09375 L 4.28125 -4.8125 L 3.84375 -5.25 L 1.71875 -5.25 L 1.265625 -4.8125 L 1.265625 -1.09375 Z M 1.71875 -0.640625 "/></g></g></g><g fill="#000000" fill-opacity="1"><g transform="translate(81.223253, 104.138696)"><g><path d="M 0.703125 0 L 0.703125 -5.890625 L 1.6875 -5.890625 L 3.546875 -1.1875 L 5.40625 -5.890625 L 6.40625 -5.890625 L 6.40625 0 L 5.671875 0 L 5.671875 -4.78125 L 3.75 0 L 3.34375 0 L 1.421875 -4.78125 L 1.421875 0 Z M 0.703125 0 "/></g></g></g><g fill="#000000" fill-opacity="1"><g transform="translate(88.204456, 104.138696)"><g><path d="M 0.703125 0 L 0.703125 -5.890625 L 1.6875 -5.890625 L 3.546875 -1.1875 L 5.40625 -5.890625 L 6.40625 -5.890625 L 6.40625 0 L 5.671875 0 L 5.671875 -4.78125 L 3.75 0 L 3.34375 0 L 1.421875 -4.78125 L 1.421875 0 Z M 0.703125 0 "/></g></g></g><g fill="#000000" fill-opacity="1"><g transform="translate(95.185658, 104.138696)"><g><path d="M 1.390625 0 L 0.546875 -0.84375 L 0.546875 -5.0625 L 1.390625 -5.890625 L 4.171875 -5.890625 L 5.015625 -5.0625 L 5.015625 -0.84375 L 4.171875 0 Z M 1.71875 -0.640625 L 3.84375 -0.640625 L 4.28125 -1.09375 L 4.28125 -4.8125 L 3.84375 -5.25 L 1.71875 -5.25 L 1.265625 -4.8125 L 1.265625 -1.09375 Z M 1.71875 -0.640625 "/></g></g></g><g fill="#000000" fill-opacity="1"><g transform="translate(100.623469, 104.138696)"><g><path d="M 0.703125 0 L 0.703125 -5.890625 L 1.6875 -5.890625 L 4.3125 -1.15625 L 4.3125 -5.890625 L 5.046875 -5.890625 L 5.046875 0 L 4.1875 0 L 1.59375 -4.65625 L 1.421875 -4.65625 L 1.421875 0 Z M 0.703125 0 "/></g></g></g></svg>