<svg xmlns="http://www.w3.org/2000/svg" xmlns:xlink="http://www.w3.org/1999/xlink" width="40" zoomAndPan="magnify" viewBox="0 0 30 30.000001" height="40" preserveAspectRatio="xMidYMid meet" version="1.0"><defs><clipPath id="f6b7e9c135"><path d="M 3.386719 1.886719 L 26.613281 1.886719 L 26.613281 25.113281 L 3.386719 25.113281 Z M 3.386719 1.886719 " clip-rule="nonzero"/></clipPath></defs><path fill="#000000" d="M 15 6.664062 C 12.808594 6.664062 11.019531 8.445312 11.019531 10.636719 C 11.019531 12.835938 12.808594 14.613281 15 14.613281 C 17.191406 14.613281 18.980469 12.835938 18.980469 10.636719 C 18.980469 8.445312 17.191406 6.664062 15 6.664062 Z M 15 6.664062 " fill-opacity="1" fill-rule="nonzero"/><g clip-path="url(#f6b7e9c135)"><path fill="#000000" d="M 14.992188 1.894531 C 8.597656 1.894531 3.386719 7.097656 3.386719 13.5 C 3.386719 17.0625 5.003906 20.25 7.535156 22.378906 C 7.535156 22.378906 7.535156 22.378906 7.535156 22.386719 C 9.558594 24.082031 12.160156 25.105469 14.992188 25.105469 C 19.035156 25.105469 22.71875 23.0625 24.855469 19.632812 C 26.007812 17.789062 26.613281 15.675781 26.613281 13.5 C 26.613281 11.324219 26.007812 9.203125 24.855469 7.367188 C 22.71875 3.9375 19.035156 1.894531 14.992188 1.894531 Z M 23.546875 18.8125 C 23.175781 19.40625 22.742188 19.933594 22.269531 20.429688 C 21.09375 18.011719 18.59375 16.402344 15.828125 16.402344 L 14.171875 16.402344 C 12.25 16.402344 10.449219 17.152344 9.09375 18.507812 C 8.527344 19.066406 8.078125 19.722656 7.730469 20.4375 C 6.003906 18.632812 4.933594 16.195312 4.933594 13.5 C 4.933594 7.957031 9.449219 3.441406 14.992188 3.441406 C 18.5 3.441406 21.6875 5.214844 23.546875 8.1875 C 24.539062 9.785156 25.066406 11.617188 25.066406 13.5 C 25.066406 15.382812 24.539062 17.214844 23.546875 18.8125 Z M 23.546875 18.8125 " fill-opacity="1" fill-rule="nonzero"/></g></svg>